%TF.GenerationSoftware,KiCad,Pcbnew,(5.1.12)-1*%
%TF.CreationDate,2023-08-26T19:42:54+05:30*%
%TF.ProjectId,SINGLE CHANNEL RELAY MODULE,53494e47-4c45-4204-9348-414e4e454c20,rev?*%
%TF.SameCoordinates,Original*%
%TF.FileFunction,Legend,Top*%
%TF.FilePolarity,Positive*%
%FSLAX46Y46*%
G04 Gerber Fmt 4.6, Leading zero omitted, Abs format (unit mm)*
G04 Created by KiCad (PCBNEW (5.1.12)-1) date 2023-08-26 19:42:54*
%MOMM*%
%LPD*%
G01*
G04 APERTURE LIST*
%ADD10C,0.120000*%
%ADD11C,0.127000*%
%ADD12C,0.150000*%
G04 APERTURE END LIST*
D10*
%TO.C,D2*%
X164494899Y-82700000D02*
G75*
G03*
X164494899Y-82700000I-2174899J0D01*
G01*
X162320000Y-80525101D02*
X162320000Y-79320000D01*
%TO.C,C1*%
X159580000Y-78310000D02*
G75*
G03*
X159580000Y-78310000I-2120000J0D01*
G01*
X159540000Y-78310000D02*
X155380000Y-78310000D01*
X159540000Y-78350000D02*
X155380000Y-78350000D01*
X159539000Y-78390000D02*
X155381000Y-78390000D01*
X159537000Y-78430000D02*
X155383000Y-78430000D01*
X159534000Y-78470000D02*
X155386000Y-78470000D01*
X159531000Y-78510000D02*
X158300000Y-78510000D01*
X156620000Y-78510000D02*
X155389000Y-78510000D01*
X159527000Y-78550000D02*
X158300000Y-78550000D01*
X156620000Y-78550000D02*
X155393000Y-78550000D01*
X159522000Y-78590000D02*
X158300000Y-78590000D01*
X156620000Y-78590000D02*
X155398000Y-78590000D01*
X159516000Y-78630000D02*
X158300000Y-78630000D01*
X156620000Y-78630000D02*
X155404000Y-78630000D01*
X159510000Y-78670000D02*
X158300000Y-78670000D01*
X156620000Y-78670000D02*
X155410000Y-78670000D01*
X159502000Y-78710000D02*
X158300000Y-78710000D01*
X156620000Y-78710000D02*
X155418000Y-78710000D01*
X159494000Y-78750000D02*
X158300000Y-78750000D01*
X156620000Y-78750000D02*
X155426000Y-78750000D01*
X159485000Y-78790000D02*
X158300000Y-78790000D01*
X156620000Y-78790000D02*
X155435000Y-78790000D01*
X159476000Y-78830000D02*
X158300000Y-78830000D01*
X156620000Y-78830000D02*
X155444000Y-78830000D01*
X159465000Y-78870000D02*
X158300000Y-78870000D01*
X156620000Y-78870000D02*
X155455000Y-78870000D01*
X159454000Y-78910000D02*
X158300000Y-78910000D01*
X156620000Y-78910000D02*
X155466000Y-78910000D01*
X159442000Y-78950000D02*
X158300000Y-78950000D01*
X156620000Y-78950000D02*
X155478000Y-78950000D01*
X159428000Y-78990000D02*
X158300000Y-78990000D01*
X156620000Y-78990000D02*
X155492000Y-78990000D01*
X159414000Y-79031000D02*
X158300000Y-79031000D01*
X156620000Y-79031000D02*
X155506000Y-79031000D01*
X159400000Y-79071000D02*
X158300000Y-79071000D01*
X156620000Y-79071000D02*
X155520000Y-79071000D01*
X159384000Y-79111000D02*
X158300000Y-79111000D01*
X156620000Y-79111000D02*
X155536000Y-79111000D01*
X159367000Y-79151000D02*
X158300000Y-79151000D01*
X156620000Y-79151000D02*
X155553000Y-79151000D01*
X159349000Y-79191000D02*
X158300000Y-79191000D01*
X156620000Y-79191000D02*
X155571000Y-79191000D01*
X159330000Y-79231000D02*
X158300000Y-79231000D01*
X156620000Y-79231000D02*
X155590000Y-79231000D01*
X159311000Y-79271000D02*
X158300000Y-79271000D01*
X156620000Y-79271000D02*
X155609000Y-79271000D01*
X159290000Y-79311000D02*
X158300000Y-79311000D01*
X156620000Y-79311000D02*
X155630000Y-79311000D01*
X159268000Y-79351000D02*
X158300000Y-79351000D01*
X156620000Y-79351000D02*
X155652000Y-79351000D01*
X159245000Y-79391000D02*
X158300000Y-79391000D01*
X156620000Y-79391000D02*
X155675000Y-79391000D01*
X159220000Y-79431000D02*
X158300000Y-79431000D01*
X156620000Y-79431000D02*
X155700000Y-79431000D01*
X159195000Y-79471000D02*
X158300000Y-79471000D01*
X156620000Y-79471000D02*
X155725000Y-79471000D01*
X159168000Y-79511000D02*
X158300000Y-79511000D01*
X156620000Y-79511000D02*
X155752000Y-79511000D01*
X159140000Y-79551000D02*
X158300000Y-79551000D01*
X156620000Y-79551000D02*
X155780000Y-79551000D01*
X159110000Y-79591000D02*
X158300000Y-79591000D01*
X156620000Y-79591000D02*
X155810000Y-79591000D01*
X159079000Y-79631000D02*
X158300000Y-79631000D01*
X156620000Y-79631000D02*
X155841000Y-79631000D01*
X159047000Y-79671000D02*
X158300000Y-79671000D01*
X156620000Y-79671000D02*
X155873000Y-79671000D01*
X159012000Y-79711000D02*
X158300000Y-79711000D01*
X156620000Y-79711000D02*
X155908000Y-79711000D01*
X158976000Y-79751000D02*
X158300000Y-79751000D01*
X156620000Y-79751000D02*
X155944000Y-79751000D01*
X158938000Y-79791000D02*
X158300000Y-79791000D01*
X156620000Y-79791000D02*
X155982000Y-79791000D01*
X158898000Y-79831000D02*
X158300000Y-79831000D01*
X156620000Y-79831000D02*
X156022000Y-79831000D01*
X158856000Y-79871000D02*
X158300000Y-79871000D01*
X156620000Y-79871000D02*
X156064000Y-79871000D01*
X158811000Y-79911000D02*
X158300000Y-79911000D01*
X156620000Y-79911000D02*
X156109000Y-79911000D01*
X158764000Y-79951000D02*
X158300000Y-79951000D01*
X156620000Y-79951000D02*
X156156000Y-79951000D01*
X158714000Y-79991000D02*
X158300000Y-79991000D01*
X156620000Y-79991000D02*
X156206000Y-79991000D01*
X158660000Y-80031000D02*
X158300000Y-80031000D01*
X156620000Y-80031000D02*
X156260000Y-80031000D01*
X158602000Y-80071000D02*
X158300000Y-80071000D01*
X156620000Y-80071000D02*
X156318000Y-80071000D01*
X158540000Y-80111000D02*
X158300000Y-80111000D01*
X156620000Y-80111000D02*
X156380000Y-80111000D01*
X158473000Y-80151000D02*
X156447000Y-80151000D01*
X158400000Y-80191000D02*
X156520000Y-80191000D01*
X158319000Y-80231000D02*
X156601000Y-80231000D01*
X158228000Y-80271000D02*
X156692000Y-80271000D01*
X158124000Y-80311000D02*
X156796000Y-80311000D01*
X157997000Y-80351000D02*
X156923000Y-80351000D01*
X157830000Y-80391000D02*
X157090000Y-80391000D01*
X158655000Y-76040199D02*
X158655000Y-76440199D01*
X158855000Y-76240199D02*
X158455000Y-76240199D01*
%TO.C,R2*%
X143870000Y-81700000D02*
X143870000Y-77860000D01*
X145710000Y-81700000D02*
X145710000Y-77860000D01*
%TO.C,R1*%
X149050000Y-77760000D02*
X149050000Y-81600000D01*
X147210000Y-77760000D02*
X147210000Y-81600000D01*
%TO.C,Q1*%
X152570000Y-85620000D02*
X156170000Y-85620000D01*
X156208478Y-85608478D02*
G75*
G03*
X154370000Y-81170000I-1838478J1838478D01*
G01*
X152531522Y-85608478D02*
G75*
G02*
X154370000Y-81170000I1838478J1838478D01*
G01*
D11*
%TO.C,K1*%
X162730000Y-97010000D02*
X147330000Y-97010000D01*
X147330000Y-97010000D02*
X147330000Y-86610000D01*
X147330000Y-86610000D02*
X162730000Y-86610000D01*
X162730000Y-86610000D02*
X162730000Y-97010000D01*
D10*
%TO.C,J2*%
X164820000Y-96610000D02*
X167480000Y-96610000D01*
X164820000Y-91470000D02*
X164820000Y-96610000D01*
X167480000Y-91470000D02*
X167480000Y-96610000D01*
X164820000Y-91470000D02*
X167480000Y-91470000D01*
X164820000Y-90200000D02*
X164820000Y-88870000D01*
X164820000Y-88870000D02*
X166150000Y-88870000D01*
%TO.C,J1*%
X146330000Y-86590000D02*
X143670000Y-86590000D01*
X146330000Y-91730000D02*
X146330000Y-86590000D01*
X143670000Y-91730000D02*
X143670000Y-86590000D01*
X146330000Y-91730000D02*
X143670000Y-91730000D01*
X146330000Y-93000000D02*
X146330000Y-94330000D01*
X146330000Y-94330000D02*
X145000000Y-94330000D01*
%TO.C,D1*%
X154060000Y-79656000D02*
X154060000Y-79500000D01*
X154060000Y-77340000D02*
X154060000Y-77184000D01*
X151458870Y-77340163D02*
G75*
G02*
X153540961Y-77340000I1041130J-1079837D01*
G01*
X151458870Y-79499837D02*
G75*
G03*
X153540961Y-79500000I1041130J1079837D01*
G01*
X150827665Y-77341392D02*
G75*
G02*
X154060000Y-77184484I1672335J-1078608D01*
G01*
X150827665Y-79498608D02*
G75*
G03*
X154060000Y-79655516I1672335J1078608D01*
G01*
%TO.C,D2*%
D12*
X166256666Y-80936666D02*
X165556666Y-80936666D01*
X165556666Y-80770000D01*
X165590000Y-80670000D01*
X165656666Y-80603333D01*
X165723333Y-80570000D01*
X165856666Y-80536666D01*
X165956666Y-80536666D01*
X166090000Y-80570000D01*
X166156666Y-80603333D01*
X166223333Y-80670000D01*
X166256666Y-80770000D01*
X166256666Y-80936666D01*
X165623333Y-80270000D02*
X165590000Y-80236666D01*
X165556666Y-80170000D01*
X165556666Y-80003333D01*
X165590000Y-79936666D01*
X165623333Y-79903333D01*
X165690000Y-79870000D01*
X165756666Y-79870000D01*
X165856666Y-79903333D01*
X166256666Y-80303333D01*
X166256666Y-79870000D01*
X163886666Y-79958095D02*
X163886666Y-79481904D01*
X164172380Y-80053333D02*
X163172380Y-79720000D01*
X164172380Y-79386666D01*
%TO.C,C1*%
X157723333Y-81695000D02*
X157690000Y-81728333D01*
X157590000Y-81761666D01*
X157523333Y-81761666D01*
X157423333Y-81728333D01*
X157356666Y-81661666D01*
X157323333Y-81595000D01*
X157290000Y-81461666D01*
X157290000Y-81361666D01*
X157323333Y-81228333D01*
X157356666Y-81161666D01*
X157423333Y-81095000D01*
X157523333Y-81061666D01*
X157590000Y-81061666D01*
X157690000Y-81095000D01*
X157723333Y-81128333D01*
X158390000Y-81761666D02*
X157990000Y-81761666D01*
X158190000Y-81761666D02*
X158190000Y-81061666D01*
X158123333Y-81161666D01*
X158056666Y-81228333D01*
X157990000Y-81261666D01*
%TO.C,R2*%
X143556666Y-79886666D02*
X143223333Y-80120000D01*
X143556666Y-80286666D02*
X142856666Y-80286666D01*
X142856666Y-80020000D01*
X142890000Y-79953333D01*
X142923333Y-79920000D01*
X142990000Y-79886666D01*
X143090000Y-79886666D01*
X143156666Y-79920000D01*
X143190000Y-79953333D01*
X143223333Y-80020000D01*
X143223333Y-80286666D01*
X142923333Y-79620000D02*
X142890000Y-79586666D01*
X142856666Y-79520000D01*
X142856666Y-79353333D01*
X142890000Y-79286666D01*
X142923333Y-79253333D01*
X142990000Y-79220000D01*
X143056666Y-79220000D01*
X143156666Y-79253333D01*
X143556666Y-79653333D01*
X143556666Y-79220000D01*
%TO.C,R1*%
X146831666Y-79911666D02*
X146498333Y-80145000D01*
X146831666Y-80311666D02*
X146131666Y-80311666D01*
X146131666Y-80045000D01*
X146165000Y-79978333D01*
X146198333Y-79945000D01*
X146265000Y-79911666D01*
X146365000Y-79911666D01*
X146431666Y-79945000D01*
X146465000Y-79978333D01*
X146498333Y-80045000D01*
X146498333Y-80311666D01*
X146831666Y-79245000D02*
X146831666Y-79645000D01*
X146831666Y-79445000D02*
X146131666Y-79445000D01*
X146231666Y-79511666D01*
X146298333Y-79578333D01*
X146331666Y-79645000D01*
%TO.C,Q1*%
X150848333Y-84128333D02*
X150781666Y-84095000D01*
X150715000Y-84028333D01*
X150615000Y-83928333D01*
X150548333Y-83895000D01*
X150481666Y-83895000D01*
X150515000Y-84061666D02*
X150448333Y-84028333D01*
X150381666Y-83961666D01*
X150348333Y-83828333D01*
X150348333Y-83595000D01*
X150381666Y-83461666D01*
X150448333Y-83395000D01*
X150515000Y-83361666D01*
X150648333Y-83361666D01*
X150715000Y-83395000D01*
X150781666Y-83461666D01*
X150815000Y-83595000D01*
X150815000Y-83828333D01*
X150781666Y-83961666D01*
X150715000Y-84028333D01*
X150648333Y-84061666D01*
X150515000Y-84061666D01*
X151481666Y-84061666D02*
X151081666Y-84061666D01*
X151281666Y-84061666D02*
X151281666Y-83361666D01*
X151215000Y-83461666D01*
X151148333Y-83528333D01*
X151081666Y-83561666D01*
%TO.C,K1*%
X154323333Y-98911666D02*
X154323333Y-98211666D01*
X154723333Y-98911666D02*
X154423333Y-98511666D01*
X154723333Y-98211666D02*
X154323333Y-98611666D01*
X155390000Y-98911666D02*
X154990000Y-98911666D01*
X155190000Y-98911666D02*
X155190000Y-98211666D01*
X155123333Y-98311666D01*
X155056666Y-98378333D01*
X154990000Y-98411666D01*
%TO.C,J2*%
X165916666Y-87486666D02*
X165916666Y-87986666D01*
X165883333Y-88086666D01*
X165816666Y-88153333D01*
X165716666Y-88186666D01*
X165650000Y-88186666D01*
X166216666Y-87553333D02*
X166250000Y-87520000D01*
X166316666Y-87486666D01*
X166483333Y-87486666D01*
X166550000Y-87520000D01*
X166583333Y-87553333D01*
X166616666Y-87620000D01*
X166616666Y-87686666D01*
X166583333Y-87786666D01*
X166183333Y-88186666D01*
X166616666Y-88186666D01*
%TO.C,J1*%
X144666666Y-94782380D02*
X144666666Y-95496666D01*
X144619047Y-95639523D01*
X144523809Y-95734761D01*
X144380952Y-95782380D01*
X144285714Y-95782380D01*
X145666666Y-95782380D02*
X145095238Y-95782380D01*
X145380952Y-95782380D02*
X145380952Y-94782380D01*
X145285714Y-94925238D01*
X145190476Y-95020476D01*
X145095238Y-95068095D01*
%TO.C,D1*%
X152198333Y-75936666D02*
X152198333Y-75236666D01*
X152365000Y-75236666D01*
X152465000Y-75270000D01*
X152531666Y-75336666D01*
X152565000Y-75403333D01*
X152598333Y-75536666D01*
X152598333Y-75636666D01*
X152565000Y-75770000D01*
X152531666Y-75836666D01*
X152465000Y-75903333D01*
X152365000Y-75936666D01*
X152198333Y-75936666D01*
X153265000Y-75936666D02*
X152865000Y-75936666D01*
X153065000Y-75936666D02*
X153065000Y-75236666D01*
X152998333Y-75336666D01*
X152931666Y-75403333D01*
X152865000Y-75436666D01*
%TD*%
M02*
