M48
; DRILL file {KiCad (5.1.12)-1} date 08/26/23 19:43:00
; FORMAT={-:-/ absolute / inch / decimal}
; #@! TF.CreationDate,2023-08-26T19:43:00+05:30
; #@! TF.GenerationSoftware,Kicad,Pcbnew,(5.1.12)-1
; #@! TF.FileFunction,Plated,1,2,PTH
FMAT,2
INCH
T1C0.0236
T2C0.0276
T3C0.0295
T4C0.0354
T5C0.0394
T6C0.0551
T7C0.1339
%
G90
G05
T1
X6.1992Y-3.0437
X6.1992Y-3.1224
T2
X5.7004Y-3.0409
X5.7004Y-3.2409
X5.8319Y-3.037
X5.8319Y-3.237
T3
X6.0276Y-3.298
X6.0776Y-3.298
X6.1276Y-3.298
T4
X5.9539Y-3.0874
X6.0539Y-3.0874
T5
X5.7087Y-3.4614
X5.7087Y-3.5614
X5.7087Y-3.6614
X5.8555Y-3.465
X6.2531Y-3.465
X6.2531Y-3.7642
X6.3516Y-3.465
X6.3516Y-3.7642
X6.5413Y-3.5512
X6.5413Y-3.6512
X6.5413Y-3.7512
T6
X6.3906Y-3.0559
X6.3906Y-3.2559
T7
X5.5512Y-2.9921
X5.5512Y-3.8976
X6.6929Y-2.9921
X6.6929Y-3.8976
T0
M30
