M48
; DRILL file {KiCad (5.1.12)-1} date 08/26/23 20:04:03
; FORMAT={-:-/ absolute / inch / decimal}
; #@! TF.CreationDate,2023-08-26T20:04:03+05:30
; #@! TF.GenerationSoftware,Kicad,Pcbnew,(5.1.12)-1
; #@! TF.FileFunction,Plated,1,2,PTH
FMAT,2
INCH
T1C0.0236
T2C0.0276
T3C0.0295
T4C0.0315
T5C0.0394
T6C0.1339
%
G90
G05
T1
X4.9185Y-3.1177
X4.9185Y-3.1965
T2
X4.7524Y-3.3594
X4.8291Y-2.965
X4.9524Y-3.3594
X5.0291Y-2.965
X5.0953Y-3.2366
X5.098Y-3.1299
X5.2953Y-3.2366
X5.298Y-3.1299
X5.3839Y-2.8772
X5.3839Y-3.0772
T3
X5.1453Y-2.9346
X5.1953Y-2.9346
X5.2453Y-2.9346
T4
X5.0516Y-3.3437
X5.0516Y-3.4437
X5.0516Y-3.5437
X5.0516Y-3.6437
X5.3516Y-3.3437
X5.3516Y-3.4437
X5.3516Y-3.5437
X5.3516Y-3.6437
T5
X4.8071Y-3.4886
X4.9071Y-3.4886
X5.5228Y-3.3709
X5.5228Y-3.4709
T6
X4.685Y-2.7953
X4.685Y-3.7402
X5.6299Y-2.7953
X5.6299Y-3.7402
T0
M30
