%TF.GenerationSoftware,KiCad,Pcbnew,(5.1.12)-1*%
%TF.CreationDate,2023-08-23T22:39:03+05:30*%
%TF.ProjectId,PULSED IC 555 ALARMS CIRCUIT,50554c53-4544-4204-9943-203535352041,rev?*%
%TF.SameCoordinates,Original*%
%TF.FileFunction,Legend,Top*%
%TF.FilePolarity,Positive*%
%FSLAX46Y46*%
G04 Gerber Fmt 4.6, Leading zero omitted, Abs format (unit mm)*
G04 Created by KiCad (PCBNEW (5.1.12)-1) date 2023-08-23 22:39:03*
%MOMM*%
%LPD*%
G01*
G04 APERTURE LIST*
%ADD10C,0.120000*%
%ADD11C,0.127000*%
%ADD12C,0.150000*%
G04 APERTURE END LIST*
D10*
%TO.C,U2*%
X159435001Y-73105001D02*
G75*
G02*
X157435001Y-73105001I-1000000J0D01*
G01*
X157435001Y-73105001D02*
X156185001Y-73105001D01*
X156185001Y-73105001D02*
X156185001Y-83385001D01*
X156185001Y-83385001D02*
X160685001Y-83385001D01*
X160685001Y-83385001D02*
X160685001Y-73105001D01*
X160685001Y-73105001D02*
X159435001Y-73105001D01*
%TO.C,U1*%
X159435001Y-84855001D02*
G75*
G02*
X157435001Y-84855001I-1000000J0D01*
G01*
X157435001Y-84855001D02*
X156185001Y-84855001D01*
X156185001Y-84855001D02*
X156185001Y-95135001D01*
X156185001Y-95135001D02*
X160685001Y-95135001D01*
X160685001Y-95135001D02*
X160685001Y-84855001D01*
X160685001Y-84855001D02*
X159435001Y-84855001D01*
%TO.C,TP1*%
X144570000Y-107518000D02*
X144570000Y-104858000D01*
X141970000Y-107518000D02*
X144570000Y-107518000D01*
X141970000Y-104858000D02*
X144570000Y-104858000D01*
X141970000Y-107518000D02*
X141970000Y-104858000D01*
X140700000Y-107518000D02*
X139370000Y-107518000D01*
X139370000Y-107518000D02*
X139370000Y-106188000D01*
%TO.C,R8*%
X136745001Y-101965001D02*
X140585001Y-101965001D01*
X136745001Y-103805001D02*
X140585001Y-103805001D01*
%TO.C,R7*%
X128715001Y-101965001D02*
X132555001Y-101965001D01*
X128715001Y-103805001D02*
X132555001Y-103805001D01*
%TO.C,R6*%
X120685001Y-105115001D02*
X124525001Y-105115001D01*
X120685001Y-106955001D02*
X124525001Y-106955001D01*
%TO.C,R5*%
X128874000Y-105014000D02*
X132714000Y-105014000D01*
X128874000Y-106854000D02*
X132714000Y-106854000D01*
%TO.C,R4*%
X112655001Y-105115001D02*
X116495001Y-105115001D01*
X112655001Y-106955001D02*
X116495001Y-106955001D01*
%TO.C,R3*%
X120685001Y-101965001D02*
X124525001Y-101965001D01*
X120685001Y-103805001D02*
X124525001Y-103805001D01*
%TO.C,R2*%
X149100000Y-103710000D02*
X145260000Y-103710000D01*
X149100000Y-101870000D02*
X145260000Y-101870000D01*
%TO.C,R1*%
X112655001Y-101965001D02*
X116495001Y-101965001D01*
X112655001Y-103805001D02*
X116495001Y-103805001D01*
%TO.C,Q3*%
X148567176Y-90143859D02*
G75*
G03*
X148720000Y-81540000I-2847176J4353859D01*
G01*
X112543034Y-90087693D02*
G75*
G02*
X112620000Y-81440000I2976966J4297693D01*
G01*
X137025870Y-97984151D02*
G75*
G02*
X124520000Y-98140000I-6405870J12194151D01*
G01*
X137025870Y-73595849D02*
G75*
G03*
X124520000Y-73440000I-6405870J-12194151D01*
G01*
X124520000Y-73440000D02*
X112620000Y-81440000D01*
X124520000Y-98140000D02*
X112520000Y-90040000D01*
X136920000Y-73540000D02*
X148720000Y-81540000D01*
X136920000Y-98040000D02*
X148720000Y-90040000D01*
D11*
%TO.C,Q2*%
X168266825Y-83342144D02*
G75*
G02*
X169575026Y-87541544I-786287J-2548411D01*
G01*
X164825626Y-86144544D02*
G75*
G02*
X166694226Y-83342044I2654899J254020D01*
G01*
X165385926Y-87541544D02*
G75*
G02*
X164825626Y-86144544I2094603J1650951D01*
G01*
X165386026Y-87541544D02*
X169575026Y-87541544D01*
X164825626Y-86144544D02*
X165226826Y-86144544D01*
X167194226Y-86144544D02*
X167766826Y-86144544D01*
X169734226Y-86144544D02*
X170135426Y-86144544D01*
D10*
%TO.C,Q1*%
X169462478Y-80086478D02*
G75*
G03*
X167624000Y-75648000I-1838478J1838478D01*
G01*
X165785522Y-80086478D02*
G75*
G02*
X167624000Y-75648000I1838478J1838478D01*
G01*
X165824000Y-80098000D02*
X169424000Y-80098000D01*
%TO.C,LS1*%
X168580000Y-99584000D02*
X171240000Y-99584000D01*
X168580000Y-99584000D02*
X168580000Y-102184000D01*
X168580000Y-102184000D02*
X171240000Y-102184000D01*
X171240000Y-99584000D02*
X171240000Y-102184000D01*
X171240000Y-96984000D02*
X171240000Y-98314000D01*
X169910000Y-96984000D02*
X171240000Y-96984000D01*
%TO.C,D4*%
X157501850Y-102838866D02*
G75*
G02*
X157561239Y-100970000I-1053850J968866D01*
G01*
%TO.C,D3*%
X163943850Y-102798866D02*
G75*
G02*
X164003239Y-100930000I-1053850J968866D01*
G01*
%TO.C,D2*%
X157501850Y-98774866D02*
G75*
G02*
X157561239Y-96906000I-1053850J968866D01*
G01*
%TO.C,D1*%
X163858851Y-98953867D02*
G75*
G02*
X163918240Y-97085001I-1053850J968866D01*
G01*
%TO.C,C4*%
X166446001Y-88755001D02*
X167704001Y-88755001D01*
X166446001Y-90595001D02*
X167704001Y-90595001D01*
%TO.C,C3*%
X166446001Y-91905001D02*
X167704001Y-91905001D01*
X166446001Y-93745001D02*
X167704001Y-93745001D01*
%TO.C,C2*%
X155591000Y-105420000D02*
X156849000Y-105420000D01*
X155591000Y-107260000D02*
X156849000Y-107260000D01*
%TO.C,C1*%
X150731000Y-105310000D02*
X151989000Y-105310000D01*
X150731000Y-107150000D02*
X151989000Y-107150000D01*
%TO.C,U2*%
D12*
X157673096Y-71557381D02*
X157673096Y-72366905D01*
X157720715Y-72462143D01*
X157768334Y-72509762D01*
X157863572Y-72557381D01*
X158054048Y-72557381D01*
X158149286Y-72509762D01*
X158196905Y-72462143D01*
X158244524Y-72366905D01*
X158244524Y-71557381D01*
X158673096Y-71652620D02*
X158720715Y-71605001D01*
X158815953Y-71557381D01*
X159054048Y-71557381D01*
X159149286Y-71605001D01*
X159196905Y-71652620D01*
X159244524Y-71747858D01*
X159244524Y-71843096D01*
X159196905Y-71985953D01*
X158625477Y-72557381D01*
X159244524Y-72557381D01*
%TO.C,U1*%
X157673096Y-83307381D02*
X157673096Y-84116905D01*
X157720715Y-84212143D01*
X157768334Y-84259762D01*
X157863572Y-84307381D01*
X158054048Y-84307381D01*
X158149286Y-84259762D01*
X158196905Y-84212143D01*
X158244524Y-84116905D01*
X158244524Y-83307381D01*
X159244524Y-84307381D02*
X158673096Y-84307381D01*
X158958810Y-84307381D02*
X158958810Y-83307381D01*
X158863572Y-83450239D01*
X158768334Y-83545477D01*
X158673096Y-83593096D01*
%TO.C,TP1*%
X137822380Y-107449904D02*
X137822380Y-106878476D01*
X138822380Y-107164190D02*
X137822380Y-107164190D01*
X138822380Y-106545142D02*
X137822380Y-106545142D01*
X137822380Y-106164190D01*
X137870000Y-106068952D01*
X137917619Y-106021333D01*
X138012857Y-105973714D01*
X138155714Y-105973714D01*
X138250952Y-106021333D01*
X138298571Y-106068952D01*
X138346190Y-106164190D01*
X138346190Y-106545142D01*
X138822380Y-105021333D02*
X138822380Y-105592761D01*
X138822380Y-105307047D02*
X137822380Y-105307047D01*
X137965238Y-105402285D01*
X138060476Y-105497523D01*
X138108095Y-105592761D01*
%TO.C,R8*%
X138498334Y-101417381D02*
X138165001Y-100941191D01*
X137926905Y-101417381D02*
X137926905Y-100417381D01*
X138307858Y-100417381D01*
X138403096Y-100465001D01*
X138450715Y-100512620D01*
X138498334Y-100607858D01*
X138498334Y-100750715D01*
X138450715Y-100845953D01*
X138403096Y-100893572D01*
X138307858Y-100941191D01*
X137926905Y-100941191D01*
X139069762Y-100845953D02*
X138974524Y-100798334D01*
X138926905Y-100750715D01*
X138879286Y-100655477D01*
X138879286Y-100607858D01*
X138926905Y-100512620D01*
X138974524Y-100465001D01*
X139069762Y-100417381D01*
X139260239Y-100417381D01*
X139355477Y-100465001D01*
X139403096Y-100512620D01*
X139450715Y-100607858D01*
X139450715Y-100655477D01*
X139403096Y-100750715D01*
X139355477Y-100798334D01*
X139260239Y-100845953D01*
X139069762Y-100845953D01*
X138974524Y-100893572D01*
X138926905Y-100941191D01*
X138879286Y-101036429D01*
X138879286Y-101226905D01*
X138926905Y-101322143D01*
X138974524Y-101369762D01*
X139069762Y-101417381D01*
X139260239Y-101417381D01*
X139355477Y-101369762D01*
X139403096Y-101322143D01*
X139450715Y-101226905D01*
X139450715Y-101036429D01*
X139403096Y-100941191D01*
X139355477Y-100893572D01*
X139260239Y-100845953D01*
%TO.C,R7*%
X130468334Y-101417381D02*
X130135001Y-100941191D01*
X129896905Y-101417381D02*
X129896905Y-100417381D01*
X130277858Y-100417381D01*
X130373096Y-100465001D01*
X130420715Y-100512620D01*
X130468334Y-100607858D01*
X130468334Y-100750715D01*
X130420715Y-100845953D01*
X130373096Y-100893572D01*
X130277858Y-100941191D01*
X129896905Y-100941191D01*
X130801667Y-100417381D02*
X131468334Y-100417381D01*
X131039762Y-101417381D01*
%TO.C,R6*%
X122438334Y-104567381D02*
X122105001Y-104091191D01*
X121866905Y-104567381D02*
X121866905Y-103567381D01*
X122247858Y-103567381D01*
X122343096Y-103615001D01*
X122390715Y-103662620D01*
X122438334Y-103757858D01*
X122438334Y-103900715D01*
X122390715Y-103995953D01*
X122343096Y-104043572D01*
X122247858Y-104091191D01*
X121866905Y-104091191D01*
X123295477Y-103567381D02*
X123105001Y-103567381D01*
X123009762Y-103615001D01*
X122962143Y-103662620D01*
X122866905Y-103805477D01*
X122819286Y-103995953D01*
X122819286Y-104376905D01*
X122866905Y-104472143D01*
X122914524Y-104519762D01*
X123009762Y-104567381D01*
X123200239Y-104567381D01*
X123295477Y-104519762D01*
X123343096Y-104472143D01*
X123390715Y-104376905D01*
X123390715Y-104138810D01*
X123343096Y-104043572D01*
X123295477Y-103995953D01*
X123200239Y-103948334D01*
X123009762Y-103948334D01*
X122914524Y-103995953D01*
X122866905Y-104043572D01*
X122819286Y-104138810D01*
%TO.C,R5*%
X130627333Y-104466380D02*
X130294000Y-103990190D01*
X130055904Y-104466380D02*
X130055904Y-103466380D01*
X130436857Y-103466380D01*
X130532095Y-103514000D01*
X130579714Y-103561619D01*
X130627333Y-103656857D01*
X130627333Y-103799714D01*
X130579714Y-103894952D01*
X130532095Y-103942571D01*
X130436857Y-103990190D01*
X130055904Y-103990190D01*
X131532095Y-103466380D02*
X131055904Y-103466380D01*
X131008285Y-103942571D01*
X131055904Y-103894952D01*
X131151142Y-103847333D01*
X131389238Y-103847333D01*
X131484476Y-103894952D01*
X131532095Y-103942571D01*
X131579714Y-104037809D01*
X131579714Y-104275904D01*
X131532095Y-104371142D01*
X131484476Y-104418761D01*
X131389238Y-104466380D01*
X131151142Y-104466380D01*
X131055904Y-104418761D01*
X131008285Y-104371142D01*
%TO.C,R4*%
X114408334Y-104567381D02*
X114075001Y-104091191D01*
X113836905Y-104567381D02*
X113836905Y-103567381D01*
X114217858Y-103567381D01*
X114313096Y-103615001D01*
X114360715Y-103662620D01*
X114408334Y-103757858D01*
X114408334Y-103900715D01*
X114360715Y-103995953D01*
X114313096Y-104043572D01*
X114217858Y-104091191D01*
X113836905Y-104091191D01*
X115265477Y-103900715D02*
X115265477Y-104567381D01*
X115027381Y-103519762D02*
X114789286Y-104234048D01*
X115408334Y-104234048D01*
%TO.C,R3*%
X122438334Y-101417381D02*
X122105001Y-100941191D01*
X121866905Y-101417381D02*
X121866905Y-100417381D01*
X122247858Y-100417381D01*
X122343096Y-100465001D01*
X122390715Y-100512620D01*
X122438334Y-100607858D01*
X122438334Y-100750715D01*
X122390715Y-100845953D01*
X122343096Y-100893572D01*
X122247858Y-100941191D01*
X121866905Y-100941191D01*
X122771667Y-100417381D02*
X123390715Y-100417381D01*
X123057381Y-100798334D01*
X123200239Y-100798334D01*
X123295477Y-100845953D01*
X123343096Y-100893572D01*
X123390715Y-100988810D01*
X123390715Y-101226905D01*
X123343096Y-101322143D01*
X123295477Y-101369762D01*
X123200239Y-101417381D01*
X122914524Y-101417381D01*
X122819286Y-101369762D01*
X122771667Y-101322143D01*
%TO.C,R2*%
X147013333Y-105162380D02*
X146680000Y-104686190D01*
X146441904Y-105162380D02*
X146441904Y-104162380D01*
X146822857Y-104162380D01*
X146918095Y-104210000D01*
X146965714Y-104257619D01*
X147013333Y-104352857D01*
X147013333Y-104495714D01*
X146965714Y-104590952D01*
X146918095Y-104638571D01*
X146822857Y-104686190D01*
X146441904Y-104686190D01*
X147394285Y-104257619D02*
X147441904Y-104210000D01*
X147537142Y-104162380D01*
X147775238Y-104162380D01*
X147870476Y-104210000D01*
X147918095Y-104257619D01*
X147965714Y-104352857D01*
X147965714Y-104448095D01*
X147918095Y-104590952D01*
X147346666Y-105162380D01*
X147965714Y-105162380D01*
%TO.C,R1*%
X114408334Y-101417381D02*
X114075001Y-100941191D01*
X113836905Y-101417381D02*
X113836905Y-100417381D01*
X114217858Y-100417381D01*
X114313096Y-100465001D01*
X114360715Y-100512620D01*
X114408334Y-100607858D01*
X114408334Y-100750715D01*
X114360715Y-100845953D01*
X114313096Y-100893572D01*
X114217858Y-100941191D01*
X113836905Y-100941191D01*
X115360715Y-101417381D02*
X114789286Y-101417381D01*
X115075001Y-101417381D02*
X115075001Y-100417381D01*
X114979762Y-100560239D01*
X114884524Y-100655477D01*
X114789286Y-100703096D01*
%TO.C,Q3*%
X130524761Y-71637619D02*
X130429523Y-71590000D01*
X130334285Y-71494761D01*
X130191428Y-71351904D01*
X130096190Y-71304285D01*
X130000952Y-71304285D01*
X130048571Y-71542380D02*
X129953333Y-71494761D01*
X129858095Y-71399523D01*
X129810476Y-71209047D01*
X129810476Y-70875714D01*
X129858095Y-70685238D01*
X129953333Y-70590000D01*
X130048571Y-70542380D01*
X130239047Y-70542380D01*
X130334285Y-70590000D01*
X130429523Y-70685238D01*
X130477142Y-70875714D01*
X130477142Y-71209047D01*
X130429523Y-71399523D01*
X130334285Y-71494761D01*
X130239047Y-71542380D01*
X130048571Y-71542380D01*
X130810476Y-70542380D02*
X131429523Y-70542380D01*
X131096190Y-70923333D01*
X131239047Y-70923333D01*
X131334285Y-70970952D01*
X131381904Y-71018571D01*
X131429523Y-71113809D01*
X131429523Y-71351904D01*
X131381904Y-71447142D01*
X131334285Y-71494761D01*
X131239047Y-71542380D01*
X130953333Y-71542380D01*
X130858095Y-71494761D01*
X130810476Y-71447142D01*
%TO.C,Q2*%
X173735287Y-85168163D02*
X173640049Y-85120544D01*
X173544811Y-85025305D01*
X173401954Y-84882448D01*
X173306716Y-84834829D01*
X173211478Y-84834829D01*
X173259097Y-85072924D02*
X173163859Y-85025305D01*
X173068621Y-84930067D01*
X173021002Y-84739591D01*
X173021002Y-84406258D01*
X173068621Y-84215782D01*
X173163859Y-84120544D01*
X173259097Y-84072924D01*
X173449573Y-84072924D01*
X173544811Y-84120544D01*
X173640049Y-84215782D01*
X173687668Y-84406258D01*
X173687668Y-84739591D01*
X173640049Y-84930067D01*
X173544811Y-85025305D01*
X173449573Y-85072924D01*
X173259097Y-85072924D01*
X174068621Y-84168163D02*
X174116240Y-84120544D01*
X174211478Y-84072924D01*
X174449573Y-84072924D01*
X174544811Y-84120544D01*
X174592430Y-84168163D01*
X174640049Y-84263401D01*
X174640049Y-84358639D01*
X174592430Y-84501496D01*
X174021002Y-85072924D01*
X174640049Y-85072924D01*
%TO.C,Q1*%
X167528761Y-75235619D02*
X167433523Y-75188000D01*
X167338285Y-75092761D01*
X167195428Y-74949904D01*
X167100190Y-74902285D01*
X167004952Y-74902285D01*
X167052571Y-75140380D02*
X166957333Y-75092761D01*
X166862095Y-74997523D01*
X166814476Y-74807047D01*
X166814476Y-74473714D01*
X166862095Y-74283238D01*
X166957333Y-74188000D01*
X167052571Y-74140380D01*
X167243047Y-74140380D01*
X167338285Y-74188000D01*
X167433523Y-74283238D01*
X167481142Y-74473714D01*
X167481142Y-74807047D01*
X167433523Y-74997523D01*
X167338285Y-75092761D01*
X167243047Y-75140380D01*
X167052571Y-75140380D01*
X168433523Y-75140380D02*
X167862095Y-75140380D01*
X168147809Y-75140380D02*
X168147809Y-74140380D01*
X168052571Y-74283238D01*
X167957333Y-74378476D01*
X167862095Y-74426095D01*
%TO.C,LS1*%
X169267142Y-95996380D02*
X168790952Y-95996380D01*
X168790952Y-94996380D01*
X169552857Y-95948761D02*
X169695714Y-95996380D01*
X169933809Y-95996380D01*
X170029047Y-95948761D01*
X170076666Y-95901142D01*
X170124285Y-95805904D01*
X170124285Y-95710666D01*
X170076666Y-95615428D01*
X170029047Y-95567809D01*
X169933809Y-95520190D01*
X169743333Y-95472571D01*
X169648095Y-95424952D01*
X169600476Y-95377333D01*
X169552857Y-95282095D01*
X169552857Y-95186857D01*
X169600476Y-95091619D01*
X169648095Y-95044000D01*
X169743333Y-94996380D01*
X169981428Y-94996380D01*
X170124285Y-95044000D01*
X171076666Y-95996380D02*
X170505238Y-95996380D01*
X170790952Y-95996380D02*
X170790952Y-94996380D01*
X170695714Y-95139238D01*
X170600476Y-95234476D01*
X170505238Y-95282095D01*
%TO.C,D4*%
X156979904Y-99852380D02*
X156979904Y-98852380D01*
X157218000Y-98852380D01*
X157360857Y-98900000D01*
X157456095Y-98995238D01*
X157503714Y-99090476D01*
X157551333Y-99280952D01*
X157551333Y-99423809D01*
X157503714Y-99614285D01*
X157456095Y-99709523D01*
X157360857Y-99804761D01*
X157218000Y-99852380D01*
X156979904Y-99852380D01*
X158408476Y-99185714D02*
X158408476Y-99852380D01*
X158170380Y-98804761D02*
X157932285Y-99519047D01*
X158551333Y-99519047D01*
X160649904Y-102036666D02*
X161126095Y-102036666D01*
X160554666Y-102322380D02*
X160888000Y-101322380D01*
X161221333Y-102322380D01*
%TO.C,D3*%
X163421904Y-99812380D02*
X163421904Y-98812380D01*
X163660000Y-98812380D01*
X163802857Y-98860000D01*
X163898095Y-98955238D01*
X163945714Y-99050476D01*
X163993333Y-99240952D01*
X163993333Y-99383809D01*
X163945714Y-99574285D01*
X163898095Y-99669523D01*
X163802857Y-99764761D01*
X163660000Y-99812380D01*
X163421904Y-99812380D01*
X164326666Y-98812380D02*
X164945714Y-98812380D01*
X164612380Y-99193333D01*
X164755238Y-99193333D01*
X164850476Y-99240952D01*
X164898095Y-99288571D01*
X164945714Y-99383809D01*
X164945714Y-99621904D01*
X164898095Y-99717142D01*
X164850476Y-99764761D01*
X164755238Y-99812380D01*
X164469523Y-99812380D01*
X164374285Y-99764761D01*
X164326666Y-99717142D01*
X167091904Y-101996666D02*
X167568095Y-101996666D01*
X166996666Y-102282380D02*
X167330000Y-101282380D01*
X167663333Y-102282380D01*
%TO.C,D2*%
X156979904Y-95788380D02*
X156979904Y-94788380D01*
X157218000Y-94788380D01*
X157360857Y-94836000D01*
X157456095Y-94931238D01*
X157503714Y-95026476D01*
X157551333Y-95216952D01*
X157551333Y-95359809D01*
X157503714Y-95550285D01*
X157456095Y-95645523D01*
X157360857Y-95740761D01*
X157218000Y-95788380D01*
X156979904Y-95788380D01*
X157932285Y-94883619D02*
X157979904Y-94836000D01*
X158075142Y-94788380D01*
X158313238Y-94788380D01*
X158408476Y-94836000D01*
X158456095Y-94883619D01*
X158503714Y-94978857D01*
X158503714Y-95074095D01*
X158456095Y-95216952D01*
X157884666Y-95788380D01*
X158503714Y-95788380D01*
X160649904Y-97972666D02*
X161126095Y-97972666D01*
X160554666Y-98258380D02*
X160888000Y-97258380D01*
X161221333Y-98258380D01*
%TO.C,D1*%
X163336905Y-95967381D02*
X163336905Y-94967381D01*
X163575001Y-94967381D01*
X163717858Y-95015001D01*
X163813096Y-95110239D01*
X163860715Y-95205477D01*
X163908334Y-95395953D01*
X163908334Y-95538810D01*
X163860715Y-95729286D01*
X163813096Y-95824524D01*
X163717858Y-95919762D01*
X163575001Y-95967381D01*
X163336905Y-95967381D01*
X164860715Y-95967381D02*
X164289286Y-95967381D01*
X164575001Y-95967381D02*
X164575001Y-94967381D01*
X164479762Y-95110239D01*
X164384524Y-95205477D01*
X164289286Y-95253096D01*
X167006905Y-98151667D02*
X167483096Y-98151667D01*
X166911667Y-98437381D02*
X167245001Y-97437381D01*
X167578334Y-98437381D01*
%TO.C,C4*%
X166908334Y-87982143D02*
X166860715Y-88029762D01*
X166717858Y-88077381D01*
X166622620Y-88077381D01*
X166479762Y-88029762D01*
X166384524Y-87934524D01*
X166336905Y-87839286D01*
X166289286Y-87648810D01*
X166289286Y-87505953D01*
X166336905Y-87315477D01*
X166384524Y-87220239D01*
X166479762Y-87125001D01*
X166622620Y-87077381D01*
X166717858Y-87077381D01*
X166860715Y-87125001D01*
X166908334Y-87172620D01*
X167765477Y-87410715D02*
X167765477Y-88077381D01*
X167527381Y-87029762D02*
X167289286Y-87744048D01*
X167908334Y-87744048D01*
%TO.C,C3*%
X166908334Y-91132143D02*
X166860715Y-91179762D01*
X166717858Y-91227381D01*
X166622620Y-91227381D01*
X166479762Y-91179762D01*
X166384524Y-91084524D01*
X166336905Y-90989286D01*
X166289286Y-90798810D01*
X166289286Y-90655953D01*
X166336905Y-90465477D01*
X166384524Y-90370239D01*
X166479762Y-90275001D01*
X166622620Y-90227381D01*
X166717858Y-90227381D01*
X166860715Y-90275001D01*
X166908334Y-90322620D01*
X167241667Y-90227381D02*
X167860715Y-90227381D01*
X167527381Y-90608334D01*
X167670239Y-90608334D01*
X167765477Y-90655953D01*
X167813096Y-90703572D01*
X167860715Y-90798810D01*
X167860715Y-91036905D01*
X167813096Y-91132143D01*
X167765477Y-91179762D01*
X167670239Y-91227381D01*
X167384524Y-91227381D01*
X167289286Y-91179762D01*
X167241667Y-91132143D01*
%TO.C,C2*%
X156053333Y-104647142D02*
X156005714Y-104694761D01*
X155862857Y-104742380D01*
X155767619Y-104742380D01*
X155624761Y-104694761D01*
X155529523Y-104599523D01*
X155481904Y-104504285D01*
X155434285Y-104313809D01*
X155434285Y-104170952D01*
X155481904Y-103980476D01*
X155529523Y-103885238D01*
X155624761Y-103790000D01*
X155767619Y-103742380D01*
X155862857Y-103742380D01*
X156005714Y-103790000D01*
X156053333Y-103837619D01*
X156434285Y-103837619D02*
X156481904Y-103790000D01*
X156577142Y-103742380D01*
X156815238Y-103742380D01*
X156910476Y-103790000D01*
X156958095Y-103837619D01*
X157005714Y-103932857D01*
X157005714Y-104028095D01*
X156958095Y-104170952D01*
X156386666Y-104742380D01*
X157005714Y-104742380D01*
%TO.C,C1*%
X151193333Y-104537142D02*
X151145714Y-104584761D01*
X151002857Y-104632380D01*
X150907619Y-104632380D01*
X150764761Y-104584761D01*
X150669523Y-104489523D01*
X150621904Y-104394285D01*
X150574285Y-104203809D01*
X150574285Y-104060952D01*
X150621904Y-103870476D01*
X150669523Y-103775238D01*
X150764761Y-103680000D01*
X150907619Y-103632380D01*
X151002857Y-103632380D01*
X151145714Y-103680000D01*
X151193333Y-103727619D01*
X152145714Y-104632380D02*
X151574285Y-104632380D01*
X151860000Y-104632380D02*
X151860000Y-103632380D01*
X151764761Y-103775238D01*
X151669523Y-103870476D01*
X151574285Y-103918095D01*
%TD*%
M02*
