%TF.GenerationSoftware,KiCad,Pcbnew,(5.1.12)-1*%
%TF.CreationDate,2023-08-23T22:39:03+05:30*%
%TF.ProjectId,PULSED IC 555 ALARMS CIRCUIT,50554c53-4544-4204-9943-203535352041,rev?*%
%TF.SameCoordinates,Original*%
%TF.FileFunction,Copper,L2,Bot*%
%TF.FilePolarity,Positive*%
%FSLAX46Y46*%
G04 Gerber Fmt 4.6, Leading zero omitted, Abs format (unit mm)*
G04 Created by KiCad (PCBNEW (5.1.12)-1) date 2023-08-23 22:39:03*
%MOMM*%
%LPD*%
G01*
G04 APERTURE LIST*
%TA.AperFunction,ComponentPad*%
%ADD10O,2.400000X1.600000*%
%TD*%
%TA.AperFunction,ComponentPad*%
%ADD11R,2.400000X1.600000*%
%TD*%
%TA.AperFunction,ComponentPad*%
%ADD12O,1.700000X1.700000*%
%TD*%
%TA.AperFunction,ComponentPad*%
%ADD13R,1.700000X1.700000*%
%TD*%
%TA.AperFunction,ComponentPad*%
%ADD14O,1.400000X1.400000*%
%TD*%
%TA.AperFunction,ComponentPad*%
%ADD15C,1.400000*%
%TD*%
%TA.AperFunction,ComponentPad*%
%ADD16C,6.350000*%
%TD*%
%TA.AperFunction,ComponentPad*%
%ADD17C,2.600000*%
%TD*%
%TA.AperFunction,ComponentPad*%
%ADD18R,2.600000X2.600000*%
%TD*%
%TA.AperFunction,ComponentPad*%
%ADD19C,1.320800*%
%TD*%
%TA.AperFunction,ComponentPad*%
%ADD20R,1.050000X1.500000*%
%TD*%
%TA.AperFunction,ComponentPad*%
%ADD21O,1.050000X1.500000*%
%TD*%
%TA.AperFunction,ComponentPad*%
%ADD22O,1.800000X1.800000*%
%TD*%
%TA.AperFunction,ComponentPad*%
%ADD23R,1.800000X1.800000*%
%TD*%
%TA.AperFunction,ComponentPad*%
%ADD24C,1.600000*%
%TD*%
%TA.AperFunction,ViaPad*%
%ADD25C,3.500000*%
%TD*%
%TA.AperFunction,Conductor*%
%ADD26C,0.250000*%
%TD*%
%TA.AperFunction,Conductor*%
%ADD27C,0.254000*%
%TD*%
%TA.AperFunction,Conductor*%
%ADD28C,0.100000*%
%TD*%
G04 APERTURE END LIST*
D10*
%TO.P,U2,8*%
%TO.N,Net-(C1-Pad1)*%
X162245001Y-74435001D03*
%TO.P,U2,4*%
X154625001Y-82055001D03*
%TO.P,U2,7*%
%TO.N,Net-(R5-Pad2)*%
X162245001Y-76975001D03*
%TO.P,U2,3*%
%TO.N,Net-(R8-Pad1)*%
X154625001Y-79515001D03*
%TO.P,U2,6*%
%TO.N,Net-(C4-Pad1)*%
X162245001Y-79515001D03*
%TO.P,U2,2*%
X154625001Y-76975001D03*
%TO.P,U2,5*%
%TO.N,Net-(R7-Pad1)*%
X162245001Y-82055001D03*
D11*
%TO.P,U2,1*%
%TO.N,Earth*%
X154625001Y-74435001D03*
%TD*%
D10*
%TO.P,U1,8*%
%TO.N,Net-(C1-Pad1)*%
X162245001Y-86185001D03*
%TO.P,U1,4*%
X154625001Y-93805001D03*
%TO.P,U1,7*%
%TO.N,Net-(D1-Pad2)*%
X162245001Y-88725001D03*
%TO.P,U1,3*%
%TO.N,Net-(R3-Pad1)*%
X154625001Y-91265001D03*
%TO.P,U1,6*%
%TO.N,Net-(C2-Pad1)*%
X162245001Y-91265001D03*
%TO.P,U1,2*%
X154625001Y-88725001D03*
%TO.P,U1,5*%
%TO.N,Net-(C3-Pad1)*%
X162245001Y-93805001D03*
D11*
%TO.P,U1,1*%
%TO.N,Earth*%
X154625001Y-86185001D03*
%TD*%
D12*
%TO.P,TP1,2*%
%TO.N,Earth*%
X143240000Y-106188000D03*
D13*
%TO.P,TP1,1*%
%TO.N,Net-(D2-Pad2)*%
X140700000Y-106188000D03*
%TD*%
D14*
%TO.P,R8,2*%
%TO.N,Net-(Q3-Pad1)*%
X141205001Y-102885001D03*
D15*
%TO.P,R8,1*%
%TO.N,Net-(R8-Pad1)*%
X136125001Y-102885001D03*
%TD*%
D14*
%TO.P,R7,2*%
%TO.N,Net-(Q1-Pad3)*%
X133175001Y-102885001D03*
D15*
%TO.P,R7,1*%
%TO.N,Net-(R7-Pad1)*%
X128095001Y-102885001D03*
%TD*%
D14*
%TO.P,R6,2*%
%TO.N,Net-(C4-Pad1)*%
X125145001Y-106035001D03*
D15*
%TO.P,R6,1*%
%TO.N,Net-(R5-Pad2)*%
X120065001Y-106035001D03*
%TD*%
D14*
%TO.P,R5,2*%
%TO.N,Net-(R5-Pad2)*%
X133334000Y-105934000D03*
D15*
%TO.P,R5,1*%
%TO.N,Net-(C1-Pad1)*%
X128254000Y-105934000D03*
%TD*%
D14*
%TO.P,R4,2*%
%TO.N,Net-(Q1-Pad3)*%
X117115001Y-106035001D03*
D15*
%TO.P,R4,1*%
%TO.N,Net-(C1-Pad1)*%
X112035001Y-106035001D03*
%TD*%
D14*
%TO.P,R3,2*%
%TO.N,Net-(Q2-Pad1)*%
X125145001Y-102885001D03*
D15*
%TO.P,R3,1*%
%TO.N,Net-(R3-Pad1)*%
X120065001Y-102885001D03*
%TD*%
D14*
%TO.P,R2,2*%
%TO.N,Net-(C2-Pad1)*%
X144640000Y-102790000D03*
D15*
%TO.P,R2,1*%
%TO.N,Net-(D1-Pad2)*%
X149720000Y-102790000D03*
%TD*%
D14*
%TO.P,R1,2*%
%TO.N,Net-(D1-Pad2)*%
X117115001Y-102885001D03*
D15*
%TO.P,R1,1*%
%TO.N,Net-(C1-Pad1)*%
X112035001Y-102885001D03*
%TD*%
D16*
%TO.P,Q3,3*%
%TO.N,Net-(D3-Pad2)*%
X145720000Y-85790000D03*
X115520000Y-85790000D03*
D17*
%TO.P,Q3,2*%
%TO.N,Earth*%
X128820000Y-91260000D03*
D18*
%TO.P,Q3,1*%
%TO.N,Net-(Q3-Pad1)*%
X128820000Y-80340000D03*
%TD*%
D19*
%TO.P,Q2,3*%
%TO.N,Earth*%
X166210526Y-85890544D03*
%TO.P,Q2,2*%
%TO.N,Net-(C4-Pad1)*%
X167480526Y-83985544D03*
%TO.P,Q2,1*%
%TO.N,Net-(Q2-Pad1)*%
X168750526Y-85890544D03*
%TD*%
D20*
%TO.P,Q1,1*%
%TO.N,Earth*%
X166354000Y-78248000D03*
D21*
%TO.P,Q1,3*%
%TO.N,Net-(Q1-Pad3)*%
X168894000Y-78248000D03*
%TO.P,Q1,2*%
%TO.N,Net-(C2-Pad1)*%
X167624000Y-78248000D03*
%TD*%
D12*
%TO.P,LS1,2*%
%TO.N,Net-(D3-Pad2)*%
X169910000Y-100854000D03*
D13*
%TO.P,LS1,1*%
%TO.N,Net-(D2-Pad2)*%
X169910000Y-98314000D03*
%TD*%
D22*
%TO.P,D4,2*%
%TO.N,Earth*%
X158988000Y-101870000D03*
D23*
%TO.P,D4,1*%
%TO.N,Net-(D3-Pad2)*%
X156448000Y-101870000D03*
%TD*%
D22*
%TO.P,D3,2*%
%TO.N,Net-(D3-Pad2)*%
X165430000Y-101830000D03*
D23*
%TO.P,D3,1*%
%TO.N,Net-(D2-Pad2)*%
X162890000Y-101830000D03*
%TD*%
D22*
%TO.P,D2,2*%
%TO.N,Net-(D2-Pad2)*%
X158988000Y-97806000D03*
D23*
%TO.P,D2,1*%
%TO.N,Net-(C1-Pad1)*%
X156448000Y-97806000D03*
%TD*%
D22*
%TO.P,D1,2*%
%TO.N,Net-(D1-Pad2)*%
X165345001Y-97985001D03*
D23*
%TO.P,D1,1*%
%TO.N,Net-(C2-Pad1)*%
X162805001Y-97985001D03*
%TD*%
D24*
%TO.P,C4,2*%
%TO.N,Earth*%
X168325001Y-89675001D03*
%TO.P,C4,1*%
%TO.N,Net-(C4-Pad1)*%
X165825001Y-89675001D03*
%TD*%
%TO.P,C3,2*%
%TO.N,Earth*%
X168325001Y-92825001D03*
%TO.P,C3,1*%
%TO.N,Net-(C3-Pad1)*%
X165825001Y-92825001D03*
%TD*%
%TO.P,C2,2*%
%TO.N,Earth*%
X157470000Y-106340000D03*
%TO.P,C2,1*%
%TO.N,Net-(C2-Pad1)*%
X154970000Y-106340000D03*
%TD*%
%TO.P,C1,2*%
%TO.N,Earth*%
X152610000Y-106230000D03*
%TO.P,C1,1*%
%TO.N,Net-(C1-Pad1)*%
X150110000Y-106230000D03*
%TD*%
D25*
%TO.N,*%
X107000000Y-69000000D03*
X178000000Y-69000000D03*
X178000000Y-115000000D03*
X107000000Y-115000000D03*
%TD*%
D26*
%TO.N,Earth*%
X151484999Y-105104999D02*
X152610000Y-106230000D01*
X144323001Y-105104999D02*
X151484999Y-105104999D01*
X143240000Y-106188000D02*
X144323001Y-105104999D01*
%TO.N,Net-(C1-Pad1)*%
X162245001Y-74435001D02*
X162245001Y-71955001D01*
X162245001Y-71955001D02*
X162020000Y-71730000D01*
X162020000Y-71730000D02*
X152740000Y-71730000D01*
X152740000Y-71730000D02*
X151470000Y-73000000D01*
X151470000Y-73000000D02*
X151470000Y-81260000D01*
X152265001Y-82055001D02*
X154625001Y-82055001D01*
X151470000Y-81260000D02*
X152265001Y-82055001D01*
X158115001Y-82055001D02*
X162245001Y-86185001D01*
X154625001Y-82055001D02*
X158115001Y-82055001D01*
X142064999Y-106752001D02*
X142064999Y-105267997D01*
X142064999Y-105267997D02*
X141057002Y-104260000D01*
X142675999Y-107363001D02*
X142064999Y-106752001D01*
X148976999Y-107363001D02*
X142675999Y-107363001D01*
X150110000Y-106230000D02*
X148976999Y-107363001D01*
X141057002Y-104260000D02*
X128860000Y-104260000D01*
X128254000Y-104866000D02*
X128254000Y-105934000D01*
X128860000Y-104260000D02*
X128254000Y-104866000D01*
%TO.N,Net-(C2-Pad1)*%
X162245001Y-91265001D02*
X163325001Y-91265001D01*
X163325001Y-91265001D02*
X164210000Y-92150000D01*
X164210000Y-92150000D02*
X164210000Y-96090000D01*
X162805001Y-97494999D02*
X162805001Y-97985001D01*
X164210000Y-96090000D02*
X162805001Y-97494999D01*
X162805001Y-97985001D02*
X161404999Y-97985001D01*
X161404999Y-97985001D02*
X160830000Y-98560000D01*
X160830000Y-98560000D02*
X160830000Y-106540000D01*
X160830000Y-106540000D02*
X159500000Y-107870000D01*
X159500000Y-107870000D02*
X155630000Y-107870000D01*
X154970000Y-107210000D02*
X154970000Y-106340000D01*
X155630000Y-107870000D02*
X154970000Y-107210000D01*
X144640000Y-102790000D02*
X144640000Y-101480000D01*
X144640000Y-101480000D02*
X145670000Y-100450000D01*
X145670000Y-100450000D02*
X152310000Y-100450000D01*
X154970000Y-103110000D02*
X154970000Y-106340000D01*
X152310000Y-100450000D02*
X154970000Y-103110000D01*
X159975001Y-88725001D02*
X154625001Y-88725001D01*
X160430000Y-89180000D02*
X159975001Y-88725001D01*
X160430000Y-91150000D02*
X160430000Y-89180000D01*
X160545001Y-91265001D02*
X160430000Y-91150000D01*
X162245001Y-91265001D02*
X160545001Y-91265001D01*
X164184999Y-91265001D02*
X162245001Y-91265001D01*
X164550000Y-90900000D02*
X164184999Y-91265001D01*
X164550000Y-79950000D02*
X164550000Y-90900000D01*
X167710000Y-79600000D02*
X164900000Y-79600000D01*
X168043990Y-79266010D02*
X167710000Y-79600000D01*
X168043990Y-78667990D02*
X168043990Y-79266010D01*
X164900000Y-79600000D02*
X164550000Y-79950000D01*
X167624000Y-78248000D02*
X168043990Y-78667990D01*
%TO.N,Net-(C4-Pad1)*%
X159705001Y-76975001D02*
X162245001Y-79515001D01*
X154625001Y-76975001D02*
X159705001Y-76975001D01*
%TO.N,Net-(D1-Pad2)*%
X164099990Y-86321016D02*
X162245001Y-88176005D01*
X164099990Y-71809990D02*
X164099990Y-86321016D01*
X163350000Y-71060000D02*
X164099990Y-71809990D01*
X108700000Y-73030000D02*
X110670000Y-71060000D01*
X108700000Y-102830000D02*
X108700000Y-73030000D01*
X110670000Y-71060000D02*
X163350000Y-71060000D01*
X116550000Y-104550000D02*
X110420000Y-104550000D01*
X162245001Y-88176005D02*
X162245001Y-88725001D01*
X117115001Y-103984999D02*
X116550000Y-104550000D01*
X110420000Y-104550000D02*
X108700000Y-102830000D01*
X117115001Y-102885001D02*
X117115001Y-103984999D01*
%TO.N,Net-(D2-Pad2)*%
X162890000Y-101830000D02*
X162890000Y-100490000D01*
X162890000Y-100490000D02*
X163230000Y-100150000D01*
X163230000Y-100150000D02*
X166140000Y-100150000D01*
X167976000Y-98314000D02*
X169910000Y-98314000D01*
X166140000Y-100150000D02*
X167976000Y-98314000D01*
X162890000Y-101830000D02*
X162890000Y-105500000D01*
X160069990Y-108320010D02*
X141270010Y-108320010D01*
X162890000Y-105500000D02*
X160069990Y-108320010D01*
X140700000Y-107750000D02*
X140700000Y-106188000D01*
X141270010Y-108320010D02*
X140700000Y-107750000D01*
%TO.N,Net-(D3-Pad2)*%
X169910000Y-100854000D02*
X169910000Y-102190000D01*
X169910000Y-102190000D02*
X168780000Y-103320000D01*
X168780000Y-103320000D02*
X166500000Y-103320000D01*
X165430000Y-102250000D02*
X165430000Y-101830000D01*
X166500000Y-103320000D02*
X165430000Y-102250000D01*
X156448000Y-101870000D02*
X154810000Y-101870000D01*
X154810000Y-101870000D02*
X153790000Y-100850000D01*
X153790000Y-100850000D02*
X153790000Y-97040000D01*
X153790000Y-97040000D02*
X154780000Y-96050000D01*
X154780000Y-96050000D02*
X156740000Y-96050000D01*
X156740000Y-96050000D02*
X157680000Y-95110000D01*
X157680000Y-95110000D02*
X157680000Y-91290000D01*
X156529991Y-90139991D02*
X147989991Y-90139991D01*
X157680000Y-91290000D02*
X156529991Y-90139991D01*
X145720000Y-87870000D02*
X145720000Y-85790000D01*
X147989991Y-90139991D02*
X145720000Y-87870000D01*
X115520000Y-85790000D02*
X145720000Y-85790000D01*
%TO.N,Net-(Q1-Pad3)*%
X174698000Y-78248000D02*
X168894000Y-78248000D01*
X175510010Y-109209990D02*
X175510010Y-79060010D01*
X172830000Y-111890000D02*
X175510010Y-109209990D01*
X119710000Y-111890000D02*
X172830000Y-111890000D01*
X175510010Y-79060010D02*
X174698000Y-78248000D01*
X117115001Y-109295001D02*
X119710000Y-111890000D01*
X117115001Y-106035001D02*
X117115001Y-109295001D01*
%TO.N,Net-(Q2-Pad1)*%
X168750526Y-85890544D02*
X174000544Y-85890544D01*
X174000544Y-85890544D02*
X175060000Y-86950000D01*
X175060000Y-86950000D02*
X175060000Y-108380000D01*
X175060000Y-108380000D02*
X172330000Y-111110000D01*
X172330000Y-111110000D02*
X128290000Y-111110000D01*
X128290000Y-111110000D02*
X126440000Y-109260000D01*
X126440000Y-104180000D02*
X125145001Y-102885001D01*
X126440000Y-109260000D02*
X126440000Y-104180000D01*
%TO.N,Net-(Q3-Pad1)*%
X141205001Y-101295001D02*
X141205001Y-102885001D01*
X141030000Y-101120000D02*
X141205001Y-101295001D01*
X128820000Y-80340000D02*
X110780000Y-80340000D01*
X110780000Y-80340000D02*
X109580000Y-81540000D01*
X109580000Y-81540000D02*
X109580000Y-99640000D01*
X110430000Y-100490000D02*
X117650000Y-100490000D01*
X109580000Y-99640000D02*
X110430000Y-100490000D01*
X117650000Y-100490000D02*
X118510000Y-101350000D01*
X118510000Y-103480000D02*
X119370000Y-104340000D01*
X118510000Y-101350000D02*
X118510000Y-103480000D01*
X119370000Y-104340000D02*
X123300000Y-104340000D01*
X123300000Y-104340000D02*
X123990000Y-103650000D01*
X123990000Y-103650000D02*
X123990000Y-101810000D01*
X124680000Y-101120000D02*
X141030000Y-101120000D01*
X123990000Y-101810000D02*
X124680000Y-101120000D01*
%TO.N,Net-(R3-Pad1)*%
X120065001Y-100254999D02*
X120065001Y-102885001D01*
X120660000Y-99660000D02*
X120065001Y-100254999D01*
X150680000Y-99660000D02*
X120660000Y-99660000D01*
X152000000Y-98340000D02*
X150680000Y-99660000D01*
X152654999Y-91265001D02*
X152000000Y-91920000D01*
X152000000Y-91920000D02*
X152000000Y-98340000D01*
X154625001Y-91265001D02*
X152654999Y-91265001D01*
%TD*%
D27*
%TO.N,Earth*%
X177304321Y-66706654D02*
X176870279Y-66886440D01*
X176479651Y-67147450D01*
X176147450Y-67479651D01*
X175886440Y-67870279D01*
X175706654Y-68304321D01*
X175615000Y-68765098D01*
X175615000Y-69234902D01*
X175706654Y-69695679D01*
X175886440Y-70129721D01*
X176147450Y-70520349D01*
X176479651Y-70852550D01*
X176870279Y-71113560D01*
X177304321Y-71293346D01*
X177765098Y-71385000D01*
X178234902Y-71385000D01*
X178695679Y-71293346D01*
X179129721Y-71113560D01*
X179520349Y-70852550D01*
X179852550Y-70520349D01*
X180113560Y-70129721D01*
X180293346Y-69695679D01*
X180340001Y-69461128D01*
X180340000Y-114538867D01*
X180293346Y-114304321D01*
X180113560Y-113870279D01*
X179852550Y-113479651D01*
X179520349Y-113147450D01*
X179129721Y-112886440D01*
X178695679Y-112706654D01*
X178234902Y-112615000D01*
X177765098Y-112615000D01*
X177304321Y-112706654D01*
X176870279Y-112886440D01*
X176479651Y-113147450D01*
X176147450Y-113479651D01*
X175886440Y-113870279D01*
X175706654Y-114304321D01*
X175615000Y-114765098D01*
X175615000Y-115234902D01*
X175706654Y-115695679D01*
X175886440Y-116129721D01*
X176147450Y-116520349D01*
X176479651Y-116852550D01*
X176870279Y-117113560D01*
X177304321Y-117293346D01*
X177538867Y-117340000D01*
X107461133Y-117340000D01*
X107695679Y-117293346D01*
X108129721Y-117113560D01*
X108520349Y-116852550D01*
X108852550Y-116520349D01*
X109113560Y-116129721D01*
X109293346Y-115695679D01*
X109385000Y-115234902D01*
X109385000Y-114765098D01*
X109293346Y-114304321D01*
X109113560Y-113870279D01*
X108852550Y-113479651D01*
X108520349Y-113147450D01*
X108129721Y-112886440D01*
X107695679Y-112706654D01*
X107234902Y-112615000D01*
X106765098Y-112615000D01*
X106304321Y-112706654D01*
X105870279Y-112886440D01*
X105479651Y-113147450D01*
X105147450Y-113479651D01*
X104886440Y-113870279D01*
X104706654Y-114304321D01*
X104660000Y-114538867D01*
X104660000Y-73030000D01*
X107936324Y-73030000D01*
X107940001Y-73067333D01*
X107940000Y-102792678D01*
X107936324Y-102830000D01*
X107940000Y-102867322D01*
X107940000Y-102867332D01*
X107950997Y-102978985D01*
X107983520Y-103086201D01*
X107994454Y-103122246D01*
X108065026Y-103254276D01*
X108102992Y-103300537D01*
X108159999Y-103370001D01*
X108189003Y-103393804D01*
X109856201Y-105061003D01*
X109879999Y-105090001D01*
X109995724Y-105184974D01*
X110127753Y-105255546D01*
X110271014Y-105299003D01*
X110382667Y-105310000D01*
X110382676Y-105310000D01*
X110419999Y-105313676D01*
X110457322Y-105310000D01*
X110913841Y-105310000D01*
X110851940Y-105402642D01*
X110751305Y-105645596D01*
X110700001Y-105903515D01*
X110700001Y-106166487D01*
X110751305Y-106424406D01*
X110851940Y-106667360D01*
X110998039Y-106886014D01*
X111183988Y-107071963D01*
X111402642Y-107218062D01*
X111645596Y-107318697D01*
X111903515Y-107370001D01*
X112166487Y-107370001D01*
X112424406Y-107318697D01*
X112667360Y-107218062D01*
X112886014Y-107071963D01*
X113071963Y-106886014D01*
X113218062Y-106667360D01*
X113318697Y-106424406D01*
X113370001Y-106166487D01*
X113370001Y-105903515D01*
X113318697Y-105645596D01*
X113218062Y-105402642D01*
X113156161Y-105310000D01*
X115993841Y-105310000D01*
X115931940Y-105402642D01*
X115831305Y-105645596D01*
X115780001Y-105903515D01*
X115780001Y-106166487D01*
X115831305Y-106424406D01*
X115931940Y-106667360D01*
X116078039Y-106886014D01*
X116263988Y-107071963D01*
X116355001Y-107132776D01*
X116355002Y-109257669D01*
X116351325Y-109295001D01*
X116365999Y-109443986D01*
X116409455Y-109587247D01*
X116480027Y-109719277D01*
X116546276Y-109800001D01*
X116575001Y-109835002D01*
X116603999Y-109858800D01*
X119146201Y-112401003D01*
X119169999Y-112430001D01*
X119285724Y-112524974D01*
X119417753Y-112595546D01*
X119561014Y-112639003D01*
X119672667Y-112650000D01*
X119672675Y-112650000D01*
X119710000Y-112653676D01*
X119747325Y-112650000D01*
X172792678Y-112650000D01*
X172830000Y-112653676D01*
X172867322Y-112650000D01*
X172867333Y-112650000D01*
X172978986Y-112639003D01*
X173122247Y-112595546D01*
X173254276Y-112524974D01*
X173370001Y-112430001D01*
X173393804Y-112400997D01*
X176021019Y-109773784D01*
X176050011Y-109749991D01*
X176073805Y-109720998D01*
X176073809Y-109720994D01*
X176144983Y-109634267D01*
X176144984Y-109634266D01*
X176215556Y-109502237D01*
X176259013Y-109358976D01*
X176270010Y-109247323D01*
X176270010Y-109247314D01*
X176273686Y-109209991D01*
X176270010Y-109172668D01*
X176270010Y-79097343D01*
X176273687Y-79060010D01*
X176259013Y-78911024D01*
X176215556Y-78767763D01*
X176144984Y-78635734D01*
X176073809Y-78549007D01*
X176050011Y-78520009D01*
X176021012Y-78496211D01*
X175261803Y-77737002D01*
X175238001Y-77707999D01*
X175122276Y-77613026D01*
X174990247Y-77542454D01*
X174846986Y-77498997D01*
X174735333Y-77488000D01*
X174735322Y-77488000D01*
X174698000Y-77484324D01*
X174660678Y-77488000D01*
X169923346Y-77488000D01*
X169863171Y-77375421D01*
X169718212Y-77198788D01*
X169541578Y-77053829D01*
X169340059Y-76946115D01*
X169121399Y-76879785D01*
X168894000Y-76857388D01*
X168666600Y-76879785D01*
X168447940Y-76946115D01*
X168259000Y-77047106D01*
X168070059Y-76946115D01*
X167851399Y-76879785D01*
X167624000Y-76857388D01*
X167396600Y-76879785D01*
X167187902Y-76943093D01*
X167123180Y-76908498D01*
X167003482Y-76872188D01*
X166879000Y-76859928D01*
X166639750Y-76863000D01*
X166481000Y-77021750D01*
X166481000Y-77794892D01*
X166480785Y-77795601D01*
X166464000Y-77966022D01*
X166464000Y-78395000D01*
X166227000Y-78395000D01*
X166227000Y-78375000D01*
X165352750Y-78375000D01*
X165194000Y-78533750D01*
X165191974Y-78840000D01*
X164937325Y-78840000D01*
X164900000Y-78836324D01*
X164862675Y-78840000D01*
X164862667Y-78840000D01*
X164859990Y-78840264D01*
X164859990Y-77498000D01*
X165190928Y-77498000D01*
X165194000Y-77962250D01*
X165352750Y-78121000D01*
X166227000Y-78121000D01*
X166227000Y-77021750D01*
X166068250Y-76863000D01*
X165829000Y-76859928D01*
X165704518Y-76872188D01*
X165584820Y-76908498D01*
X165474506Y-76967463D01*
X165377815Y-77046815D01*
X165298463Y-77143506D01*
X165239498Y-77253820D01*
X165203188Y-77373518D01*
X165190928Y-77498000D01*
X164859990Y-77498000D01*
X164859990Y-71847312D01*
X164863666Y-71809989D01*
X164859990Y-71772666D01*
X164859990Y-71772657D01*
X164848993Y-71661004D01*
X164805536Y-71517743D01*
X164766118Y-71443998D01*
X164734964Y-71385713D01*
X164663789Y-71298987D01*
X164639991Y-71269989D01*
X164610994Y-71246192D01*
X163913803Y-70549002D01*
X163890001Y-70519999D01*
X163774276Y-70425026D01*
X163642247Y-70354454D01*
X163498986Y-70310997D01*
X163387333Y-70300000D01*
X163387322Y-70300000D01*
X163350000Y-70296324D01*
X163312678Y-70300000D01*
X110707325Y-70300000D01*
X110670000Y-70296324D01*
X110632675Y-70300000D01*
X110632667Y-70300000D01*
X110521014Y-70310997D01*
X110377753Y-70354454D01*
X110245724Y-70425026D01*
X110129999Y-70519999D01*
X110106201Y-70548997D01*
X108188998Y-72466201D01*
X108160000Y-72489999D01*
X108136202Y-72518997D01*
X108136201Y-72518998D01*
X108065026Y-72605724D01*
X107994454Y-72737754D01*
X107950998Y-72881015D01*
X107936324Y-73030000D01*
X104660000Y-73030000D01*
X104660000Y-69461133D01*
X104706654Y-69695679D01*
X104886440Y-70129721D01*
X105147450Y-70520349D01*
X105479651Y-70852550D01*
X105870279Y-71113560D01*
X106304321Y-71293346D01*
X106765098Y-71385000D01*
X107234902Y-71385000D01*
X107695679Y-71293346D01*
X108129721Y-71113560D01*
X108520349Y-70852550D01*
X108852550Y-70520349D01*
X109113560Y-70129721D01*
X109293346Y-69695679D01*
X109385000Y-69234902D01*
X109385000Y-68765098D01*
X109293346Y-68304321D01*
X109113560Y-67870279D01*
X108852550Y-67479651D01*
X108520349Y-67147450D01*
X108129721Y-66886440D01*
X107695679Y-66706654D01*
X107461133Y-66660000D01*
X177538867Y-66660000D01*
X177304321Y-66706654D01*
%TA.AperFunction,Conductor*%
D28*
G36*
X177304321Y-66706654D02*
G01*
X176870279Y-66886440D01*
X176479651Y-67147450D01*
X176147450Y-67479651D01*
X175886440Y-67870279D01*
X175706654Y-68304321D01*
X175615000Y-68765098D01*
X175615000Y-69234902D01*
X175706654Y-69695679D01*
X175886440Y-70129721D01*
X176147450Y-70520349D01*
X176479651Y-70852550D01*
X176870279Y-71113560D01*
X177304321Y-71293346D01*
X177765098Y-71385000D01*
X178234902Y-71385000D01*
X178695679Y-71293346D01*
X179129721Y-71113560D01*
X179520349Y-70852550D01*
X179852550Y-70520349D01*
X180113560Y-70129721D01*
X180293346Y-69695679D01*
X180340001Y-69461128D01*
X180340000Y-114538867D01*
X180293346Y-114304321D01*
X180113560Y-113870279D01*
X179852550Y-113479651D01*
X179520349Y-113147450D01*
X179129721Y-112886440D01*
X178695679Y-112706654D01*
X178234902Y-112615000D01*
X177765098Y-112615000D01*
X177304321Y-112706654D01*
X176870279Y-112886440D01*
X176479651Y-113147450D01*
X176147450Y-113479651D01*
X175886440Y-113870279D01*
X175706654Y-114304321D01*
X175615000Y-114765098D01*
X175615000Y-115234902D01*
X175706654Y-115695679D01*
X175886440Y-116129721D01*
X176147450Y-116520349D01*
X176479651Y-116852550D01*
X176870279Y-117113560D01*
X177304321Y-117293346D01*
X177538867Y-117340000D01*
X107461133Y-117340000D01*
X107695679Y-117293346D01*
X108129721Y-117113560D01*
X108520349Y-116852550D01*
X108852550Y-116520349D01*
X109113560Y-116129721D01*
X109293346Y-115695679D01*
X109385000Y-115234902D01*
X109385000Y-114765098D01*
X109293346Y-114304321D01*
X109113560Y-113870279D01*
X108852550Y-113479651D01*
X108520349Y-113147450D01*
X108129721Y-112886440D01*
X107695679Y-112706654D01*
X107234902Y-112615000D01*
X106765098Y-112615000D01*
X106304321Y-112706654D01*
X105870279Y-112886440D01*
X105479651Y-113147450D01*
X105147450Y-113479651D01*
X104886440Y-113870279D01*
X104706654Y-114304321D01*
X104660000Y-114538867D01*
X104660000Y-73030000D01*
X107936324Y-73030000D01*
X107940001Y-73067333D01*
X107940000Y-102792678D01*
X107936324Y-102830000D01*
X107940000Y-102867322D01*
X107940000Y-102867332D01*
X107950997Y-102978985D01*
X107983520Y-103086201D01*
X107994454Y-103122246D01*
X108065026Y-103254276D01*
X108102992Y-103300537D01*
X108159999Y-103370001D01*
X108189003Y-103393804D01*
X109856201Y-105061003D01*
X109879999Y-105090001D01*
X109995724Y-105184974D01*
X110127753Y-105255546D01*
X110271014Y-105299003D01*
X110382667Y-105310000D01*
X110382676Y-105310000D01*
X110419999Y-105313676D01*
X110457322Y-105310000D01*
X110913841Y-105310000D01*
X110851940Y-105402642D01*
X110751305Y-105645596D01*
X110700001Y-105903515D01*
X110700001Y-106166487D01*
X110751305Y-106424406D01*
X110851940Y-106667360D01*
X110998039Y-106886014D01*
X111183988Y-107071963D01*
X111402642Y-107218062D01*
X111645596Y-107318697D01*
X111903515Y-107370001D01*
X112166487Y-107370001D01*
X112424406Y-107318697D01*
X112667360Y-107218062D01*
X112886014Y-107071963D01*
X113071963Y-106886014D01*
X113218062Y-106667360D01*
X113318697Y-106424406D01*
X113370001Y-106166487D01*
X113370001Y-105903515D01*
X113318697Y-105645596D01*
X113218062Y-105402642D01*
X113156161Y-105310000D01*
X115993841Y-105310000D01*
X115931940Y-105402642D01*
X115831305Y-105645596D01*
X115780001Y-105903515D01*
X115780001Y-106166487D01*
X115831305Y-106424406D01*
X115931940Y-106667360D01*
X116078039Y-106886014D01*
X116263988Y-107071963D01*
X116355001Y-107132776D01*
X116355002Y-109257669D01*
X116351325Y-109295001D01*
X116365999Y-109443986D01*
X116409455Y-109587247D01*
X116480027Y-109719277D01*
X116546276Y-109800001D01*
X116575001Y-109835002D01*
X116603999Y-109858800D01*
X119146201Y-112401003D01*
X119169999Y-112430001D01*
X119285724Y-112524974D01*
X119417753Y-112595546D01*
X119561014Y-112639003D01*
X119672667Y-112650000D01*
X119672675Y-112650000D01*
X119710000Y-112653676D01*
X119747325Y-112650000D01*
X172792678Y-112650000D01*
X172830000Y-112653676D01*
X172867322Y-112650000D01*
X172867333Y-112650000D01*
X172978986Y-112639003D01*
X173122247Y-112595546D01*
X173254276Y-112524974D01*
X173370001Y-112430001D01*
X173393804Y-112400997D01*
X176021019Y-109773784D01*
X176050011Y-109749991D01*
X176073805Y-109720998D01*
X176073809Y-109720994D01*
X176144983Y-109634267D01*
X176144984Y-109634266D01*
X176215556Y-109502237D01*
X176259013Y-109358976D01*
X176270010Y-109247323D01*
X176270010Y-109247314D01*
X176273686Y-109209991D01*
X176270010Y-109172668D01*
X176270010Y-79097343D01*
X176273687Y-79060010D01*
X176259013Y-78911024D01*
X176215556Y-78767763D01*
X176144984Y-78635734D01*
X176073809Y-78549007D01*
X176050011Y-78520009D01*
X176021012Y-78496211D01*
X175261803Y-77737002D01*
X175238001Y-77707999D01*
X175122276Y-77613026D01*
X174990247Y-77542454D01*
X174846986Y-77498997D01*
X174735333Y-77488000D01*
X174735322Y-77488000D01*
X174698000Y-77484324D01*
X174660678Y-77488000D01*
X169923346Y-77488000D01*
X169863171Y-77375421D01*
X169718212Y-77198788D01*
X169541578Y-77053829D01*
X169340059Y-76946115D01*
X169121399Y-76879785D01*
X168894000Y-76857388D01*
X168666600Y-76879785D01*
X168447940Y-76946115D01*
X168259000Y-77047106D01*
X168070059Y-76946115D01*
X167851399Y-76879785D01*
X167624000Y-76857388D01*
X167396600Y-76879785D01*
X167187902Y-76943093D01*
X167123180Y-76908498D01*
X167003482Y-76872188D01*
X166879000Y-76859928D01*
X166639750Y-76863000D01*
X166481000Y-77021750D01*
X166481000Y-77794892D01*
X166480785Y-77795601D01*
X166464000Y-77966022D01*
X166464000Y-78395000D01*
X166227000Y-78395000D01*
X166227000Y-78375000D01*
X165352750Y-78375000D01*
X165194000Y-78533750D01*
X165191974Y-78840000D01*
X164937325Y-78840000D01*
X164900000Y-78836324D01*
X164862675Y-78840000D01*
X164862667Y-78840000D01*
X164859990Y-78840264D01*
X164859990Y-77498000D01*
X165190928Y-77498000D01*
X165194000Y-77962250D01*
X165352750Y-78121000D01*
X166227000Y-78121000D01*
X166227000Y-77021750D01*
X166068250Y-76863000D01*
X165829000Y-76859928D01*
X165704518Y-76872188D01*
X165584820Y-76908498D01*
X165474506Y-76967463D01*
X165377815Y-77046815D01*
X165298463Y-77143506D01*
X165239498Y-77253820D01*
X165203188Y-77373518D01*
X165190928Y-77498000D01*
X164859990Y-77498000D01*
X164859990Y-71847312D01*
X164863666Y-71809989D01*
X164859990Y-71772666D01*
X164859990Y-71772657D01*
X164848993Y-71661004D01*
X164805536Y-71517743D01*
X164766118Y-71443998D01*
X164734964Y-71385713D01*
X164663789Y-71298987D01*
X164639991Y-71269989D01*
X164610994Y-71246192D01*
X163913803Y-70549002D01*
X163890001Y-70519999D01*
X163774276Y-70425026D01*
X163642247Y-70354454D01*
X163498986Y-70310997D01*
X163387333Y-70300000D01*
X163387322Y-70300000D01*
X163350000Y-70296324D01*
X163312678Y-70300000D01*
X110707325Y-70300000D01*
X110670000Y-70296324D01*
X110632675Y-70300000D01*
X110632667Y-70300000D01*
X110521014Y-70310997D01*
X110377753Y-70354454D01*
X110245724Y-70425026D01*
X110129999Y-70519999D01*
X110106201Y-70548997D01*
X108188998Y-72466201D01*
X108160000Y-72489999D01*
X108136202Y-72518997D01*
X108136201Y-72518998D01*
X108065026Y-72605724D01*
X107994454Y-72737754D01*
X107950998Y-72881015D01*
X107936324Y-73030000D01*
X104660000Y-73030000D01*
X104660000Y-69461133D01*
X104706654Y-69695679D01*
X104886440Y-70129721D01*
X105147450Y-70520349D01*
X105479651Y-70852550D01*
X105870279Y-71113560D01*
X106304321Y-71293346D01*
X106765098Y-71385000D01*
X107234902Y-71385000D01*
X107695679Y-71293346D01*
X108129721Y-71113560D01*
X108520349Y-70852550D01*
X108852550Y-70520349D01*
X109113560Y-70129721D01*
X109293346Y-69695679D01*
X109385000Y-69234902D01*
X109385000Y-68765098D01*
X109293346Y-68304321D01*
X109113560Y-67870279D01*
X108852550Y-67479651D01*
X108520349Y-67147450D01*
X108129721Y-66886440D01*
X107695679Y-66706654D01*
X107461133Y-66660000D01*
X177538867Y-66660000D01*
X177304321Y-66706654D01*
G37*
%TD.AperFunction*%
D27*
X166404274Y-85876402D02*
X166390131Y-85890544D01*
X167103489Y-86603902D01*
X167333223Y-86549250D01*
X167440158Y-86317566D01*
X167480954Y-86147975D01*
X167504907Y-86268398D01*
X167602557Y-86504146D01*
X167744323Y-86716313D01*
X167924757Y-86896747D01*
X168136924Y-87038513D01*
X168372672Y-87136163D01*
X168622940Y-87185944D01*
X168878112Y-87185944D01*
X169128380Y-87136163D01*
X169364128Y-87038513D01*
X169576295Y-86896747D01*
X169756729Y-86716313D01*
X169800675Y-86650544D01*
X173685743Y-86650544D01*
X174300000Y-87264802D01*
X174300001Y-108065197D01*
X172015199Y-110350000D01*
X128604802Y-110350000D01*
X127200000Y-108945199D01*
X127200000Y-106759514D01*
X127217038Y-106785013D01*
X127402987Y-106970962D01*
X127621641Y-107117061D01*
X127864595Y-107217696D01*
X128122514Y-107269000D01*
X128385486Y-107269000D01*
X128643405Y-107217696D01*
X128886359Y-107117061D01*
X129105013Y-106970962D01*
X129290962Y-106785013D01*
X129437061Y-106566359D01*
X129537696Y-106323405D01*
X129589000Y-106065486D01*
X129589000Y-105802514D01*
X129537696Y-105544595D01*
X129437061Y-105301641D01*
X129290962Y-105082987D01*
X129227975Y-105020000D01*
X132360025Y-105020000D01*
X132297038Y-105082987D01*
X132150939Y-105301641D01*
X132050304Y-105544595D01*
X131999000Y-105802514D01*
X131999000Y-106065486D01*
X132050304Y-106323405D01*
X132150939Y-106566359D01*
X132297038Y-106785013D01*
X132482987Y-106970962D01*
X132701641Y-107117061D01*
X132944595Y-107217696D01*
X133202514Y-107269000D01*
X133465486Y-107269000D01*
X133723405Y-107217696D01*
X133966359Y-107117061D01*
X134185013Y-106970962D01*
X134370962Y-106785013D01*
X134517061Y-106566359D01*
X134617696Y-106323405D01*
X134669000Y-106065486D01*
X134669000Y-105802514D01*
X134617696Y-105544595D01*
X134517061Y-105301641D01*
X134370962Y-105082987D01*
X134307975Y-105020000D01*
X139299956Y-105020000D01*
X139260498Y-105093820D01*
X139224188Y-105213518D01*
X139211928Y-105338000D01*
X139211928Y-107038000D01*
X139224188Y-107162482D01*
X139260498Y-107282180D01*
X139319463Y-107392494D01*
X139398815Y-107489185D01*
X139495506Y-107568537D01*
X139605820Y-107627502D01*
X139725518Y-107663812D01*
X139850000Y-107676072D01*
X139940000Y-107676072D01*
X139940000Y-107712677D01*
X139936324Y-107750000D01*
X139940000Y-107787322D01*
X139940000Y-107787332D01*
X139950997Y-107898985D01*
X139981025Y-107997975D01*
X139994454Y-108042246D01*
X140065026Y-108174276D01*
X140104871Y-108222826D01*
X140159999Y-108290001D01*
X140189002Y-108313803D01*
X140706210Y-108831012D01*
X140730009Y-108860011D01*
X140845734Y-108954984D01*
X140977763Y-109025556D01*
X141121024Y-109069013D01*
X141232677Y-109080010D01*
X141232687Y-109080010D01*
X141270010Y-109083686D01*
X141307333Y-109080010D01*
X160032668Y-109080010D01*
X160069990Y-109083686D01*
X160107312Y-109080010D01*
X160107323Y-109080010D01*
X160218976Y-109069013D01*
X160362237Y-109025556D01*
X160494266Y-108954984D01*
X160609991Y-108860011D01*
X160633794Y-108831007D01*
X163401008Y-106063795D01*
X163430001Y-106040001D01*
X163453795Y-106011008D01*
X163453799Y-106011004D01*
X163524973Y-105924277D01*
X163536071Y-105903515D01*
X163595546Y-105792247D01*
X163639003Y-105648986D01*
X163650000Y-105537333D01*
X163650000Y-105537324D01*
X163653676Y-105500001D01*
X163650000Y-105462678D01*
X163650000Y-103368072D01*
X163790000Y-103368072D01*
X163914482Y-103355812D01*
X164034180Y-103319502D01*
X164144494Y-103260537D01*
X164241185Y-103181185D01*
X164320537Y-103084494D01*
X164379502Y-102974180D01*
X164385056Y-102955873D01*
X164451495Y-103022312D01*
X164702905Y-103190299D01*
X164982257Y-103306011D01*
X165278816Y-103365000D01*
X165470198Y-103365000D01*
X165936201Y-103831003D01*
X165959999Y-103860001D01*
X165988997Y-103883799D01*
X166075724Y-103954974D01*
X166207753Y-104025546D01*
X166351014Y-104069003D01*
X166500000Y-104083677D01*
X166537333Y-104080000D01*
X168742678Y-104080000D01*
X168780000Y-104083676D01*
X168817322Y-104080000D01*
X168817333Y-104080000D01*
X168928986Y-104069003D01*
X169072247Y-104025546D01*
X169204276Y-103954974D01*
X169320001Y-103860001D01*
X169343804Y-103830998D01*
X170421003Y-102753799D01*
X170450001Y-102730001D01*
X170544974Y-102614276D01*
X170615546Y-102482247D01*
X170659003Y-102338986D01*
X170670000Y-102227333D01*
X170670000Y-102227324D01*
X170673676Y-102190001D01*
X170670000Y-102152678D01*
X170670000Y-102132178D01*
X170856632Y-102007475D01*
X171063475Y-101800632D01*
X171225990Y-101557411D01*
X171337932Y-101287158D01*
X171395000Y-101000260D01*
X171395000Y-100707740D01*
X171337932Y-100420842D01*
X171225990Y-100150589D01*
X171063475Y-99907368D01*
X170931620Y-99775513D01*
X171004180Y-99753502D01*
X171114494Y-99694537D01*
X171211185Y-99615185D01*
X171290537Y-99518494D01*
X171349502Y-99408180D01*
X171385812Y-99288482D01*
X171398072Y-99164000D01*
X171398072Y-97464000D01*
X171385812Y-97339518D01*
X171349502Y-97219820D01*
X171290537Y-97109506D01*
X171211185Y-97012815D01*
X171114494Y-96933463D01*
X171004180Y-96874498D01*
X170884482Y-96838188D01*
X170760000Y-96825928D01*
X169060000Y-96825928D01*
X168935518Y-96838188D01*
X168815820Y-96874498D01*
X168705506Y-96933463D01*
X168608815Y-97012815D01*
X168529463Y-97109506D01*
X168470498Y-97219820D01*
X168434188Y-97339518D01*
X168421928Y-97464000D01*
X168421928Y-97554000D01*
X168013322Y-97554000D01*
X167975999Y-97550324D01*
X167938676Y-97554000D01*
X167938667Y-97554000D01*
X167827014Y-97564997D01*
X167699099Y-97603799D01*
X167683753Y-97608454D01*
X167551723Y-97679026D01*
X167470669Y-97745546D01*
X167435999Y-97773999D01*
X167412201Y-97802997D01*
X166830586Y-98384612D01*
X166880001Y-98136185D01*
X166880001Y-97833817D01*
X166821012Y-97537258D01*
X166705300Y-97257906D01*
X166537313Y-97006496D01*
X166323506Y-96792689D01*
X166072096Y-96624702D01*
X165792744Y-96508990D01*
X165496185Y-96450001D01*
X165193817Y-96450001D01*
X164897258Y-96508990D01*
X164824620Y-96539078D01*
X164844974Y-96514276D01*
X164915546Y-96382247D01*
X164959003Y-96238986D01*
X164970000Y-96127333D01*
X164970000Y-96127325D01*
X164973676Y-96090000D01*
X164970000Y-96052675D01*
X164970000Y-93979567D01*
X165145274Y-94096681D01*
X165406427Y-94204854D01*
X165683666Y-94260001D01*
X165966336Y-94260001D01*
X166243575Y-94204854D01*
X166504728Y-94096681D01*
X166739760Y-93939638D01*
X166861695Y-93817703D01*
X167511904Y-93817703D01*
X167583487Y-94061672D01*
X167838997Y-94182572D01*
X168113185Y-94251301D01*
X168395513Y-94265218D01*
X168675131Y-94223788D01*
X168941293Y-94128604D01*
X169066515Y-94061672D01*
X169138098Y-93817703D01*
X168325001Y-93004606D01*
X167511904Y-93817703D01*
X166861695Y-93817703D01*
X166939638Y-93739760D01*
X167073693Y-93539132D01*
X167088330Y-93566515D01*
X167332299Y-93638098D01*
X168145396Y-92825001D01*
X168504606Y-92825001D01*
X169317703Y-93638098D01*
X169561672Y-93566515D01*
X169682572Y-93311005D01*
X169751301Y-93036817D01*
X169765218Y-92754489D01*
X169723788Y-92474871D01*
X169628604Y-92208709D01*
X169561672Y-92083487D01*
X169317703Y-92011904D01*
X168504606Y-92825001D01*
X168145396Y-92825001D01*
X167332299Y-92011904D01*
X167088330Y-92083487D01*
X167074677Y-92112342D01*
X166939638Y-91910242D01*
X166861695Y-91832299D01*
X167511904Y-91832299D01*
X168325001Y-92645396D01*
X169138098Y-91832299D01*
X169066515Y-91588330D01*
X168811005Y-91467430D01*
X168536817Y-91398701D01*
X168254489Y-91384784D01*
X167974871Y-91426214D01*
X167708709Y-91521398D01*
X167583487Y-91588330D01*
X167511904Y-91832299D01*
X166861695Y-91832299D01*
X166739760Y-91710364D01*
X166504728Y-91553321D01*
X166243575Y-91445148D01*
X165966336Y-91390001D01*
X165683666Y-91390001D01*
X165406427Y-91445148D01*
X165145274Y-91553321D01*
X164910242Y-91710364D01*
X164862358Y-91758248D01*
X164844974Y-91725724D01*
X164824286Y-91700515D01*
X165060997Y-91463804D01*
X165090001Y-91440001D01*
X165184974Y-91324276D01*
X165255546Y-91192247D01*
X165299003Y-91048986D01*
X165302658Y-91011872D01*
X165406427Y-91054854D01*
X165683666Y-91110001D01*
X165966336Y-91110001D01*
X166243575Y-91054854D01*
X166504728Y-90946681D01*
X166739760Y-90789638D01*
X166861695Y-90667703D01*
X167511904Y-90667703D01*
X167583487Y-90911672D01*
X167838997Y-91032572D01*
X168113185Y-91101301D01*
X168395513Y-91115218D01*
X168675131Y-91073788D01*
X168941293Y-90978604D01*
X169066515Y-90911672D01*
X169138098Y-90667703D01*
X168325001Y-89854606D01*
X167511904Y-90667703D01*
X166861695Y-90667703D01*
X166939638Y-90589760D01*
X167073693Y-90389132D01*
X167088330Y-90416515D01*
X167332299Y-90488098D01*
X168145396Y-89675001D01*
X168504606Y-89675001D01*
X169317703Y-90488098D01*
X169561672Y-90416515D01*
X169682572Y-90161005D01*
X169751301Y-89886817D01*
X169765218Y-89604489D01*
X169723788Y-89324871D01*
X169628604Y-89058709D01*
X169561672Y-88933487D01*
X169317703Y-88861904D01*
X168504606Y-89675001D01*
X168145396Y-89675001D01*
X167332299Y-88861904D01*
X167088330Y-88933487D01*
X167074677Y-88962342D01*
X166939638Y-88760242D01*
X166861695Y-88682299D01*
X167511904Y-88682299D01*
X168325001Y-89495396D01*
X169138098Y-88682299D01*
X169066515Y-88438330D01*
X168811005Y-88317430D01*
X168536817Y-88248701D01*
X168254489Y-88234784D01*
X167974871Y-88276214D01*
X167708709Y-88371398D01*
X167583487Y-88438330D01*
X167511904Y-88682299D01*
X166861695Y-88682299D01*
X166739760Y-88560364D01*
X166504728Y-88403321D01*
X166243575Y-88295148D01*
X165966336Y-88240001D01*
X165683666Y-88240001D01*
X165406427Y-88295148D01*
X165310000Y-88335089D01*
X165310000Y-86829984D01*
X165380347Y-86900331D01*
X165497169Y-86783509D01*
X165551820Y-87013241D01*
X165783504Y-87120176D01*
X166031599Y-87179856D01*
X166286570Y-87189990D01*
X166538618Y-87150185D01*
X166778058Y-87061975D01*
X166869232Y-87013241D01*
X166923884Y-86783507D01*
X166210526Y-86070149D01*
X166196384Y-86084292D01*
X166016779Y-85904687D01*
X166030921Y-85890544D01*
X166016779Y-85876402D01*
X166196384Y-85696797D01*
X166210526Y-85710939D01*
X166224669Y-85696797D01*
X166404274Y-85876402D01*
%TA.AperFunction,Conductor*%
D28*
G36*
X166404274Y-85876402D02*
G01*
X166390131Y-85890544D01*
X167103489Y-86603902D01*
X167333223Y-86549250D01*
X167440158Y-86317566D01*
X167480954Y-86147975D01*
X167504907Y-86268398D01*
X167602557Y-86504146D01*
X167744323Y-86716313D01*
X167924757Y-86896747D01*
X168136924Y-87038513D01*
X168372672Y-87136163D01*
X168622940Y-87185944D01*
X168878112Y-87185944D01*
X169128380Y-87136163D01*
X169364128Y-87038513D01*
X169576295Y-86896747D01*
X169756729Y-86716313D01*
X169800675Y-86650544D01*
X173685743Y-86650544D01*
X174300000Y-87264802D01*
X174300001Y-108065197D01*
X172015199Y-110350000D01*
X128604802Y-110350000D01*
X127200000Y-108945199D01*
X127200000Y-106759514D01*
X127217038Y-106785013D01*
X127402987Y-106970962D01*
X127621641Y-107117061D01*
X127864595Y-107217696D01*
X128122514Y-107269000D01*
X128385486Y-107269000D01*
X128643405Y-107217696D01*
X128886359Y-107117061D01*
X129105013Y-106970962D01*
X129290962Y-106785013D01*
X129437061Y-106566359D01*
X129537696Y-106323405D01*
X129589000Y-106065486D01*
X129589000Y-105802514D01*
X129537696Y-105544595D01*
X129437061Y-105301641D01*
X129290962Y-105082987D01*
X129227975Y-105020000D01*
X132360025Y-105020000D01*
X132297038Y-105082987D01*
X132150939Y-105301641D01*
X132050304Y-105544595D01*
X131999000Y-105802514D01*
X131999000Y-106065486D01*
X132050304Y-106323405D01*
X132150939Y-106566359D01*
X132297038Y-106785013D01*
X132482987Y-106970962D01*
X132701641Y-107117061D01*
X132944595Y-107217696D01*
X133202514Y-107269000D01*
X133465486Y-107269000D01*
X133723405Y-107217696D01*
X133966359Y-107117061D01*
X134185013Y-106970962D01*
X134370962Y-106785013D01*
X134517061Y-106566359D01*
X134617696Y-106323405D01*
X134669000Y-106065486D01*
X134669000Y-105802514D01*
X134617696Y-105544595D01*
X134517061Y-105301641D01*
X134370962Y-105082987D01*
X134307975Y-105020000D01*
X139299956Y-105020000D01*
X139260498Y-105093820D01*
X139224188Y-105213518D01*
X139211928Y-105338000D01*
X139211928Y-107038000D01*
X139224188Y-107162482D01*
X139260498Y-107282180D01*
X139319463Y-107392494D01*
X139398815Y-107489185D01*
X139495506Y-107568537D01*
X139605820Y-107627502D01*
X139725518Y-107663812D01*
X139850000Y-107676072D01*
X139940000Y-107676072D01*
X139940000Y-107712677D01*
X139936324Y-107750000D01*
X139940000Y-107787322D01*
X139940000Y-107787332D01*
X139950997Y-107898985D01*
X139981025Y-107997975D01*
X139994454Y-108042246D01*
X140065026Y-108174276D01*
X140104871Y-108222826D01*
X140159999Y-108290001D01*
X140189002Y-108313803D01*
X140706210Y-108831012D01*
X140730009Y-108860011D01*
X140845734Y-108954984D01*
X140977763Y-109025556D01*
X141121024Y-109069013D01*
X141232677Y-109080010D01*
X141232687Y-109080010D01*
X141270010Y-109083686D01*
X141307333Y-109080010D01*
X160032668Y-109080010D01*
X160069990Y-109083686D01*
X160107312Y-109080010D01*
X160107323Y-109080010D01*
X160218976Y-109069013D01*
X160362237Y-109025556D01*
X160494266Y-108954984D01*
X160609991Y-108860011D01*
X160633794Y-108831007D01*
X163401008Y-106063795D01*
X163430001Y-106040001D01*
X163453795Y-106011008D01*
X163453799Y-106011004D01*
X163524973Y-105924277D01*
X163536071Y-105903515D01*
X163595546Y-105792247D01*
X163639003Y-105648986D01*
X163650000Y-105537333D01*
X163650000Y-105537324D01*
X163653676Y-105500001D01*
X163650000Y-105462678D01*
X163650000Y-103368072D01*
X163790000Y-103368072D01*
X163914482Y-103355812D01*
X164034180Y-103319502D01*
X164144494Y-103260537D01*
X164241185Y-103181185D01*
X164320537Y-103084494D01*
X164379502Y-102974180D01*
X164385056Y-102955873D01*
X164451495Y-103022312D01*
X164702905Y-103190299D01*
X164982257Y-103306011D01*
X165278816Y-103365000D01*
X165470198Y-103365000D01*
X165936201Y-103831003D01*
X165959999Y-103860001D01*
X165988997Y-103883799D01*
X166075724Y-103954974D01*
X166207753Y-104025546D01*
X166351014Y-104069003D01*
X166500000Y-104083677D01*
X166537333Y-104080000D01*
X168742678Y-104080000D01*
X168780000Y-104083676D01*
X168817322Y-104080000D01*
X168817333Y-104080000D01*
X168928986Y-104069003D01*
X169072247Y-104025546D01*
X169204276Y-103954974D01*
X169320001Y-103860001D01*
X169343804Y-103830998D01*
X170421003Y-102753799D01*
X170450001Y-102730001D01*
X170544974Y-102614276D01*
X170615546Y-102482247D01*
X170659003Y-102338986D01*
X170670000Y-102227333D01*
X170670000Y-102227324D01*
X170673676Y-102190001D01*
X170670000Y-102152678D01*
X170670000Y-102132178D01*
X170856632Y-102007475D01*
X171063475Y-101800632D01*
X171225990Y-101557411D01*
X171337932Y-101287158D01*
X171395000Y-101000260D01*
X171395000Y-100707740D01*
X171337932Y-100420842D01*
X171225990Y-100150589D01*
X171063475Y-99907368D01*
X170931620Y-99775513D01*
X171004180Y-99753502D01*
X171114494Y-99694537D01*
X171211185Y-99615185D01*
X171290537Y-99518494D01*
X171349502Y-99408180D01*
X171385812Y-99288482D01*
X171398072Y-99164000D01*
X171398072Y-97464000D01*
X171385812Y-97339518D01*
X171349502Y-97219820D01*
X171290537Y-97109506D01*
X171211185Y-97012815D01*
X171114494Y-96933463D01*
X171004180Y-96874498D01*
X170884482Y-96838188D01*
X170760000Y-96825928D01*
X169060000Y-96825928D01*
X168935518Y-96838188D01*
X168815820Y-96874498D01*
X168705506Y-96933463D01*
X168608815Y-97012815D01*
X168529463Y-97109506D01*
X168470498Y-97219820D01*
X168434188Y-97339518D01*
X168421928Y-97464000D01*
X168421928Y-97554000D01*
X168013322Y-97554000D01*
X167975999Y-97550324D01*
X167938676Y-97554000D01*
X167938667Y-97554000D01*
X167827014Y-97564997D01*
X167699099Y-97603799D01*
X167683753Y-97608454D01*
X167551723Y-97679026D01*
X167470669Y-97745546D01*
X167435999Y-97773999D01*
X167412201Y-97802997D01*
X166830586Y-98384612D01*
X166880001Y-98136185D01*
X166880001Y-97833817D01*
X166821012Y-97537258D01*
X166705300Y-97257906D01*
X166537313Y-97006496D01*
X166323506Y-96792689D01*
X166072096Y-96624702D01*
X165792744Y-96508990D01*
X165496185Y-96450001D01*
X165193817Y-96450001D01*
X164897258Y-96508990D01*
X164824620Y-96539078D01*
X164844974Y-96514276D01*
X164915546Y-96382247D01*
X164959003Y-96238986D01*
X164970000Y-96127333D01*
X164970000Y-96127325D01*
X164973676Y-96090000D01*
X164970000Y-96052675D01*
X164970000Y-93979567D01*
X165145274Y-94096681D01*
X165406427Y-94204854D01*
X165683666Y-94260001D01*
X165966336Y-94260001D01*
X166243575Y-94204854D01*
X166504728Y-94096681D01*
X166739760Y-93939638D01*
X166861695Y-93817703D01*
X167511904Y-93817703D01*
X167583487Y-94061672D01*
X167838997Y-94182572D01*
X168113185Y-94251301D01*
X168395513Y-94265218D01*
X168675131Y-94223788D01*
X168941293Y-94128604D01*
X169066515Y-94061672D01*
X169138098Y-93817703D01*
X168325001Y-93004606D01*
X167511904Y-93817703D01*
X166861695Y-93817703D01*
X166939638Y-93739760D01*
X167073693Y-93539132D01*
X167088330Y-93566515D01*
X167332299Y-93638098D01*
X168145396Y-92825001D01*
X168504606Y-92825001D01*
X169317703Y-93638098D01*
X169561672Y-93566515D01*
X169682572Y-93311005D01*
X169751301Y-93036817D01*
X169765218Y-92754489D01*
X169723788Y-92474871D01*
X169628604Y-92208709D01*
X169561672Y-92083487D01*
X169317703Y-92011904D01*
X168504606Y-92825001D01*
X168145396Y-92825001D01*
X167332299Y-92011904D01*
X167088330Y-92083487D01*
X167074677Y-92112342D01*
X166939638Y-91910242D01*
X166861695Y-91832299D01*
X167511904Y-91832299D01*
X168325001Y-92645396D01*
X169138098Y-91832299D01*
X169066515Y-91588330D01*
X168811005Y-91467430D01*
X168536817Y-91398701D01*
X168254489Y-91384784D01*
X167974871Y-91426214D01*
X167708709Y-91521398D01*
X167583487Y-91588330D01*
X167511904Y-91832299D01*
X166861695Y-91832299D01*
X166739760Y-91710364D01*
X166504728Y-91553321D01*
X166243575Y-91445148D01*
X165966336Y-91390001D01*
X165683666Y-91390001D01*
X165406427Y-91445148D01*
X165145274Y-91553321D01*
X164910242Y-91710364D01*
X164862358Y-91758248D01*
X164844974Y-91725724D01*
X164824286Y-91700515D01*
X165060997Y-91463804D01*
X165090001Y-91440001D01*
X165184974Y-91324276D01*
X165255546Y-91192247D01*
X165299003Y-91048986D01*
X165302658Y-91011872D01*
X165406427Y-91054854D01*
X165683666Y-91110001D01*
X165966336Y-91110001D01*
X166243575Y-91054854D01*
X166504728Y-90946681D01*
X166739760Y-90789638D01*
X166861695Y-90667703D01*
X167511904Y-90667703D01*
X167583487Y-90911672D01*
X167838997Y-91032572D01*
X168113185Y-91101301D01*
X168395513Y-91115218D01*
X168675131Y-91073788D01*
X168941293Y-90978604D01*
X169066515Y-90911672D01*
X169138098Y-90667703D01*
X168325001Y-89854606D01*
X167511904Y-90667703D01*
X166861695Y-90667703D01*
X166939638Y-90589760D01*
X167073693Y-90389132D01*
X167088330Y-90416515D01*
X167332299Y-90488098D01*
X168145396Y-89675001D01*
X168504606Y-89675001D01*
X169317703Y-90488098D01*
X169561672Y-90416515D01*
X169682572Y-90161005D01*
X169751301Y-89886817D01*
X169765218Y-89604489D01*
X169723788Y-89324871D01*
X169628604Y-89058709D01*
X169561672Y-88933487D01*
X169317703Y-88861904D01*
X168504606Y-89675001D01*
X168145396Y-89675001D01*
X167332299Y-88861904D01*
X167088330Y-88933487D01*
X167074677Y-88962342D01*
X166939638Y-88760242D01*
X166861695Y-88682299D01*
X167511904Y-88682299D01*
X168325001Y-89495396D01*
X169138098Y-88682299D01*
X169066515Y-88438330D01*
X168811005Y-88317430D01*
X168536817Y-88248701D01*
X168254489Y-88234784D01*
X167974871Y-88276214D01*
X167708709Y-88371398D01*
X167583487Y-88438330D01*
X167511904Y-88682299D01*
X166861695Y-88682299D01*
X166739760Y-88560364D01*
X166504728Y-88403321D01*
X166243575Y-88295148D01*
X165966336Y-88240001D01*
X165683666Y-88240001D01*
X165406427Y-88295148D01*
X165310000Y-88335089D01*
X165310000Y-86829984D01*
X165380347Y-86900331D01*
X165497169Y-86783509D01*
X165551820Y-87013241D01*
X165783504Y-87120176D01*
X166031599Y-87179856D01*
X166286570Y-87189990D01*
X166538618Y-87150185D01*
X166778058Y-87061975D01*
X166869232Y-87013241D01*
X166923884Y-86783507D01*
X166210526Y-86070149D01*
X166196384Y-86084292D01*
X166016779Y-85904687D01*
X166030921Y-85890544D01*
X166016779Y-85876402D01*
X166196384Y-85696797D01*
X166210526Y-85710939D01*
X166224669Y-85696797D01*
X166404274Y-85876402D01*
G37*
%TD.AperFunction*%
D27*
X144128998Y-100916201D02*
X144100000Y-100939999D01*
X144076202Y-100968997D01*
X144076201Y-100968998D01*
X144005026Y-101055724D01*
X143934454Y-101187754D01*
X143909814Y-101268985D01*
X143890998Y-101331014D01*
X143885188Y-101390001D01*
X143876324Y-101480000D01*
X143880001Y-101517332D01*
X143880001Y-101692225D01*
X143788987Y-101753038D01*
X143603038Y-101938987D01*
X143456939Y-102157641D01*
X143356304Y-102400595D01*
X143305000Y-102658514D01*
X143305000Y-102921486D01*
X143356304Y-103179405D01*
X143456939Y-103422359D01*
X143603038Y-103641013D01*
X143788987Y-103826962D01*
X144007641Y-103973061D01*
X144250595Y-104073696D01*
X144508514Y-104125000D01*
X144771486Y-104125000D01*
X145029405Y-104073696D01*
X145272359Y-103973061D01*
X145491013Y-103826962D01*
X145676962Y-103641013D01*
X145823061Y-103422359D01*
X145923696Y-103179405D01*
X145975000Y-102921486D01*
X145975000Y-102658514D01*
X148385000Y-102658514D01*
X148385000Y-102921486D01*
X148436304Y-103179405D01*
X148536939Y-103422359D01*
X148683038Y-103641013D01*
X148868987Y-103826962D01*
X149087641Y-103973061D01*
X149330595Y-104073696D01*
X149588514Y-104125000D01*
X149851486Y-104125000D01*
X150109405Y-104073696D01*
X150352359Y-103973061D01*
X150571013Y-103826962D01*
X150756962Y-103641013D01*
X150903061Y-103422359D01*
X151003696Y-103179405D01*
X151055000Y-102921486D01*
X151055000Y-102658514D01*
X151003696Y-102400595D01*
X150903061Y-102157641D01*
X150756962Y-101938987D01*
X150571013Y-101753038D01*
X150352359Y-101606939D01*
X150109405Y-101506304D01*
X149851486Y-101455000D01*
X149588514Y-101455000D01*
X149330595Y-101506304D01*
X149087641Y-101606939D01*
X148868987Y-101753038D01*
X148683038Y-101938987D01*
X148536939Y-102157641D01*
X148436304Y-102400595D01*
X148385000Y-102658514D01*
X145975000Y-102658514D01*
X145923696Y-102400595D01*
X145823061Y-102157641D01*
X145676962Y-101938987D01*
X145491013Y-101753038D01*
X145461490Y-101733311D01*
X145984802Y-101210000D01*
X151995199Y-101210000D01*
X154210000Y-103424802D01*
X154210001Y-105121956D01*
X154055241Y-105225363D01*
X153855363Y-105425241D01*
X153818606Y-105480252D01*
X153602702Y-105416903D01*
X152789605Y-106230000D01*
X153602702Y-107043097D01*
X153696590Y-107015549D01*
X153698320Y-107019727D01*
X153855363Y-107254759D01*
X154055241Y-107454637D01*
X154212943Y-107560010D01*
X153152450Y-107560010D01*
X153226292Y-107533603D01*
X153351514Y-107466671D01*
X153423097Y-107222702D01*
X152610000Y-106409605D01*
X151796903Y-107222702D01*
X151868486Y-107466671D01*
X152065749Y-107560010D01*
X150648906Y-107560010D01*
X150789727Y-107501680D01*
X151024759Y-107344637D01*
X151224637Y-107144759D01*
X151358692Y-106944131D01*
X151373329Y-106971514D01*
X151617298Y-107043097D01*
X152430395Y-106230000D01*
X151617298Y-105416903D01*
X151373329Y-105488486D01*
X151359676Y-105517341D01*
X151224637Y-105315241D01*
X151146694Y-105237298D01*
X151796903Y-105237298D01*
X152610000Y-106050395D01*
X153423097Y-105237298D01*
X153351514Y-104993329D01*
X153096004Y-104872429D01*
X152821816Y-104803700D01*
X152539488Y-104789783D01*
X152259870Y-104831213D01*
X151993708Y-104926397D01*
X151868486Y-104993329D01*
X151796903Y-105237298D01*
X151146694Y-105237298D01*
X151024759Y-105115363D01*
X150789727Y-104958320D01*
X150528574Y-104850147D01*
X150251335Y-104795000D01*
X149968665Y-104795000D01*
X149691426Y-104850147D01*
X149430273Y-104958320D01*
X149195241Y-105115363D01*
X148995363Y-105315241D01*
X148838320Y-105550273D01*
X148730147Y-105811426D01*
X148675000Y-106088665D01*
X148675000Y-106371335D01*
X148711312Y-106553886D01*
X148662198Y-106603001D01*
X144660868Y-106603001D01*
X144681481Y-106544891D01*
X144560814Y-106315000D01*
X143367000Y-106315000D01*
X143367000Y-106335000D01*
X143113000Y-106335000D01*
X143113000Y-106315000D01*
X143093000Y-106315000D01*
X143093000Y-106061000D01*
X143113000Y-106061000D01*
X143113000Y-104867845D01*
X143367000Y-104867845D01*
X143367000Y-106061000D01*
X144560814Y-106061000D01*
X144681481Y-105831109D01*
X144584157Y-105556748D01*
X144435178Y-105306645D01*
X144240269Y-105090412D01*
X144006920Y-104916359D01*
X143744099Y-104791175D01*
X143596890Y-104746524D01*
X143367000Y-104867845D01*
X143113000Y-104867845D01*
X142883110Y-104746524D01*
X142735901Y-104791175D01*
X142679067Y-104818246D01*
X142628798Y-104756994D01*
X142605000Y-104727996D01*
X142576002Y-104704198D01*
X141898808Y-104027004D01*
X142056014Y-103921963D01*
X142241963Y-103736014D01*
X142388062Y-103517360D01*
X142488697Y-103274406D01*
X142540001Y-103016487D01*
X142540001Y-102753515D01*
X142488697Y-102495596D01*
X142388062Y-102252642D01*
X142241963Y-102033988D01*
X142056014Y-101848039D01*
X141965001Y-101787226D01*
X141965001Y-101332326D01*
X141968677Y-101295001D01*
X141965001Y-101257676D01*
X141965001Y-101257668D01*
X141954004Y-101146015D01*
X141910547Y-101002754D01*
X141839975Y-100870725D01*
X141745002Y-100755000D01*
X141715999Y-100731198D01*
X141593804Y-100609003D01*
X141570001Y-100579999D01*
X141454276Y-100485026D01*
X141332623Y-100420000D01*
X144625198Y-100420000D01*
X144128998Y-100916201D01*
%TA.AperFunction,Conductor*%
D28*
G36*
X144128998Y-100916201D02*
G01*
X144100000Y-100939999D01*
X144076202Y-100968997D01*
X144076201Y-100968998D01*
X144005026Y-101055724D01*
X143934454Y-101187754D01*
X143909814Y-101268985D01*
X143890998Y-101331014D01*
X143885188Y-101390001D01*
X143876324Y-101480000D01*
X143880001Y-101517332D01*
X143880001Y-101692225D01*
X143788987Y-101753038D01*
X143603038Y-101938987D01*
X143456939Y-102157641D01*
X143356304Y-102400595D01*
X143305000Y-102658514D01*
X143305000Y-102921486D01*
X143356304Y-103179405D01*
X143456939Y-103422359D01*
X143603038Y-103641013D01*
X143788987Y-103826962D01*
X144007641Y-103973061D01*
X144250595Y-104073696D01*
X144508514Y-104125000D01*
X144771486Y-104125000D01*
X145029405Y-104073696D01*
X145272359Y-103973061D01*
X145491013Y-103826962D01*
X145676962Y-103641013D01*
X145823061Y-103422359D01*
X145923696Y-103179405D01*
X145975000Y-102921486D01*
X145975000Y-102658514D01*
X148385000Y-102658514D01*
X148385000Y-102921486D01*
X148436304Y-103179405D01*
X148536939Y-103422359D01*
X148683038Y-103641013D01*
X148868987Y-103826962D01*
X149087641Y-103973061D01*
X149330595Y-104073696D01*
X149588514Y-104125000D01*
X149851486Y-104125000D01*
X150109405Y-104073696D01*
X150352359Y-103973061D01*
X150571013Y-103826962D01*
X150756962Y-103641013D01*
X150903061Y-103422359D01*
X151003696Y-103179405D01*
X151055000Y-102921486D01*
X151055000Y-102658514D01*
X151003696Y-102400595D01*
X150903061Y-102157641D01*
X150756962Y-101938987D01*
X150571013Y-101753038D01*
X150352359Y-101606939D01*
X150109405Y-101506304D01*
X149851486Y-101455000D01*
X149588514Y-101455000D01*
X149330595Y-101506304D01*
X149087641Y-101606939D01*
X148868987Y-101753038D01*
X148683038Y-101938987D01*
X148536939Y-102157641D01*
X148436304Y-102400595D01*
X148385000Y-102658514D01*
X145975000Y-102658514D01*
X145923696Y-102400595D01*
X145823061Y-102157641D01*
X145676962Y-101938987D01*
X145491013Y-101753038D01*
X145461490Y-101733311D01*
X145984802Y-101210000D01*
X151995199Y-101210000D01*
X154210000Y-103424802D01*
X154210001Y-105121956D01*
X154055241Y-105225363D01*
X153855363Y-105425241D01*
X153818606Y-105480252D01*
X153602702Y-105416903D01*
X152789605Y-106230000D01*
X153602702Y-107043097D01*
X153696590Y-107015549D01*
X153698320Y-107019727D01*
X153855363Y-107254759D01*
X154055241Y-107454637D01*
X154212943Y-107560010D01*
X153152450Y-107560010D01*
X153226292Y-107533603D01*
X153351514Y-107466671D01*
X153423097Y-107222702D01*
X152610000Y-106409605D01*
X151796903Y-107222702D01*
X151868486Y-107466671D01*
X152065749Y-107560010D01*
X150648906Y-107560010D01*
X150789727Y-107501680D01*
X151024759Y-107344637D01*
X151224637Y-107144759D01*
X151358692Y-106944131D01*
X151373329Y-106971514D01*
X151617298Y-107043097D01*
X152430395Y-106230000D01*
X151617298Y-105416903D01*
X151373329Y-105488486D01*
X151359676Y-105517341D01*
X151224637Y-105315241D01*
X151146694Y-105237298D01*
X151796903Y-105237298D01*
X152610000Y-106050395D01*
X153423097Y-105237298D01*
X153351514Y-104993329D01*
X153096004Y-104872429D01*
X152821816Y-104803700D01*
X152539488Y-104789783D01*
X152259870Y-104831213D01*
X151993708Y-104926397D01*
X151868486Y-104993329D01*
X151796903Y-105237298D01*
X151146694Y-105237298D01*
X151024759Y-105115363D01*
X150789727Y-104958320D01*
X150528574Y-104850147D01*
X150251335Y-104795000D01*
X149968665Y-104795000D01*
X149691426Y-104850147D01*
X149430273Y-104958320D01*
X149195241Y-105115363D01*
X148995363Y-105315241D01*
X148838320Y-105550273D01*
X148730147Y-105811426D01*
X148675000Y-106088665D01*
X148675000Y-106371335D01*
X148711312Y-106553886D01*
X148662198Y-106603001D01*
X144660868Y-106603001D01*
X144681481Y-106544891D01*
X144560814Y-106315000D01*
X143367000Y-106315000D01*
X143367000Y-106335000D01*
X143113000Y-106335000D01*
X143113000Y-106315000D01*
X143093000Y-106315000D01*
X143093000Y-106061000D01*
X143113000Y-106061000D01*
X143113000Y-104867845D01*
X143367000Y-104867845D01*
X143367000Y-106061000D01*
X144560814Y-106061000D01*
X144681481Y-105831109D01*
X144584157Y-105556748D01*
X144435178Y-105306645D01*
X144240269Y-105090412D01*
X144006920Y-104916359D01*
X143744099Y-104791175D01*
X143596890Y-104746524D01*
X143367000Y-104867845D01*
X143113000Y-104867845D01*
X142883110Y-104746524D01*
X142735901Y-104791175D01*
X142679067Y-104818246D01*
X142628798Y-104756994D01*
X142605000Y-104727996D01*
X142576002Y-104704198D01*
X141898808Y-104027004D01*
X142056014Y-103921963D01*
X142241963Y-103736014D01*
X142388062Y-103517360D01*
X142488697Y-103274406D01*
X142540001Y-103016487D01*
X142540001Y-102753515D01*
X142488697Y-102495596D01*
X142388062Y-102252642D01*
X142241963Y-102033988D01*
X142056014Y-101848039D01*
X141965001Y-101787226D01*
X141965001Y-101332326D01*
X141968677Y-101295001D01*
X141965001Y-101257676D01*
X141965001Y-101257668D01*
X141954004Y-101146015D01*
X141910547Y-101002754D01*
X141839975Y-100870725D01*
X141745002Y-100755000D01*
X141715999Y-100731198D01*
X141593804Y-100609003D01*
X141570001Y-100579999D01*
X141454276Y-100485026D01*
X141332623Y-100420000D01*
X144625198Y-100420000D01*
X144128998Y-100916201D01*
G37*
%TD.AperFunction*%
D27*
X154909928Y-98706000D02*
X154922188Y-98830482D01*
X154958498Y-98950180D01*
X155017463Y-99060494D01*
X155096815Y-99157185D01*
X155193506Y-99236537D01*
X155303820Y-99295502D01*
X155423518Y-99331812D01*
X155548000Y-99344072D01*
X157348000Y-99344072D01*
X157472482Y-99331812D01*
X157592180Y-99295502D01*
X157702494Y-99236537D01*
X157799185Y-99157185D01*
X157878537Y-99060494D01*
X157937502Y-98950180D01*
X157943056Y-98931873D01*
X158009495Y-98998312D01*
X158260905Y-99166299D01*
X158540257Y-99282011D01*
X158836816Y-99341000D01*
X159139184Y-99341000D01*
X159435743Y-99282011D01*
X159715095Y-99166299D01*
X159966505Y-98998312D01*
X160070000Y-98894817D01*
X160070000Y-100788382D01*
X159895573Y-100632038D01*
X159636620Y-100478766D01*
X159352741Y-100378959D01*
X159115000Y-100499008D01*
X159115000Y-101743000D01*
X159135000Y-101743000D01*
X159135000Y-101997000D01*
X159115000Y-101997000D01*
X159115000Y-103240992D01*
X159352741Y-103361041D01*
X159636620Y-103261234D01*
X159895573Y-103107962D01*
X160070001Y-102951617D01*
X160070001Y-106225197D01*
X159185199Y-107110000D01*
X158609585Y-107110000D01*
X158706671Y-107081514D01*
X158827571Y-106826004D01*
X158896300Y-106551816D01*
X158910217Y-106269488D01*
X158868787Y-105989870D01*
X158773603Y-105723708D01*
X158706671Y-105598486D01*
X158462702Y-105526903D01*
X157649605Y-106340000D01*
X157663748Y-106354143D01*
X157484143Y-106533748D01*
X157470000Y-106519605D01*
X157455858Y-106533748D01*
X157276253Y-106354143D01*
X157290395Y-106340000D01*
X156477298Y-105526903D01*
X156233329Y-105598486D01*
X156219676Y-105627341D01*
X156084637Y-105425241D01*
X156006694Y-105347298D01*
X156656903Y-105347298D01*
X157470000Y-106160395D01*
X158283097Y-105347298D01*
X158211514Y-105103329D01*
X157956004Y-104982429D01*
X157681816Y-104913700D01*
X157399488Y-104899783D01*
X157119870Y-104941213D01*
X156853708Y-105036397D01*
X156728486Y-105103329D01*
X156656903Y-105347298D01*
X156006694Y-105347298D01*
X155884759Y-105225363D01*
X155730000Y-105121957D01*
X155730000Y-103408072D01*
X157348000Y-103408072D01*
X157472482Y-103395812D01*
X157592180Y-103359502D01*
X157702494Y-103300537D01*
X157799185Y-103221185D01*
X157878537Y-103124494D01*
X157937502Y-103014180D01*
X157945689Y-102987192D01*
X158080427Y-103107962D01*
X158339380Y-103261234D01*
X158623259Y-103361041D01*
X158861000Y-103240992D01*
X158861000Y-101997000D01*
X158841000Y-101997000D01*
X158841000Y-101743000D01*
X158861000Y-101743000D01*
X158861000Y-100499008D01*
X158623259Y-100378959D01*
X158339380Y-100478766D01*
X158080427Y-100632038D01*
X157945689Y-100752808D01*
X157937502Y-100725820D01*
X157878537Y-100615506D01*
X157799185Y-100518815D01*
X157702494Y-100439463D01*
X157592180Y-100380498D01*
X157472482Y-100344188D01*
X157348000Y-100331928D01*
X155548000Y-100331928D01*
X155423518Y-100344188D01*
X155303820Y-100380498D01*
X155193506Y-100439463D01*
X155096815Y-100518815D01*
X155017463Y-100615506D01*
X154958498Y-100725820D01*
X154922188Y-100845518D01*
X154916641Y-100901839D01*
X154550000Y-100535199D01*
X154550000Y-97354801D01*
X154909928Y-96994874D01*
X154909928Y-98706000D01*
%TA.AperFunction,Conductor*%
D28*
G36*
X154909928Y-98706000D02*
G01*
X154922188Y-98830482D01*
X154958498Y-98950180D01*
X155017463Y-99060494D01*
X155096815Y-99157185D01*
X155193506Y-99236537D01*
X155303820Y-99295502D01*
X155423518Y-99331812D01*
X155548000Y-99344072D01*
X157348000Y-99344072D01*
X157472482Y-99331812D01*
X157592180Y-99295502D01*
X157702494Y-99236537D01*
X157799185Y-99157185D01*
X157878537Y-99060494D01*
X157937502Y-98950180D01*
X157943056Y-98931873D01*
X158009495Y-98998312D01*
X158260905Y-99166299D01*
X158540257Y-99282011D01*
X158836816Y-99341000D01*
X159139184Y-99341000D01*
X159435743Y-99282011D01*
X159715095Y-99166299D01*
X159966505Y-98998312D01*
X160070000Y-98894817D01*
X160070000Y-100788382D01*
X159895573Y-100632038D01*
X159636620Y-100478766D01*
X159352741Y-100378959D01*
X159115000Y-100499008D01*
X159115000Y-101743000D01*
X159135000Y-101743000D01*
X159135000Y-101997000D01*
X159115000Y-101997000D01*
X159115000Y-103240992D01*
X159352741Y-103361041D01*
X159636620Y-103261234D01*
X159895573Y-103107962D01*
X160070001Y-102951617D01*
X160070001Y-106225197D01*
X159185199Y-107110000D01*
X158609585Y-107110000D01*
X158706671Y-107081514D01*
X158827571Y-106826004D01*
X158896300Y-106551816D01*
X158910217Y-106269488D01*
X158868787Y-105989870D01*
X158773603Y-105723708D01*
X158706671Y-105598486D01*
X158462702Y-105526903D01*
X157649605Y-106340000D01*
X157663748Y-106354143D01*
X157484143Y-106533748D01*
X157470000Y-106519605D01*
X157455858Y-106533748D01*
X157276253Y-106354143D01*
X157290395Y-106340000D01*
X156477298Y-105526903D01*
X156233329Y-105598486D01*
X156219676Y-105627341D01*
X156084637Y-105425241D01*
X156006694Y-105347298D01*
X156656903Y-105347298D01*
X157470000Y-106160395D01*
X158283097Y-105347298D01*
X158211514Y-105103329D01*
X157956004Y-104982429D01*
X157681816Y-104913700D01*
X157399488Y-104899783D01*
X157119870Y-104941213D01*
X156853708Y-105036397D01*
X156728486Y-105103329D01*
X156656903Y-105347298D01*
X156006694Y-105347298D01*
X155884759Y-105225363D01*
X155730000Y-105121957D01*
X155730000Y-103408072D01*
X157348000Y-103408072D01*
X157472482Y-103395812D01*
X157592180Y-103359502D01*
X157702494Y-103300537D01*
X157799185Y-103221185D01*
X157878537Y-103124494D01*
X157937502Y-103014180D01*
X157945689Y-102987192D01*
X158080427Y-103107962D01*
X158339380Y-103261234D01*
X158623259Y-103361041D01*
X158861000Y-103240992D01*
X158861000Y-101997000D01*
X158841000Y-101997000D01*
X158841000Y-101743000D01*
X158861000Y-101743000D01*
X158861000Y-100499008D01*
X158623259Y-100378959D01*
X158339380Y-100478766D01*
X158080427Y-100632038D01*
X157945689Y-100752808D01*
X157937502Y-100725820D01*
X157878537Y-100615506D01*
X157799185Y-100518815D01*
X157702494Y-100439463D01*
X157592180Y-100380498D01*
X157472482Y-100344188D01*
X157348000Y-100331928D01*
X155548000Y-100331928D01*
X155423518Y-100344188D01*
X155303820Y-100380498D01*
X155193506Y-100439463D01*
X155096815Y-100518815D01*
X155017463Y-100615506D01*
X154958498Y-100725820D01*
X154922188Y-100845518D01*
X154916641Y-100901839D01*
X154550000Y-100535199D01*
X154550000Y-97354801D01*
X154909928Y-96994874D01*
X154909928Y-98706000D01*
G37*
%TD.AperFunction*%
D27*
X150959003Y-72436196D02*
X150929999Y-72459999D01*
X150881743Y-72518800D01*
X150835026Y-72575724D01*
X150766459Y-72704003D01*
X150764454Y-72707754D01*
X150720997Y-72851015D01*
X150710000Y-72962668D01*
X150710000Y-72962678D01*
X150706324Y-73000000D01*
X150710000Y-73037322D01*
X150710001Y-81222668D01*
X150706324Y-81260000D01*
X150720998Y-81408985D01*
X150764454Y-81552246D01*
X150835026Y-81684276D01*
X150899432Y-81762754D01*
X150930000Y-81800001D01*
X150958998Y-81823799D01*
X151701202Y-82566003D01*
X151725000Y-82595002D01*
X151840725Y-82689975D01*
X151972754Y-82760547D01*
X152116015Y-82804004D01*
X152227668Y-82815001D01*
X152227677Y-82815001D01*
X152265000Y-82818677D01*
X152302323Y-82815001D01*
X153004100Y-82815001D01*
X153026069Y-82856102D01*
X153205393Y-83074609D01*
X153423900Y-83253933D01*
X153673193Y-83387183D01*
X153943692Y-83469237D01*
X154154509Y-83490001D01*
X155095493Y-83490001D01*
X155306310Y-83469237D01*
X155576809Y-83387183D01*
X155826102Y-83253933D01*
X156044609Y-83074609D01*
X156223933Y-82856102D01*
X156245902Y-82815001D01*
X157800200Y-82815001D01*
X160549593Y-85564394D01*
X160512819Y-85633193D01*
X160430765Y-85903692D01*
X160403058Y-86185001D01*
X160430765Y-86466310D01*
X160512819Y-86736809D01*
X160646069Y-86986102D01*
X160825393Y-87204609D01*
X161043900Y-87383933D01*
X161176859Y-87455001D01*
X161043900Y-87526069D01*
X160825393Y-87705393D01*
X160646069Y-87923900D01*
X160512819Y-88173193D01*
X160510386Y-88181212D01*
X160399277Y-88090027D01*
X160267248Y-88019455D01*
X160123987Y-87975998D01*
X160012334Y-87965001D01*
X160012323Y-87965001D01*
X159975001Y-87961325D01*
X159937679Y-87965001D01*
X156245902Y-87965001D01*
X156223933Y-87923900D01*
X156044609Y-87705393D01*
X155931519Y-87612582D01*
X155949483Y-87610813D01*
X156069181Y-87574503D01*
X156179495Y-87515538D01*
X156276186Y-87436186D01*
X156355538Y-87339495D01*
X156414503Y-87229181D01*
X156450813Y-87109483D01*
X156463073Y-86985001D01*
X156460001Y-86470751D01*
X156301251Y-86312001D01*
X154752001Y-86312001D01*
X154752001Y-86332001D01*
X154498001Y-86332001D01*
X154498001Y-86312001D01*
X152948751Y-86312001D01*
X152790001Y-86470751D01*
X152786929Y-86985001D01*
X152799189Y-87109483D01*
X152835499Y-87229181D01*
X152894464Y-87339495D01*
X152973816Y-87436186D01*
X153070507Y-87515538D01*
X153180821Y-87574503D01*
X153300519Y-87610813D01*
X153318483Y-87612582D01*
X153205393Y-87705393D01*
X153026069Y-87923900D01*
X152892819Y-88173193D01*
X152810765Y-88443692D01*
X152783058Y-88725001D01*
X152810765Y-89006310D01*
X152892819Y-89276809D01*
X152947971Y-89379991D01*
X148304793Y-89379991D01*
X147864284Y-88939483D01*
X148148733Y-88749420D01*
X148679420Y-88218733D01*
X149096378Y-87594712D01*
X149383584Y-86901336D01*
X149530000Y-86165252D01*
X149530000Y-85414748D01*
X149524083Y-85385001D01*
X152786929Y-85385001D01*
X152790001Y-85899251D01*
X152948751Y-86058001D01*
X154498001Y-86058001D01*
X154498001Y-84908751D01*
X154752001Y-84908751D01*
X154752001Y-86058001D01*
X156301251Y-86058001D01*
X156460001Y-85899251D01*
X156463073Y-85385001D01*
X156450813Y-85260519D01*
X156414503Y-85140821D01*
X156355538Y-85030507D01*
X156276186Y-84933816D01*
X156179495Y-84854464D01*
X156069181Y-84795499D01*
X155949483Y-84759189D01*
X155825001Y-84746929D01*
X154910751Y-84750001D01*
X154752001Y-84908751D01*
X154498001Y-84908751D01*
X154339251Y-84750001D01*
X153425001Y-84746929D01*
X153300519Y-84759189D01*
X153180821Y-84795499D01*
X153070507Y-84854464D01*
X152973816Y-84933816D01*
X152894464Y-85030507D01*
X152835499Y-85140821D01*
X152799189Y-85260519D01*
X152786929Y-85385001D01*
X149524083Y-85385001D01*
X149383584Y-84678664D01*
X149096378Y-83985288D01*
X148679420Y-83361267D01*
X148148733Y-82830580D01*
X147524712Y-82413622D01*
X146831336Y-82126416D01*
X146095252Y-81980000D01*
X145344748Y-81980000D01*
X144608664Y-82126416D01*
X143915288Y-82413622D01*
X143291267Y-82830580D01*
X142760580Y-83361267D01*
X142343622Y-83985288D01*
X142056416Y-84678664D01*
X141986531Y-85030000D01*
X119253469Y-85030000D01*
X119183584Y-84678664D01*
X118896378Y-83985288D01*
X118479420Y-83361267D01*
X117948733Y-82830580D01*
X117324712Y-82413622D01*
X116631336Y-82126416D01*
X115895252Y-81980000D01*
X115144748Y-81980000D01*
X114408664Y-82126416D01*
X113715288Y-82413622D01*
X113091267Y-82830580D01*
X112560580Y-83361267D01*
X112143622Y-83985288D01*
X111856416Y-84678664D01*
X111710000Y-85414748D01*
X111710000Y-86165252D01*
X111856416Y-86901336D01*
X112143622Y-87594712D01*
X112560580Y-88218733D01*
X113091267Y-88749420D01*
X113715288Y-89166378D01*
X114408664Y-89453584D01*
X115144748Y-89600000D01*
X115895252Y-89600000D01*
X116631336Y-89453584D01*
X117324712Y-89166378D01*
X117948733Y-88749420D01*
X118479420Y-88218733D01*
X118896378Y-87594712D01*
X119183584Y-86901336D01*
X119253469Y-86550000D01*
X141986531Y-86550000D01*
X142056416Y-86901336D01*
X142343622Y-87594712D01*
X142760580Y-88218733D01*
X143291267Y-88749420D01*
X143915288Y-89166378D01*
X144608664Y-89453584D01*
X145344748Y-89600000D01*
X146095252Y-89600000D01*
X146328752Y-89553554D01*
X147426191Y-90650993D01*
X147449990Y-90679992D01*
X147478988Y-90703790D01*
X147565714Y-90774965D01*
X147688743Y-90840726D01*
X147697744Y-90845537D01*
X147841005Y-90888994D01*
X147952658Y-90899991D01*
X147952667Y-90899991D01*
X147989990Y-90903667D01*
X148027313Y-90899991D01*
X151945207Y-90899991D01*
X151489002Y-91356197D01*
X151459999Y-91379999D01*
X151422072Y-91426214D01*
X151365026Y-91495724D01*
X151323039Y-91574276D01*
X151294454Y-91627754D01*
X151250997Y-91771015D01*
X151240000Y-91882668D01*
X151240000Y-91882678D01*
X151236324Y-91920000D01*
X151240000Y-91957323D01*
X151240001Y-98025197D01*
X150365199Y-98900000D01*
X120697325Y-98900000D01*
X120660000Y-98896324D01*
X120622675Y-98900000D01*
X120622667Y-98900000D01*
X120511014Y-98910997D01*
X120367753Y-98954454D01*
X120235724Y-99025026D01*
X120119999Y-99119999D01*
X120096200Y-99148998D01*
X119554003Y-99691196D01*
X119525000Y-99714998D01*
X119493401Y-99753502D01*
X119430027Y-99830723D01*
X119375761Y-99932247D01*
X119359455Y-99962753D01*
X119315998Y-100106014D01*
X119305001Y-100217667D01*
X119305001Y-100217677D01*
X119301325Y-100254999D01*
X119305001Y-100292322D01*
X119305002Y-101787226D01*
X119270000Y-101810613D01*
X119270000Y-101387325D01*
X119273676Y-101350000D01*
X119270000Y-101312675D01*
X119270000Y-101312667D01*
X119259003Y-101201014D01*
X119215546Y-101057753D01*
X119144974Y-100925724D01*
X119050001Y-100809999D01*
X119021004Y-100786202D01*
X118213803Y-99979002D01*
X118190001Y-99949999D01*
X118074276Y-99855026D01*
X117942247Y-99784454D01*
X117798986Y-99740997D01*
X117687333Y-99730000D01*
X117687322Y-99730000D01*
X117650000Y-99726324D01*
X117612678Y-99730000D01*
X110744802Y-99730000D01*
X110340000Y-99325199D01*
X110340000Y-92609224D01*
X127650381Y-92609224D01*
X127782317Y-92904312D01*
X128123045Y-93075159D01*
X128490557Y-93176250D01*
X128870729Y-93203701D01*
X129248951Y-93156457D01*
X129610690Y-93036333D01*
X129857683Y-92904312D01*
X129989619Y-92609224D01*
X128820000Y-91439605D01*
X127650381Y-92609224D01*
X110340000Y-92609224D01*
X110340000Y-91310729D01*
X126876299Y-91310729D01*
X126923543Y-91688951D01*
X127043667Y-92050690D01*
X127175688Y-92297683D01*
X127470776Y-92429619D01*
X128640395Y-91260000D01*
X128999605Y-91260000D01*
X130169224Y-92429619D01*
X130464312Y-92297683D01*
X130635159Y-91956955D01*
X130736250Y-91589443D01*
X130763701Y-91209271D01*
X130716457Y-90831049D01*
X130596333Y-90469310D01*
X130464312Y-90222317D01*
X130169224Y-90090381D01*
X128999605Y-91260000D01*
X128640395Y-91260000D01*
X127470776Y-90090381D01*
X127175688Y-90222317D01*
X127004841Y-90563045D01*
X126903750Y-90930557D01*
X126876299Y-91310729D01*
X110340000Y-91310729D01*
X110340000Y-89910776D01*
X127650381Y-89910776D01*
X128820000Y-91080395D01*
X129989619Y-89910776D01*
X129857683Y-89615688D01*
X129516955Y-89444841D01*
X129149443Y-89343750D01*
X128769271Y-89316299D01*
X128391049Y-89363543D01*
X128029310Y-89483667D01*
X127782317Y-89615688D01*
X127650381Y-89910776D01*
X110340000Y-89910776D01*
X110340000Y-81854801D01*
X111094802Y-81100000D01*
X126881928Y-81100000D01*
X126881928Y-81640000D01*
X126894188Y-81764482D01*
X126930498Y-81884180D01*
X126989463Y-81994494D01*
X127068815Y-82091185D01*
X127165506Y-82170537D01*
X127275820Y-82229502D01*
X127395518Y-82265812D01*
X127520000Y-82278072D01*
X130120000Y-82278072D01*
X130244482Y-82265812D01*
X130364180Y-82229502D01*
X130474494Y-82170537D01*
X130571185Y-82091185D01*
X130650537Y-81994494D01*
X130709502Y-81884180D01*
X130745812Y-81764482D01*
X130758072Y-81640000D01*
X130758072Y-79040000D01*
X130745812Y-78915518D01*
X130709502Y-78795820D01*
X130650537Y-78685506D01*
X130571185Y-78588815D01*
X130474494Y-78509463D01*
X130364180Y-78450498D01*
X130244482Y-78414188D01*
X130120000Y-78401928D01*
X127520000Y-78401928D01*
X127395518Y-78414188D01*
X127275820Y-78450498D01*
X127165506Y-78509463D01*
X127068815Y-78588815D01*
X126989463Y-78685506D01*
X126930498Y-78795820D01*
X126894188Y-78915518D01*
X126881928Y-79040000D01*
X126881928Y-79580000D01*
X110817322Y-79580000D01*
X110779999Y-79576324D01*
X110742676Y-79580000D01*
X110742667Y-79580000D01*
X110631014Y-79590997D01*
X110487753Y-79634454D01*
X110355724Y-79705026D01*
X110239999Y-79799999D01*
X110216201Y-79828997D01*
X109460000Y-80585199D01*
X109460000Y-73344801D01*
X110984802Y-71820000D01*
X151575198Y-71820000D01*
X150959003Y-72436196D01*
%TA.AperFunction,Conductor*%
D28*
G36*
X150959003Y-72436196D02*
G01*
X150929999Y-72459999D01*
X150881743Y-72518800D01*
X150835026Y-72575724D01*
X150766459Y-72704003D01*
X150764454Y-72707754D01*
X150720997Y-72851015D01*
X150710000Y-72962668D01*
X150710000Y-72962678D01*
X150706324Y-73000000D01*
X150710000Y-73037322D01*
X150710001Y-81222668D01*
X150706324Y-81260000D01*
X150720998Y-81408985D01*
X150764454Y-81552246D01*
X150835026Y-81684276D01*
X150899432Y-81762754D01*
X150930000Y-81800001D01*
X150958998Y-81823799D01*
X151701202Y-82566003D01*
X151725000Y-82595002D01*
X151840725Y-82689975D01*
X151972754Y-82760547D01*
X152116015Y-82804004D01*
X152227668Y-82815001D01*
X152227677Y-82815001D01*
X152265000Y-82818677D01*
X152302323Y-82815001D01*
X153004100Y-82815001D01*
X153026069Y-82856102D01*
X153205393Y-83074609D01*
X153423900Y-83253933D01*
X153673193Y-83387183D01*
X153943692Y-83469237D01*
X154154509Y-83490001D01*
X155095493Y-83490001D01*
X155306310Y-83469237D01*
X155576809Y-83387183D01*
X155826102Y-83253933D01*
X156044609Y-83074609D01*
X156223933Y-82856102D01*
X156245902Y-82815001D01*
X157800200Y-82815001D01*
X160549593Y-85564394D01*
X160512819Y-85633193D01*
X160430765Y-85903692D01*
X160403058Y-86185001D01*
X160430765Y-86466310D01*
X160512819Y-86736809D01*
X160646069Y-86986102D01*
X160825393Y-87204609D01*
X161043900Y-87383933D01*
X161176859Y-87455001D01*
X161043900Y-87526069D01*
X160825393Y-87705393D01*
X160646069Y-87923900D01*
X160512819Y-88173193D01*
X160510386Y-88181212D01*
X160399277Y-88090027D01*
X160267248Y-88019455D01*
X160123987Y-87975998D01*
X160012334Y-87965001D01*
X160012323Y-87965001D01*
X159975001Y-87961325D01*
X159937679Y-87965001D01*
X156245902Y-87965001D01*
X156223933Y-87923900D01*
X156044609Y-87705393D01*
X155931519Y-87612582D01*
X155949483Y-87610813D01*
X156069181Y-87574503D01*
X156179495Y-87515538D01*
X156276186Y-87436186D01*
X156355538Y-87339495D01*
X156414503Y-87229181D01*
X156450813Y-87109483D01*
X156463073Y-86985001D01*
X156460001Y-86470751D01*
X156301251Y-86312001D01*
X154752001Y-86312001D01*
X154752001Y-86332001D01*
X154498001Y-86332001D01*
X154498001Y-86312001D01*
X152948751Y-86312001D01*
X152790001Y-86470751D01*
X152786929Y-86985001D01*
X152799189Y-87109483D01*
X152835499Y-87229181D01*
X152894464Y-87339495D01*
X152973816Y-87436186D01*
X153070507Y-87515538D01*
X153180821Y-87574503D01*
X153300519Y-87610813D01*
X153318483Y-87612582D01*
X153205393Y-87705393D01*
X153026069Y-87923900D01*
X152892819Y-88173193D01*
X152810765Y-88443692D01*
X152783058Y-88725001D01*
X152810765Y-89006310D01*
X152892819Y-89276809D01*
X152947971Y-89379991D01*
X148304793Y-89379991D01*
X147864284Y-88939483D01*
X148148733Y-88749420D01*
X148679420Y-88218733D01*
X149096378Y-87594712D01*
X149383584Y-86901336D01*
X149530000Y-86165252D01*
X149530000Y-85414748D01*
X149524083Y-85385001D01*
X152786929Y-85385001D01*
X152790001Y-85899251D01*
X152948751Y-86058001D01*
X154498001Y-86058001D01*
X154498001Y-84908751D01*
X154752001Y-84908751D01*
X154752001Y-86058001D01*
X156301251Y-86058001D01*
X156460001Y-85899251D01*
X156463073Y-85385001D01*
X156450813Y-85260519D01*
X156414503Y-85140821D01*
X156355538Y-85030507D01*
X156276186Y-84933816D01*
X156179495Y-84854464D01*
X156069181Y-84795499D01*
X155949483Y-84759189D01*
X155825001Y-84746929D01*
X154910751Y-84750001D01*
X154752001Y-84908751D01*
X154498001Y-84908751D01*
X154339251Y-84750001D01*
X153425001Y-84746929D01*
X153300519Y-84759189D01*
X153180821Y-84795499D01*
X153070507Y-84854464D01*
X152973816Y-84933816D01*
X152894464Y-85030507D01*
X152835499Y-85140821D01*
X152799189Y-85260519D01*
X152786929Y-85385001D01*
X149524083Y-85385001D01*
X149383584Y-84678664D01*
X149096378Y-83985288D01*
X148679420Y-83361267D01*
X148148733Y-82830580D01*
X147524712Y-82413622D01*
X146831336Y-82126416D01*
X146095252Y-81980000D01*
X145344748Y-81980000D01*
X144608664Y-82126416D01*
X143915288Y-82413622D01*
X143291267Y-82830580D01*
X142760580Y-83361267D01*
X142343622Y-83985288D01*
X142056416Y-84678664D01*
X141986531Y-85030000D01*
X119253469Y-85030000D01*
X119183584Y-84678664D01*
X118896378Y-83985288D01*
X118479420Y-83361267D01*
X117948733Y-82830580D01*
X117324712Y-82413622D01*
X116631336Y-82126416D01*
X115895252Y-81980000D01*
X115144748Y-81980000D01*
X114408664Y-82126416D01*
X113715288Y-82413622D01*
X113091267Y-82830580D01*
X112560580Y-83361267D01*
X112143622Y-83985288D01*
X111856416Y-84678664D01*
X111710000Y-85414748D01*
X111710000Y-86165252D01*
X111856416Y-86901336D01*
X112143622Y-87594712D01*
X112560580Y-88218733D01*
X113091267Y-88749420D01*
X113715288Y-89166378D01*
X114408664Y-89453584D01*
X115144748Y-89600000D01*
X115895252Y-89600000D01*
X116631336Y-89453584D01*
X117324712Y-89166378D01*
X117948733Y-88749420D01*
X118479420Y-88218733D01*
X118896378Y-87594712D01*
X119183584Y-86901336D01*
X119253469Y-86550000D01*
X141986531Y-86550000D01*
X142056416Y-86901336D01*
X142343622Y-87594712D01*
X142760580Y-88218733D01*
X143291267Y-88749420D01*
X143915288Y-89166378D01*
X144608664Y-89453584D01*
X145344748Y-89600000D01*
X146095252Y-89600000D01*
X146328752Y-89553554D01*
X147426191Y-90650993D01*
X147449990Y-90679992D01*
X147478988Y-90703790D01*
X147565714Y-90774965D01*
X147688743Y-90840726D01*
X147697744Y-90845537D01*
X147841005Y-90888994D01*
X147952658Y-90899991D01*
X147952667Y-90899991D01*
X147989990Y-90903667D01*
X148027313Y-90899991D01*
X151945207Y-90899991D01*
X151489002Y-91356197D01*
X151459999Y-91379999D01*
X151422072Y-91426214D01*
X151365026Y-91495724D01*
X151323039Y-91574276D01*
X151294454Y-91627754D01*
X151250997Y-91771015D01*
X151240000Y-91882668D01*
X151240000Y-91882678D01*
X151236324Y-91920000D01*
X151240000Y-91957323D01*
X151240001Y-98025197D01*
X150365199Y-98900000D01*
X120697325Y-98900000D01*
X120660000Y-98896324D01*
X120622675Y-98900000D01*
X120622667Y-98900000D01*
X120511014Y-98910997D01*
X120367753Y-98954454D01*
X120235724Y-99025026D01*
X120119999Y-99119999D01*
X120096200Y-99148998D01*
X119554003Y-99691196D01*
X119525000Y-99714998D01*
X119493401Y-99753502D01*
X119430027Y-99830723D01*
X119375761Y-99932247D01*
X119359455Y-99962753D01*
X119315998Y-100106014D01*
X119305001Y-100217667D01*
X119305001Y-100217677D01*
X119301325Y-100254999D01*
X119305001Y-100292322D01*
X119305002Y-101787226D01*
X119270000Y-101810613D01*
X119270000Y-101387325D01*
X119273676Y-101350000D01*
X119270000Y-101312675D01*
X119270000Y-101312667D01*
X119259003Y-101201014D01*
X119215546Y-101057753D01*
X119144974Y-100925724D01*
X119050001Y-100809999D01*
X119021004Y-100786202D01*
X118213803Y-99979002D01*
X118190001Y-99949999D01*
X118074276Y-99855026D01*
X117942247Y-99784454D01*
X117798986Y-99740997D01*
X117687333Y-99730000D01*
X117687322Y-99730000D01*
X117650000Y-99726324D01*
X117612678Y-99730000D01*
X110744802Y-99730000D01*
X110340000Y-99325199D01*
X110340000Y-92609224D01*
X127650381Y-92609224D01*
X127782317Y-92904312D01*
X128123045Y-93075159D01*
X128490557Y-93176250D01*
X128870729Y-93203701D01*
X129248951Y-93156457D01*
X129610690Y-93036333D01*
X129857683Y-92904312D01*
X129989619Y-92609224D01*
X128820000Y-91439605D01*
X127650381Y-92609224D01*
X110340000Y-92609224D01*
X110340000Y-91310729D01*
X126876299Y-91310729D01*
X126923543Y-91688951D01*
X127043667Y-92050690D01*
X127175688Y-92297683D01*
X127470776Y-92429619D01*
X128640395Y-91260000D01*
X128999605Y-91260000D01*
X130169224Y-92429619D01*
X130464312Y-92297683D01*
X130635159Y-91956955D01*
X130736250Y-91589443D01*
X130763701Y-91209271D01*
X130716457Y-90831049D01*
X130596333Y-90469310D01*
X130464312Y-90222317D01*
X130169224Y-90090381D01*
X128999605Y-91260000D01*
X128640395Y-91260000D01*
X127470776Y-90090381D01*
X127175688Y-90222317D01*
X127004841Y-90563045D01*
X126903750Y-90930557D01*
X126876299Y-91310729D01*
X110340000Y-91310729D01*
X110340000Y-89910776D01*
X127650381Y-89910776D01*
X128820000Y-91080395D01*
X129989619Y-89910776D01*
X129857683Y-89615688D01*
X129516955Y-89444841D01*
X129149443Y-89343750D01*
X128769271Y-89316299D01*
X128391049Y-89363543D01*
X128029310Y-89483667D01*
X127782317Y-89615688D01*
X127650381Y-89910776D01*
X110340000Y-89910776D01*
X110340000Y-81854801D01*
X111094802Y-81100000D01*
X126881928Y-81100000D01*
X126881928Y-81640000D01*
X126894188Y-81764482D01*
X126930498Y-81884180D01*
X126989463Y-81994494D01*
X127068815Y-82091185D01*
X127165506Y-82170537D01*
X127275820Y-82229502D01*
X127395518Y-82265812D01*
X127520000Y-82278072D01*
X130120000Y-82278072D01*
X130244482Y-82265812D01*
X130364180Y-82229502D01*
X130474494Y-82170537D01*
X130571185Y-82091185D01*
X130650537Y-81994494D01*
X130709502Y-81884180D01*
X130745812Y-81764482D01*
X130758072Y-81640000D01*
X130758072Y-79040000D01*
X130745812Y-78915518D01*
X130709502Y-78795820D01*
X130650537Y-78685506D01*
X130571185Y-78588815D01*
X130474494Y-78509463D01*
X130364180Y-78450498D01*
X130244482Y-78414188D01*
X130120000Y-78401928D01*
X127520000Y-78401928D01*
X127395518Y-78414188D01*
X127275820Y-78450498D01*
X127165506Y-78509463D01*
X127068815Y-78588815D01*
X126989463Y-78685506D01*
X126930498Y-78795820D01*
X126894188Y-78915518D01*
X126881928Y-79040000D01*
X126881928Y-79580000D01*
X110817322Y-79580000D01*
X110779999Y-79576324D01*
X110742676Y-79580000D01*
X110742667Y-79580000D01*
X110631014Y-79590997D01*
X110487753Y-79634454D01*
X110355724Y-79705026D01*
X110239999Y-79799999D01*
X110216201Y-79828997D01*
X109460000Y-80585199D01*
X109460000Y-73344801D01*
X110984802Y-71820000D01*
X151575198Y-71820000D01*
X150959003Y-72436196D01*
G37*
%TD.AperFunction*%
D27*
X161485002Y-73044635D02*
X161293193Y-73102819D01*
X161043900Y-73236069D01*
X160825393Y-73415393D01*
X160646069Y-73633900D01*
X160512819Y-73883193D01*
X160430765Y-74153692D01*
X160403058Y-74435001D01*
X160430765Y-74716310D01*
X160512819Y-74986809D01*
X160646069Y-75236102D01*
X160825393Y-75454609D01*
X161043900Y-75633933D01*
X161176859Y-75705001D01*
X161043900Y-75776069D01*
X160825393Y-75955393D01*
X160646069Y-76173900D01*
X160512819Y-76423193D01*
X160446528Y-76641727D01*
X160268805Y-76464004D01*
X160245002Y-76435000D01*
X160129277Y-76340027D01*
X159997248Y-76269455D01*
X159853987Y-76225998D01*
X159742334Y-76215001D01*
X159742323Y-76215001D01*
X159705001Y-76211325D01*
X159667679Y-76215001D01*
X156245902Y-76215001D01*
X156223933Y-76173900D01*
X156044609Y-75955393D01*
X155931519Y-75862582D01*
X155949483Y-75860813D01*
X156069181Y-75824503D01*
X156179495Y-75765538D01*
X156276186Y-75686186D01*
X156355538Y-75589495D01*
X156414503Y-75479181D01*
X156450813Y-75359483D01*
X156463073Y-75235001D01*
X156460001Y-74720751D01*
X156301251Y-74562001D01*
X154752001Y-74562001D01*
X154752001Y-74582001D01*
X154498001Y-74582001D01*
X154498001Y-74562001D01*
X152948751Y-74562001D01*
X152790001Y-74720751D01*
X152786929Y-75235001D01*
X152799189Y-75359483D01*
X152835499Y-75479181D01*
X152894464Y-75589495D01*
X152973816Y-75686186D01*
X153070507Y-75765538D01*
X153180821Y-75824503D01*
X153300519Y-75860813D01*
X153318483Y-75862582D01*
X153205393Y-75955393D01*
X153026069Y-76173900D01*
X152892819Y-76423193D01*
X152810765Y-76693692D01*
X152783058Y-76975001D01*
X152810765Y-77256310D01*
X152892819Y-77526809D01*
X153026069Y-77776102D01*
X153205393Y-77994609D01*
X153423900Y-78173933D01*
X153556859Y-78245001D01*
X153423900Y-78316069D01*
X153205393Y-78495393D01*
X153026069Y-78713900D01*
X152892819Y-78963193D01*
X152810765Y-79233692D01*
X152783058Y-79515001D01*
X152810765Y-79796310D01*
X152892819Y-80066809D01*
X153026069Y-80316102D01*
X153205393Y-80534609D01*
X153423900Y-80713933D01*
X153556859Y-80785001D01*
X153423900Y-80856069D01*
X153205393Y-81035393D01*
X153026069Y-81253900D01*
X153004100Y-81295001D01*
X152579803Y-81295001D01*
X152230000Y-80945199D01*
X152230000Y-73635001D01*
X152786929Y-73635001D01*
X152790001Y-74149251D01*
X152948751Y-74308001D01*
X154498001Y-74308001D01*
X154498001Y-73158751D01*
X154752001Y-73158751D01*
X154752001Y-74308001D01*
X156301251Y-74308001D01*
X156460001Y-74149251D01*
X156463073Y-73635001D01*
X156450813Y-73510519D01*
X156414503Y-73390821D01*
X156355538Y-73280507D01*
X156276186Y-73183816D01*
X156179495Y-73104464D01*
X156069181Y-73045499D01*
X155949483Y-73009189D01*
X155825001Y-72996929D01*
X154910751Y-73000001D01*
X154752001Y-73158751D01*
X154498001Y-73158751D01*
X154339251Y-73000001D01*
X153425001Y-72996929D01*
X153300519Y-73009189D01*
X153180821Y-73045499D01*
X153070507Y-73104464D01*
X152973816Y-73183816D01*
X152894464Y-73280507D01*
X152835499Y-73390821D01*
X152799189Y-73510519D01*
X152786929Y-73635001D01*
X152230000Y-73635001D01*
X152230000Y-73314801D01*
X153054802Y-72490000D01*
X161485002Y-72490000D01*
X161485002Y-73044635D01*
%TA.AperFunction,Conductor*%
D28*
G36*
X161485002Y-73044635D02*
G01*
X161293193Y-73102819D01*
X161043900Y-73236069D01*
X160825393Y-73415393D01*
X160646069Y-73633900D01*
X160512819Y-73883193D01*
X160430765Y-74153692D01*
X160403058Y-74435001D01*
X160430765Y-74716310D01*
X160512819Y-74986809D01*
X160646069Y-75236102D01*
X160825393Y-75454609D01*
X161043900Y-75633933D01*
X161176859Y-75705001D01*
X161043900Y-75776069D01*
X160825393Y-75955393D01*
X160646069Y-76173900D01*
X160512819Y-76423193D01*
X160446528Y-76641727D01*
X160268805Y-76464004D01*
X160245002Y-76435000D01*
X160129277Y-76340027D01*
X159997248Y-76269455D01*
X159853987Y-76225998D01*
X159742334Y-76215001D01*
X159742323Y-76215001D01*
X159705001Y-76211325D01*
X159667679Y-76215001D01*
X156245902Y-76215001D01*
X156223933Y-76173900D01*
X156044609Y-75955393D01*
X155931519Y-75862582D01*
X155949483Y-75860813D01*
X156069181Y-75824503D01*
X156179495Y-75765538D01*
X156276186Y-75686186D01*
X156355538Y-75589495D01*
X156414503Y-75479181D01*
X156450813Y-75359483D01*
X156463073Y-75235001D01*
X156460001Y-74720751D01*
X156301251Y-74562001D01*
X154752001Y-74562001D01*
X154752001Y-74582001D01*
X154498001Y-74582001D01*
X154498001Y-74562001D01*
X152948751Y-74562001D01*
X152790001Y-74720751D01*
X152786929Y-75235001D01*
X152799189Y-75359483D01*
X152835499Y-75479181D01*
X152894464Y-75589495D01*
X152973816Y-75686186D01*
X153070507Y-75765538D01*
X153180821Y-75824503D01*
X153300519Y-75860813D01*
X153318483Y-75862582D01*
X153205393Y-75955393D01*
X153026069Y-76173900D01*
X152892819Y-76423193D01*
X152810765Y-76693692D01*
X152783058Y-76975001D01*
X152810765Y-77256310D01*
X152892819Y-77526809D01*
X153026069Y-77776102D01*
X153205393Y-77994609D01*
X153423900Y-78173933D01*
X153556859Y-78245001D01*
X153423900Y-78316069D01*
X153205393Y-78495393D01*
X153026069Y-78713900D01*
X152892819Y-78963193D01*
X152810765Y-79233692D01*
X152783058Y-79515001D01*
X152810765Y-79796310D01*
X152892819Y-80066809D01*
X153026069Y-80316102D01*
X153205393Y-80534609D01*
X153423900Y-80713933D01*
X153556859Y-80785001D01*
X153423900Y-80856069D01*
X153205393Y-81035393D01*
X153026069Y-81253900D01*
X153004100Y-81295001D01*
X152579803Y-81295001D01*
X152230000Y-80945199D01*
X152230000Y-73635001D01*
X152786929Y-73635001D01*
X152790001Y-74149251D01*
X152948751Y-74308001D01*
X154498001Y-74308001D01*
X154498001Y-73158751D01*
X154752001Y-73158751D01*
X154752001Y-74308001D01*
X156301251Y-74308001D01*
X156460001Y-74149251D01*
X156463073Y-73635001D01*
X156450813Y-73510519D01*
X156414503Y-73390821D01*
X156355538Y-73280507D01*
X156276186Y-73183816D01*
X156179495Y-73104464D01*
X156069181Y-73045499D01*
X155949483Y-73009189D01*
X155825001Y-72996929D01*
X154910751Y-73000001D01*
X154752001Y-73158751D01*
X154498001Y-73158751D01*
X154339251Y-73000001D01*
X153425001Y-72996929D01*
X153300519Y-73009189D01*
X153180821Y-73045499D01*
X153070507Y-73104464D01*
X152973816Y-73183816D01*
X152894464Y-73280507D01*
X152835499Y-73390821D01*
X152799189Y-73510519D01*
X152786929Y-73635001D01*
X152230000Y-73635001D01*
X152230000Y-73314801D01*
X153054802Y-72490000D01*
X161485002Y-72490000D01*
X161485002Y-73044635D01*
G37*
%TD.AperFunction*%
%TD*%
M02*
