M48
; DRILL file {KiCad (5.1.12)-1} date 08/23/23 22:38:52
; FORMAT={-:-/ absolute / inch / decimal}
; #@! TF.CreationDate,2023-08-23T22:38:52+05:30
; #@! TF.GenerationSoftware,Kicad,Pcbnew,(5.1.12)-1
; #@! TF.FileFunction,Plated,1,2,PTH
FMAT,2
INCH
T1C0.0276
T2C0.0295
T3C0.0315
T4C0.0320
T5C0.0354
T6C0.0394
T7C0.0512
T8C0.1339
T9C0.1575
%
G90
G05
T1
X4.4108Y-4.0506
X4.4108Y-4.1746
X4.6108Y-4.0506
X4.6108Y-4.1746
X4.727Y-4.0506
X4.727Y-4.1746
X4.927Y-4.0506
X4.927Y-4.1746
X5.0431Y-4.0506
X5.0494Y-4.1706
X5.2431Y-4.0506
X5.2494Y-4.1706
X5.3593Y-4.0506
X5.5593Y-4.0506
X5.6945Y-4.0469
X5.8945Y-4.0469
T2
X6.5494Y-3.0806
X6.5994Y-3.0806
X6.6494Y-3.0806
T3
X5.9098Y-4.1823
X6.0083Y-4.1823
X6.0876Y-2.9305
X6.0876Y-3.0305
X6.0876Y-3.1305
X6.0876Y-3.2305
X6.0876Y-3.3931
X6.0876Y-3.4931
X6.0876Y-3.5931
X6.0876Y-3.6931
X6.1012Y-4.1866
X6.1996Y-4.1866
X6.3876Y-2.9305
X6.3876Y-3.0305
X6.3876Y-3.1305
X6.3876Y-3.2305
X6.3876Y-3.3931
X6.3876Y-3.4931
X6.3876Y-3.5931
X6.3876Y-3.6931
X6.5285Y-3.5305
X6.5285Y-3.6545
X6.627Y-3.5305
X6.627Y-3.6545
T4
X6.5437Y-3.3815
X6.5937Y-3.3065
X6.6437Y-3.3815
T5
X6.1594Y-3.8506
X6.1594Y-4.0106
X6.2594Y-3.8506
X6.2594Y-4.0106
X6.4096Y-3.8577
X6.413Y-4.0091
X6.5096Y-3.8577
X6.513Y-4.0091
T6
X5.5394Y-4.1806
X5.6394Y-4.1806
X6.6894Y-3.8706
X6.6894Y-3.9706
T7
X5.0717Y-3.163
X5.0717Y-3.5929
T8
X4.2126Y-2.7165
X4.2126Y-4.5276
X7.0079Y-2.7165
X7.0079Y-4.5276
T9
X4.548Y-3.3776
X5.737Y-3.3776
T0
M30
