%TF.GenerationSoftware,KiCad,Pcbnew,(5.1.12)-1*%
%TF.CreationDate,2023-08-17T14:56:45+05:30*%
%TF.ProjectId,rain alaram,7261696e-2061-46c6-9172-616d2e6b6963,rev?*%
%TF.SameCoordinates,Original*%
%TF.FileFunction,Copper,L2,Bot*%
%TF.FilePolarity,Positive*%
%FSLAX46Y46*%
G04 Gerber Fmt 4.6, Leading zero omitted, Abs format (unit mm)*
G04 Created by KiCad (PCBNEW (5.1.12)-1) date 2023-08-17 14:56:45*
%MOMM*%
%LPD*%
G01*
G04 APERTURE LIST*
%TA.AperFunction,ComponentPad*%
%ADD10C,1.400000*%
%TD*%
%TA.AperFunction,ComponentPad*%
%ADD11O,1.400000X1.400000*%
%TD*%
%TA.AperFunction,ComponentPad*%
%ADD12R,2.400000X1.600000*%
%TD*%
%TA.AperFunction,ComponentPad*%
%ADD13O,2.400000X1.600000*%
%TD*%
%TA.AperFunction,ComponentPad*%
%ADD14R,1.700000X1.700000*%
%TD*%
%TA.AperFunction,ComponentPad*%
%ADD15O,1.700000X1.700000*%
%TD*%
%TA.AperFunction,ComponentPad*%
%ADD16R,1.050000X1.500000*%
%TD*%
%TA.AperFunction,ComponentPad*%
%ADD17O,1.050000X1.500000*%
%TD*%
%TA.AperFunction,ComponentPad*%
%ADD18C,1.200000*%
%TD*%
%TA.AperFunction,ComponentPad*%
%ADD19R,1.200000X1.200000*%
%TD*%
%TA.AperFunction,ViaPad*%
%ADD20C,3.500000*%
%TD*%
%TA.AperFunction,Conductor*%
%ADD21C,0.250000*%
%TD*%
%TA.AperFunction,Conductor*%
%ADD22C,0.254000*%
%TD*%
%TA.AperFunction,Conductor*%
%ADD23C,0.100000*%
%TD*%
G04 APERTURE END LIST*
D10*
%TO.P,R1,1*%
%TO.N,Net-(9V1-Pad1)*%
X136750000Y-73080000D03*
D11*
%TO.P,R1,2*%
%TO.N,Net-(R1-Pad2)*%
X136750000Y-78160000D03*
%TD*%
D10*
%TO.P,R5,1*%
%TO.N,Net-(Q1-Pad3)*%
X125790000Y-85330000D03*
D11*
%TO.P,R5,2*%
%TO.N,Earth*%
X120710000Y-85330000D03*
%TD*%
D12*
%TO.P,U1,1*%
%TO.N,Earth*%
X128310000Y-84930000D03*
D13*
%TO.P,U1,5*%
%TO.N,Net-(U1-Pad5)*%
X135930000Y-92550000D03*
%TO.P,U1,2*%
%TO.N,Net-(C1-Pad1)*%
X128310000Y-87470000D03*
%TO.P,U1,6*%
X135930000Y-90010000D03*
%TO.P,U1,3*%
%TO.N,Net-(BZ1-Pad1)*%
X128310000Y-90010000D03*
%TO.P,U1,7*%
%TO.N,Net-(R1-Pad2)*%
X135930000Y-87470000D03*
%TO.P,U1,4*%
%TO.N,Net-(Q1-Pad3)*%
X128310000Y-92550000D03*
%TO.P,U1,8*%
%TO.N,Net-(9V1-Pad1)*%
X135930000Y-84930000D03*
%TD*%
D14*
%TO.P,BZ1,1*%
%TO.N,Net-(BZ1-Pad1)*%
X124640000Y-88610000D03*
D15*
%TO.P,BZ1,2*%
%TO.N,Earth*%
X122100000Y-88610000D03*
%TD*%
D16*
%TO.P,Q1,1*%
%TO.N,Net-(Q1-Pad1)*%
X130690000Y-74540000D03*
D17*
%TO.P,Q1,3*%
%TO.N,Net-(Q1-Pad3)*%
X133230000Y-74540000D03*
%TO.P,Q1,2*%
%TO.N,Net-(Q1-Pad2)*%
X131960000Y-74540000D03*
%TD*%
D14*
%TO.P,9V1,1*%
%TO.N,Net-(9V1-Pad1)*%
X140280000Y-85620000D03*
D15*
%TO.P,9V1,2*%
%TO.N,Earth*%
X140280000Y-88160000D03*
%TD*%
D11*
%TO.P,R2,2*%
%TO.N,Net-(C1-Pad1)*%
X129420000Y-82210000D03*
D10*
%TO.P,R2,1*%
%TO.N,Net-(R1-Pad2)*%
X134500000Y-82210000D03*
%TD*%
D11*
%TO.P,R4,2*%
%TO.N,Net-(9V1-Pad1)*%
X134570000Y-79500000D03*
D10*
%TO.P,R4,1*%
%TO.N,Net-(Q1-Pad2)*%
X129490000Y-79500000D03*
%TD*%
D11*
%TO.P,R3,2*%
%TO.N,Net-(Q1-Pad1)*%
X127740000Y-75310000D03*
D10*
%TO.P,R3,1*%
%TO.N,Net-(9V1-Pad1)*%
X122660000Y-75310000D03*
%TD*%
D18*
%TO.P,C1,2*%
%TO.N,Earth*%
X124930000Y-79190000D03*
D19*
%TO.P,C1,1*%
%TO.N,Net-(C1-Pad1)*%
X124930000Y-81190000D03*
%TD*%
D20*
%TO.N,*%
X119000000Y-71000000D03*
X143000000Y-71000000D03*
X143000000Y-95000000D03*
X119000000Y-95000000D03*
%TD*%
D21*
%TO.N,Earth*%
X120710000Y-85330000D02*
X120040000Y-85330000D01*
X120040000Y-85330000D02*
X119520000Y-85850000D01*
X119520000Y-85850000D02*
X119520000Y-88440000D01*
X119690000Y-88610000D02*
X122100000Y-88610000D01*
X119520000Y-88440000D02*
X119690000Y-88610000D01*
X122100000Y-88610000D02*
X122100000Y-87480000D01*
X122100000Y-87480000D02*
X122770000Y-86810000D01*
X126430000Y-86810000D02*
X128310000Y-84930000D01*
X122770000Y-86810000D02*
X126430000Y-86810000D01*
X128310000Y-84930000D02*
X128310000Y-84410000D01*
X128310000Y-84410000D02*
X126750000Y-82850000D01*
X126750000Y-82850000D02*
X123120000Y-82850000D01*
X123120000Y-82850000D02*
X121600000Y-81330000D01*
X121600000Y-81330000D02*
X121600000Y-79110000D01*
X121600000Y-79110000D02*
X122310000Y-78400000D01*
X124140000Y-78400000D02*
X124930000Y-79190000D01*
X122310000Y-78400000D02*
X124140000Y-78400000D01*
X126265001Y-80525001D02*
X124930000Y-79190000D01*
X129252003Y-80525001D02*
X126265001Y-80525001D01*
X131000000Y-82272998D02*
X129252003Y-80525001D01*
X131000000Y-88000000D02*
X131000000Y-82272998D01*
X137074990Y-88595010D02*
X131595010Y-88595010D01*
X137510000Y-88160000D02*
X137074990Y-88595010D01*
X131595010Y-88595010D02*
X131000000Y-88000000D01*
X140280000Y-88160000D02*
X137510000Y-88160000D01*
%TO.N,Net-(9V1-Pad1)*%
X122660000Y-75310000D02*
X122660000Y-76740000D01*
X122660000Y-76740000D02*
X123200000Y-77280000D01*
X123200000Y-77280000D02*
X133690000Y-77280000D01*
X134570000Y-78160000D02*
X134570000Y-79500000D01*
X136037002Y-79500000D02*
X134570000Y-79500000D01*
X137445001Y-80907999D02*
X136037002Y-79500000D01*
X137445001Y-83414999D02*
X137445001Y-80907999D01*
X135930000Y-84930000D02*
X137445001Y-83414999D01*
X134330000Y-75500000D02*
X136750000Y-73080000D01*
X134330000Y-77920000D02*
X134330000Y-75500000D01*
X133690000Y-77280000D02*
X134330000Y-77920000D01*
X134330000Y-77920000D02*
X134570000Y-78160000D01*
X140280000Y-76610000D02*
X136750000Y-73080000D01*
X140280000Y-85620000D02*
X140280000Y-76610000D01*
%TO.N,Net-(BZ1-Pad1)*%
X127900000Y-90420000D02*
X128310000Y-90010000D01*
X126910000Y-88610000D02*
X128310000Y-90010000D01*
X124640000Y-88610000D02*
X126910000Y-88610000D01*
%TO.N,Net-(C1-Pad1)*%
X128400000Y-81190000D02*
X129420000Y-82210000D01*
X124930000Y-81190000D02*
X128400000Y-81190000D01*
X130000000Y-82790000D02*
X129420000Y-82210000D01*
X130000000Y-86690000D02*
X130000000Y-82790000D01*
X129220000Y-87470000D02*
X130000000Y-86690000D01*
X128310000Y-87470000D02*
X129220000Y-87470000D01*
X130000000Y-89160000D02*
X128310000Y-87470000D01*
X130000000Y-92255000D02*
X130000000Y-89160000D01*
X130905000Y-93160000D02*
X130000000Y-92255000D01*
X133515000Y-93160000D02*
X130905000Y-93160000D01*
X134000000Y-92675000D02*
X133515000Y-93160000D01*
X134000000Y-90390000D02*
X134000000Y-92675000D01*
X134380000Y-90010000D02*
X134000000Y-90390000D01*
X135930000Y-90010000D02*
X134380000Y-90010000D01*
%TO.N,Net-(Q1-Pad1)*%
X127740000Y-75310000D02*
X127740000Y-73710000D01*
X127740000Y-73710000D02*
X128770000Y-72680000D01*
X128770000Y-72680000D02*
X130260000Y-72680000D01*
X130690000Y-73110000D02*
X130690000Y-74540000D01*
X130260000Y-72680000D02*
X130690000Y-73110000D01*
%TO.N,Net-(Q1-Pad3)*%
X128310000Y-92550000D02*
X128310000Y-92400000D01*
X125790000Y-85330000D02*
X125790000Y-84250000D01*
X125790000Y-84250000D02*
X125180000Y-83640000D01*
X125180000Y-83640000D02*
X122240000Y-83640000D01*
X122240000Y-83640000D02*
X120020000Y-81420000D01*
X120020000Y-81420000D02*
X120020000Y-73010000D01*
X120020000Y-73010000D02*
X122760000Y-70270000D01*
X122760000Y-70270000D02*
X131520000Y-70270000D01*
X133230000Y-71980000D02*
X133230000Y-74540000D01*
X131520000Y-70270000D02*
X133230000Y-71980000D01*
X119940000Y-81420000D02*
X118470000Y-82890000D01*
X120020000Y-81420000D02*
X119940000Y-81420000D01*
X118470000Y-82890000D02*
X118470000Y-91200000D01*
X119820000Y-92550000D02*
X128310000Y-92550000D01*
X118470000Y-91200000D02*
X119820000Y-92550000D01*
%TO.N,Net-(Q1-Pad2)*%
X121634999Y-76351409D02*
X121634999Y-74135001D01*
X123013599Y-77730009D02*
X121634999Y-76351409D01*
X127720010Y-77730010D02*
X123013599Y-77730009D01*
X129490000Y-79500000D02*
X127720010Y-77730010D01*
X121634999Y-74135001D02*
X123950000Y-71820000D01*
X123950000Y-71820000D02*
X131270000Y-71820000D01*
X131960000Y-72510000D02*
X131960000Y-74540000D01*
X131270000Y-71820000D02*
X131960000Y-72510000D01*
%TO.N,Net-(R1-Pad2)*%
X136750000Y-78160000D02*
X138310000Y-79720000D01*
X138310000Y-85090000D02*
X135930000Y-87470000D01*
X138310000Y-79720000D02*
X138310000Y-85090000D01*
X133800001Y-82909999D02*
X133800001Y-85340001D01*
X133800001Y-85340001D02*
X135930000Y-87470000D01*
X134500000Y-82210000D02*
X133800001Y-82909999D01*
%TD*%
D22*
%TO.N,Earth*%
X140886440Y-69870279D02*
X140706654Y-70304321D01*
X140615000Y-70765098D01*
X140615000Y-71234902D01*
X140706654Y-71695679D01*
X140886440Y-72129721D01*
X141147450Y-72520349D01*
X141479651Y-72852550D01*
X141870279Y-73113560D01*
X142304321Y-73293346D01*
X142765098Y-73385000D01*
X143234902Y-73385000D01*
X143695679Y-73293346D01*
X144129721Y-73113560D01*
X144340000Y-72973056D01*
X144340001Y-93026945D01*
X144129721Y-92886440D01*
X143695679Y-92706654D01*
X143234902Y-92615000D01*
X142765098Y-92615000D01*
X142304321Y-92706654D01*
X141870279Y-92886440D01*
X141479651Y-93147450D01*
X141147450Y-93479651D01*
X140886440Y-93870279D01*
X140706654Y-94304321D01*
X140615000Y-94765098D01*
X140615000Y-95234902D01*
X140706654Y-95695679D01*
X140886440Y-96129721D01*
X141026944Y-96340000D01*
X120973056Y-96340000D01*
X121113560Y-96129721D01*
X121293346Y-95695679D01*
X121385000Y-95234902D01*
X121385000Y-94765098D01*
X121293346Y-94304321D01*
X121113560Y-93870279D01*
X120852550Y-93479651D01*
X120682899Y-93310000D01*
X126689099Y-93310000D01*
X126711068Y-93351101D01*
X126890392Y-93569608D01*
X127108899Y-93748932D01*
X127358192Y-93882182D01*
X127628691Y-93964236D01*
X127839508Y-93985000D01*
X128780492Y-93985000D01*
X128991309Y-93964236D01*
X129261808Y-93882182D01*
X129511101Y-93748932D01*
X129729608Y-93569608D01*
X129908932Y-93351101D01*
X130042182Y-93101808D01*
X130124236Y-92831309D01*
X130135199Y-92720000D01*
X131086201Y-93671003D01*
X131109999Y-93700001D01*
X131138997Y-93723799D01*
X131225724Y-93794974D01*
X131357753Y-93865546D01*
X131501014Y-93909003D01*
X131650000Y-93923677D01*
X131687333Y-93920000D01*
X133152678Y-93920000D01*
X133190000Y-93923676D01*
X133227322Y-93920000D01*
X133227333Y-93920000D01*
X133338986Y-93909003D01*
X133482247Y-93865546D01*
X133614276Y-93794974D01*
X133730001Y-93700001D01*
X133753803Y-93670998D01*
X134241420Y-93183382D01*
X134331068Y-93351101D01*
X134510392Y-93569608D01*
X134728899Y-93748932D01*
X134978192Y-93882182D01*
X135248691Y-93964236D01*
X135459508Y-93985000D01*
X136400492Y-93985000D01*
X136611309Y-93964236D01*
X136881808Y-93882182D01*
X137131101Y-93748932D01*
X137349608Y-93569608D01*
X137528932Y-93351101D01*
X137662182Y-93101808D01*
X137744236Y-92831309D01*
X137771943Y-92550000D01*
X137744236Y-92268691D01*
X137662182Y-91998192D01*
X137528932Y-91748899D01*
X137349608Y-91530392D01*
X137131101Y-91351068D01*
X136998142Y-91280000D01*
X137131101Y-91208932D01*
X137349608Y-91029608D01*
X137528932Y-90811101D01*
X137662182Y-90561808D01*
X137744236Y-90291309D01*
X137771943Y-90010000D01*
X137744236Y-89728691D01*
X137662182Y-89458192D01*
X137528932Y-89208899D01*
X137349608Y-88990392D01*
X137131101Y-88811068D01*
X136998142Y-88740000D01*
X137131101Y-88668932D01*
X137316364Y-88516890D01*
X138838524Y-88516890D01*
X138883175Y-88664099D01*
X139008359Y-88926920D01*
X139182412Y-89160269D01*
X139398645Y-89355178D01*
X139648748Y-89504157D01*
X139923109Y-89601481D01*
X140153000Y-89480814D01*
X140153000Y-88287000D01*
X140407000Y-88287000D01*
X140407000Y-89480814D01*
X140636891Y-89601481D01*
X140911252Y-89504157D01*
X141161355Y-89355178D01*
X141377588Y-89160269D01*
X141551641Y-88926920D01*
X141676825Y-88664099D01*
X141721476Y-88516890D01*
X141600155Y-88287000D01*
X140407000Y-88287000D01*
X140153000Y-88287000D01*
X138959845Y-88287000D01*
X138838524Y-88516890D01*
X137316364Y-88516890D01*
X137349608Y-88489608D01*
X137528932Y-88271101D01*
X137662182Y-88021808D01*
X137744236Y-87751309D01*
X137771943Y-87470000D01*
X137744236Y-87188691D01*
X137662182Y-86918192D01*
X137625408Y-86849393D01*
X138791928Y-85682874D01*
X138791928Y-86470000D01*
X138804188Y-86594482D01*
X138840498Y-86714180D01*
X138899463Y-86824494D01*
X138978815Y-86921185D01*
X139075506Y-87000537D01*
X139185820Y-87059502D01*
X139266466Y-87083966D01*
X139182412Y-87159731D01*
X139008359Y-87393080D01*
X138883175Y-87655901D01*
X138838524Y-87803110D01*
X138959845Y-88033000D01*
X140153000Y-88033000D01*
X140153000Y-88013000D01*
X140407000Y-88013000D01*
X140407000Y-88033000D01*
X141600155Y-88033000D01*
X141721476Y-87803110D01*
X141676825Y-87655901D01*
X141551641Y-87393080D01*
X141377588Y-87159731D01*
X141293534Y-87083966D01*
X141374180Y-87059502D01*
X141484494Y-87000537D01*
X141581185Y-86921185D01*
X141660537Y-86824494D01*
X141719502Y-86714180D01*
X141755812Y-86594482D01*
X141768072Y-86470000D01*
X141768072Y-84770000D01*
X141755812Y-84645518D01*
X141719502Y-84525820D01*
X141660537Y-84415506D01*
X141581185Y-84318815D01*
X141484494Y-84239463D01*
X141374180Y-84180498D01*
X141254482Y-84144188D01*
X141130000Y-84131928D01*
X141040000Y-84131928D01*
X141040000Y-76647323D01*
X141043676Y-76610000D01*
X141040000Y-76572677D01*
X141040000Y-76572667D01*
X141029003Y-76461014D01*
X140985546Y-76317753D01*
X140956641Y-76263676D01*
X140914974Y-76185723D01*
X140843799Y-76098997D01*
X140820001Y-76069999D01*
X140791003Y-76046201D01*
X138063645Y-73318844D01*
X138085000Y-73211486D01*
X138085000Y-72948514D01*
X138033696Y-72690595D01*
X137933061Y-72447641D01*
X137786962Y-72228987D01*
X137601013Y-72043038D01*
X137382359Y-71896939D01*
X137139405Y-71796304D01*
X136881486Y-71745000D01*
X136618514Y-71745000D01*
X136360595Y-71796304D01*
X136117641Y-71896939D01*
X135898987Y-72043038D01*
X135713038Y-72228987D01*
X135566939Y-72447641D01*
X135466304Y-72690595D01*
X135415000Y-72948514D01*
X135415000Y-73211486D01*
X135436355Y-73318843D01*
X134390000Y-74365199D01*
X134390000Y-74258021D01*
X134373215Y-74087600D01*
X134306885Y-73868940D01*
X134199171Y-73667421D01*
X134054212Y-73490788D01*
X133990000Y-73438091D01*
X133990000Y-72017322D01*
X133993676Y-71979999D01*
X133990000Y-71942676D01*
X133990000Y-71942667D01*
X133979003Y-71831014D01*
X133935546Y-71687753D01*
X133864974Y-71555724D01*
X133770001Y-71439999D01*
X133741004Y-71416202D01*
X132083804Y-69759003D01*
X132060001Y-69729999D01*
X131974707Y-69660000D01*
X141026944Y-69660000D01*
X140886440Y-69870279D01*
%TA.AperFunction,Conductor*%
D23*
G36*
X140886440Y-69870279D02*
G01*
X140706654Y-70304321D01*
X140615000Y-70765098D01*
X140615000Y-71234902D01*
X140706654Y-71695679D01*
X140886440Y-72129721D01*
X141147450Y-72520349D01*
X141479651Y-72852550D01*
X141870279Y-73113560D01*
X142304321Y-73293346D01*
X142765098Y-73385000D01*
X143234902Y-73385000D01*
X143695679Y-73293346D01*
X144129721Y-73113560D01*
X144340000Y-72973056D01*
X144340001Y-93026945D01*
X144129721Y-92886440D01*
X143695679Y-92706654D01*
X143234902Y-92615000D01*
X142765098Y-92615000D01*
X142304321Y-92706654D01*
X141870279Y-92886440D01*
X141479651Y-93147450D01*
X141147450Y-93479651D01*
X140886440Y-93870279D01*
X140706654Y-94304321D01*
X140615000Y-94765098D01*
X140615000Y-95234902D01*
X140706654Y-95695679D01*
X140886440Y-96129721D01*
X141026944Y-96340000D01*
X120973056Y-96340000D01*
X121113560Y-96129721D01*
X121293346Y-95695679D01*
X121385000Y-95234902D01*
X121385000Y-94765098D01*
X121293346Y-94304321D01*
X121113560Y-93870279D01*
X120852550Y-93479651D01*
X120682899Y-93310000D01*
X126689099Y-93310000D01*
X126711068Y-93351101D01*
X126890392Y-93569608D01*
X127108899Y-93748932D01*
X127358192Y-93882182D01*
X127628691Y-93964236D01*
X127839508Y-93985000D01*
X128780492Y-93985000D01*
X128991309Y-93964236D01*
X129261808Y-93882182D01*
X129511101Y-93748932D01*
X129729608Y-93569608D01*
X129908932Y-93351101D01*
X130042182Y-93101808D01*
X130124236Y-92831309D01*
X130135199Y-92720000D01*
X131086201Y-93671003D01*
X131109999Y-93700001D01*
X131138997Y-93723799D01*
X131225724Y-93794974D01*
X131357753Y-93865546D01*
X131501014Y-93909003D01*
X131650000Y-93923677D01*
X131687333Y-93920000D01*
X133152678Y-93920000D01*
X133190000Y-93923676D01*
X133227322Y-93920000D01*
X133227333Y-93920000D01*
X133338986Y-93909003D01*
X133482247Y-93865546D01*
X133614276Y-93794974D01*
X133730001Y-93700001D01*
X133753803Y-93670998D01*
X134241420Y-93183382D01*
X134331068Y-93351101D01*
X134510392Y-93569608D01*
X134728899Y-93748932D01*
X134978192Y-93882182D01*
X135248691Y-93964236D01*
X135459508Y-93985000D01*
X136400492Y-93985000D01*
X136611309Y-93964236D01*
X136881808Y-93882182D01*
X137131101Y-93748932D01*
X137349608Y-93569608D01*
X137528932Y-93351101D01*
X137662182Y-93101808D01*
X137744236Y-92831309D01*
X137771943Y-92550000D01*
X137744236Y-92268691D01*
X137662182Y-91998192D01*
X137528932Y-91748899D01*
X137349608Y-91530392D01*
X137131101Y-91351068D01*
X136998142Y-91280000D01*
X137131101Y-91208932D01*
X137349608Y-91029608D01*
X137528932Y-90811101D01*
X137662182Y-90561808D01*
X137744236Y-90291309D01*
X137771943Y-90010000D01*
X137744236Y-89728691D01*
X137662182Y-89458192D01*
X137528932Y-89208899D01*
X137349608Y-88990392D01*
X137131101Y-88811068D01*
X136998142Y-88740000D01*
X137131101Y-88668932D01*
X137316364Y-88516890D01*
X138838524Y-88516890D01*
X138883175Y-88664099D01*
X139008359Y-88926920D01*
X139182412Y-89160269D01*
X139398645Y-89355178D01*
X139648748Y-89504157D01*
X139923109Y-89601481D01*
X140153000Y-89480814D01*
X140153000Y-88287000D01*
X140407000Y-88287000D01*
X140407000Y-89480814D01*
X140636891Y-89601481D01*
X140911252Y-89504157D01*
X141161355Y-89355178D01*
X141377588Y-89160269D01*
X141551641Y-88926920D01*
X141676825Y-88664099D01*
X141721476Y-88516890D01*
X141600155Y-88287000D01*
X140407000Y-88287000D01*
X140153000Y-88287000D01*
X138959845Y-88287000D01*
X138838524Y-88516890D01*
X137316364Y-88516890D01*
X137349608Y-88489608D01*
X137528932Y-88271101D01*
X137662182Y-88021808D01*
X137744236Y-87751309D01*
X137771943Y-87470000D01*
X137744236Y-87188691D01*
X137662182Y-86918192D01*
X137625408Y-86849393D01*
X138791928Y-85682874D01*
X138791928Y-86470000D01*
X138804188Y-86594482D01*
X138840498Y-86714180D01*
X138899463Y-86824494D01*
X138978815Y-86921185D01*
X139075506Y-87000537D01*
X139185820Y-87059502D01*
X139266466Y-87083966D01*
X139182412Y-87159731D01*
X139008359Y-87393080D01*
X138883175Y-87655901D01*
X138838524Y-87803110D01*
X138959845Y-88033000D01*
X140153000Y-88033000D01*
X140153000Y-88013000D01*
X140407000Y-88013000D01*
X140407000Y-88033000D01*
X141600155Y-88033000D01*
X141721476Y-87803110D01*
X141676825Y-87655901D01*
X141551641Y-87393080D01*
X141377588Y-87159731D01*
X141293534Y-87083966D01*
X141374180Y-87059502D01*
X141484494Y-87000537D01*
X141581185Y-86921185D01*
X141660537Y-86824494D01*
X141719502Y-86714180D01*
X141755812Y-86594482D01*
X141768072Y-86470000D01*
X141768072Y-84770000D01*
X141755812Y-84645518D01*
X141719502Y-84525820D01*
X141660537Y-84415506D01*
X141581185Y-84318815D01*
X141484494Y-84239463D01*
X141374180Y-84180498D01*
X141254482Y-84144188D01*
X141130000Y-84131928D01*
X141040000Y-84131928D01*
X141040000Y-76647323D01*
X141043676Y-76610000D01*
X141040000Y-76572677D01*
X141040000Y-76572667D01*
X141029003Y-76461014D01*
X140985546Y-76317753D01*
X140956641Y-76263676D01*
X140914974Y-76185723D01*
X140843799Y-76098997D01*
X140820001Y-76069999D01*
X140791003Y-76046201D01*
X138063645Y-73318844D01*
X138085000Y-73211486D01*
X138085000Y-72948514D01*
X138033696Y-72690595D01*
X137933061Y-72447641D01*
X137786962Y-72228987D01*
X137601013Y-72043038D01*
X137382359Y-71896939D01*
X137139405Y-71796304D01*
X136881486Y-71745000D01*
X136618514Y-71745000D01*
X136360595Y-71796304D01*
X136117641Y-71896939D01*
X135898987Y-72043038D01*
X135713038Y-72228987D01*
X135566939Y-72447641D01*
X135466304Y-72690595D01*
X135415000Y-72948514D01*
X135415000Y-73211486D01*
X135436355Y-73318843D01*
X134390000Y-74365199D01*
X134390000Y-74258021D01*
X134373215Y-74087600D01*
X134306885Y-73868940D01*
X134199171Y-73667421D01*
X134054212Y-73490788D01*
X133990000Y-73438091D01*
X133990000Y-72017322D01*
X133993676Y-71979999D01*
X133990000Y-71942676D01*
X133990000Y-71942667D01*
X133979003Y-71831014D01*
X133935546Y-71687753D01*
X133864974Y-71555724D01*
X133770001Y-71439999D01*
X133741004Y-71416202D01*
X132083804Y-69759003D01*
X132060001Y-69729999D01*
X131974707Y-69660000D01*
X141026944Y-69660000D01*
X140886440Y-69870279D01*
G37*
%TD.AperFunction*%
D22*
X133766200Y-78431002D02*
X133766460Y-78431318D01*
X133718987Y-78463038D01*
X133533038Y-78648987D01*
X133386939Y-78867641D01*
X133286304Y-79110595D01*
X133235000Y-79368514D01*
X133235000Y-79631486D01*
X133286304Y-79889405D01*
X133386939Y-80132359D01*
X133533038Y-80351013D01*
X133718987Y-80536962D01*
X133937641Y-80683061D01*
X134180595Y-80783696D01*
X134438514Y-80835000D01*
X134701486Y-80835000D01*
X134959405Y-80783696D01*
X135202359Y-80683061D01*
X135421013Y-80536962D01*
X135606962Y-80351013D01*
X135667775Y-80260000D01*
X135722201Y-80260000D01*
X136685002Y-81222802D01*
X136685001Y-83100197D01*
X136290198Y-83495000D01*
X135459508Y-83495000D01*
X135248691Y-83515764D01*
X134978192Y-83597818D01*
X134728899Y-83731068D01*
X134560001Y-83869679D01*
X134560001Y-83545000D01*
X134631486Y-83545000D01*
X134889405Y-83493696D01*
X135132359Y-83393061D01*
X135351013Y-83246962D01*
X135536962Y-83061013D01*
X135683061Y-82842359D01*
X135783696Y-82599405D01*
X135835000Y-82341486D01*
X135835000Y-82078514D01*
X135783696Y-81820595D01*
X135683061Y-81577641D01*
X135536962Y-81358987D01*
X135351013Y-81173038D01*
X135132359Y-81026939D01*
X134889405Y-80926304D01*
X134631486Y-80875000D01*
X134368514Y-80875000D01*
X134110595Y-80926304D01*
X133867641Y-81026939D01*
X133648987Y-81173038D01*
X133463038Y-81358987D01*
X133316939Y-81577641D01*
X133216304Y-81820595D01*
X133165000Y-82078514D01*
X133165000Y-82341486D01*
X133188099Y-82457610D01*
X133165027Y-82485723D01*
X133156195Y-82502247D01*
X133094455Y-82617753D01*
X133050998Y-82761014D01*
X133040001Y-82872667D01*
X133040001Y-82872677D01*
X133036325Y-82909999D01*
X133040001Y-82947322D01*
X133040002Y-85302669D01*
X133036325Y-85340001D01*
X133050999Y-85488986D01*
X133094455Y-85632247D01*
X133165027Y-85764277D01*
X133226354Y-85839003D01*
X133260001Y-85880002D01*
X133288999Y-85903800D01*
X134234592Y-86849394D01*
X134197818Y-86918192D01*
X134115764Y-87188691D01*
X134088057Y-87470000D01*
X134115764Y-87751309D01*
X134197818Y-88021808D01*
X134331068Y-88271101D01*
X134510392Y-88489608D01*
X134728899Y-88668932D01*
X134861858Y-88740000D01*
X134728899Y-88811068D01*
X134510392Y-88990392D01*
X134331068Y-89208899D01*
X134307234Y-89253490D01*
X134231014Y-89260997D01*
X134087753Y-89304454D01*
X133955724Y-89375026D01*
X133839999Y-89469999D01*
X133816201Y-89498997D01*
X133329002Y-89986197D01*
X133299999Y-90009999D01*
X133267580Y-90049502D01*
X133205026Y-90125724D01*
X133134455Y-90257753D01*
X133134454Y-90257754D01*
X133090997Y-90401015D01*
X133080000Y-90512668D01*
X133080000Y-90512678D01*
X133076324Y-90550000D01*
X133080000Y-90587323D01*
X133080001Y-92195198D01*
X132875199Y-92400000D01*
X131964802Y-92400000D01*
X131340000Y-91775199D01*
X131340000Y-89777325D01*
X131343676Y-89740000D01*
X131340000Y-89702675D01*
X131340000Y-89702667D01*
X131329003Y-89591014D01*
X131285546Y-89447753D01*
X131214974Y-89315724D01*
X131120001Y-89199999D01*
X131091003Y-89176201D01*
X130005408Y-88090607D01*
X130042182Y-88021808D01*
X130124236Y-87751309D01*
X130136335Y-87628466D01*
X131161009Y-86603794D01*
X131190001Y-86580001D01*
X131213795Y-86551008D01*
X131213799Y-86551004D01*
X131284973Y-86464277D01*
X131284974Y-86464276D01*
X131355546Y-86332247D01*
X131399003Y-86188986D01*
X131410000Y-86077333D01*
X131410000Y-86077324D01*
X131413676Y-86040001D01*
X131410000Y-86002678D01*
X131410000Y-83477325D01*
X131413676Y-83440000D01*
X131410000Y-83402675D01*
X131410000Y-83402667D01*
X131399003Y-83291014D01*
X131355546Y-83147753D01*
X131284974Y-83015724D01*
X131190001Y-82899999D01*
X131161003Y-82876201D01*
X130733645Y-82448843D01*
X130755000Y-82341486D01*
X130755000Y-82078514D01*
X130703696Y-81820595D01*
X130603061Y-81577641D01*
X130456962Y-81358987D01*
X130271013Y-81173038D01*
X130052359Y-81026939D01*
X129809405Y-80926304D01*
X129551486Y-80875000D01*
X129288514Y-80875000D01*
X129181156Y-80896355D01*
X129045800Y-80760999D01*
X129100595Y-80783696D01*
X129358514Y-80835000D01*
X129621486Y-80835000D01*
X129879405Y-80783696D01*
X130122359Y-80683061D01*
X130341013Y-80536962D01*
X130526962Y-80351013D01*
X130673061Y-80132359D01*
X130773696Y-79889405D01*
X130825000Y-79631486D01*
X130825000Y-79368514D01*
X130773696Y-79110595D01*
X130673061Y-78867641D01*
X130526962Y-78648987D01*
X130341013Y-78463038D01*
X130122359Y-78316939D01*
X129879405Y-78216304D01*
X129621486Y-78165000D01*
X129358514Y-78165000D01*
X129251157Y-78186355D01*
X129104801Y-78040000D01*
X133375199Y-78040000D01*
X133766200Y-78431002D01*
%TA.AperFunction,Conductor*%
D23*
G36*
X133766200Y-78431002D02*
G01*
X133766460Y-78431318D01*
X133718987Y-78463038D01*
X133533038Y-78648987D01*
X133386939Y-78867641D01*
X133286304Y-79110595D01*
X133235000Y-79368514D01*
X133235000Y-79631486D01*
X133286304Y-79889405D01*
X133386939Y-80132359D01*
X133533038Y-80351013D01*
X133718987Y-80536962D01*
X133937641Y-80683061D01*
X134180595Y-80783696D01*
X134438514Y-80835000D01*
X134701486Y-80835000D01*
X134959405Y-80783696D01*
X135202359Y-80683061D01*
X135421013Y-80536962D01*
X135606962Y-80351013D01*
X135667775Y-80260000D01*
X135722201Y-80260000D01*
X136685002Y-81222802D01*
X136685001Y-83100197D01*
X136290198Y-83495000D01*
X135459508Y-83495000D01*
X135248691Y-83515764D01*
X134978192Y-83597818D01*
X134728899Y-83731068D01*
X134560001Y-83869679D01*
X134560001Y-83545000D01*
X134631486Y-83545000D01*
X134889405Y-83493696D01*
X135132359Y-83393061D01*
X135351013Y-83246962D01*
X135536962Y-83061013D01*
X135683061Y-82842359D01*
X135783696Y-82599405D01*
X135835000Y-82341486D01*
X135835000Y-82078514D01*
X135783696Y-81820595D01*
X135683061Y-81577641D01*
X135536962Y-81358987D01*
X135351013Y-81173038D01*
X135132359Y-81026939D01*
X134889405Y-80926304D01*
X134631486Y-80875000D01*
X134368514Y-80875000D01*
X134110595Y-80926304D01*
X133867641Y-81026939D01*
X133648987Y-81173038D01*
X133463038Y-81358987D01*
X133316939Y-81577641D01*
X133216304Y-81820595D01*
X133165000Y-82078514D01*
X133165000Y-82341486D01*
X133188099Y-82457610D01*
X133165027Y-82485723D01*
X133156195Y-82502247D01*
X133094455Y-82617753D01*
X133050998Y-82761014D01*
X133040001Y-82872667D01*
X133040001Y-82872677D01*
X133036325Y-82909999D01*
X133040001Y-82947322D01*
X133040002Y-85302669D01*
X133036325Y-85340001D01*
X133050999Y-85488986D01*
X133094455Y-85632247D01*
X133165027Y-85764277D01*
X133226354Y-85839003D01*
X133260001Y-85880002D01*
X133288999Y-85903800D01*
X134234592Y-86849394D01*
X134197818Y-86918192D01*
X134115764Y-87188691D01*
X134088057Y-87470000D01*
X134115764Y-87751309D01*
X134197818Y-88021808D01*
X134331068Y-88271101D01*
X134510392Y-88489608D01*
X134728899Y-88668932D01*
X134861858Y-88740000D01*
X134728899Y-88811068D01*
X134510392Y-88990392D01*
X134331068Y-89208899D01*
X134307234Y-89253490D01*
X134231014Y-89260997D01*
X134087753Y-89304454D01*
X133955724Y-89375026D01*
X133839999Y-89469999D01*
X133816201Y-89498997D01*
X133329002Y-89986197D01*
X133299999Y-90009999D01*
X133267580Y-90049502D01*
X133205026Y-90125724D01*
X133134455Y-90257753D01*
X133134454Y-90257754D01*
X133090997Y-90401015D01*
X133080000Y-90512668D01*
X133080000Y-90512678D01*
X133076324Y-90550000D01*
X133080000Y-90587323D01*
X133080001Y-92195198D01*
X132875199Y-92400000D01*
X131964802Y-92400000D01*
X131340000Y-91775199D01*
X131340000Y-89777325D01*
X131343676Y-89740000D01*
X131340000Y-89702675D01*
X131340000Y-89702667D01*
X131329003Y-89591014D01*
X131285546Y-89447753D01*
X131214974Y-89315724D01*
X131120001Y-89199999D01*
X131091003Y-89176201D01*
X130005408Y-88090607D01*
X130042182Y-88021808D01*
X130124236Y-87751309D01*
X130136335Y-87628466D01*
X131161009Y-86603794D01*
X131190001Y-86580001D01*
X131213795Y-86551008D01*
X131213799Y-86551004D01*
X131284973Y-86464277D01*
X131284974Y-86464276D01*
X131355546Y-86332247D01*
X131399003Y-86188986D01*
X131410000Y-86077333D01*
X131410000Y-86077324D01*
X131413676Y-86040001D01*
X131410000Y-86002678D01*
X131410000Y-83477325D01*
X131413676Y-83440000D01*
X131410000Y-83402675D01*
X131410000Y-83402667D01*
X131399003Y-83291014D01*
X131355546Y-83147753D01*
X131284974Y-83015724D01*
X131190001Y-82899999D01*
X131161003Y-82876201D01*
X130733645Y-82448843D01*
X130755000Y-82341486D01*
X130755000Y-82078514D01*
X130703696Y-81820595D01*
X130603061Y-81577641D01*
X130456962Y-81358987D01*
X130271013Y-81173038D01*
X130052359Y-81026939D01*
X129809405Y-80926304D01*
X129551486Y-80875000D01*
X129288514Y-80875000D01*
X129181156Y-80896355D01*
X129045800Y-80760999D01*
X129100595Y-80783696D01*
X129358514Y-80835000D01*
X129621486Y-80835000D01*
X129879405Y-80783696D01*
X130122359Y-80683061D01*
X130341013Y-80536962D01*
X130526962Y-80351013D01*
X130673061Y-80132359D01*
X130773696Y-79889405D01*
X130825000Y-79631486D01*
X130825000Y-79368514D01*
X130773696Y-79110595D01*
X130673061Y-78867641D01*
X130526962Y-78648987D01*
X130341013Y-78463038D01*
X130122359Y-78316939D01*
X129879405Y-78216304D01*
X129621486Y-78165000D01*
X129358514Y-78165000D01*
X129251157Y-78186355D01*
X129104801Y-78040000D01*
X133375199Y-78040000D01*
X133766200Y-78431002D01*
G37*
%TD.AperFunction*%
D22*
X121676200Y-84151002D02*
X121699999Y-84180001D01*
X121728997Y-84203799D01*
X121815723Y-84274974D01*
X121939244Y-84340998D01*
X121947753Y-84345546D01*
X122091014Y-84389003D01*
X122202667Y-84400000D01*
X122202676Y-84400000D01*
X122239999Y-84403676D01*
X122277322Y-84400000D01*
X124832025Y-84400000D01*
X124753038Y-84478987D01*
X124606939Y-84697641D01*
X124506304Y-84940595D01*
X124455000Y-85198514D01*
X124455000Y-85461486D01*
X124506304Y-85719405D01*
X124606939Y-85962359D01*
X124753038Y-86181013D01*
X124938987Y-86366962D01*
X125157641Y-86513061D01*
X125400595Y-86613696D01*
X125658514Y-86665000D01*
X125921486Y-86665000D01*
X126179405Y-86613696D01*
X126422359Y-86513061D01*
X126641013Y-86366962D01*
X126751075Y-86256900D01*
X126755506Y-86260537D01*
X126865820Y-86319502D01*
X126985518Y-86355812D01*
X127003482Y-86357581D01*
X126890392Y-86450392D01*
X126711068Y-86668899D01*
X126577818Y-86918192D01*
X126495764Y-87188691D01*
X126468057Y-87470000D01*
X126495764Y-87751309D01*
X126525701Y-87850000D01*
X126128072Y-87850000D01*
X126128072Y-87760000D01*
X126115812Y-87635518D01*
X126079502Y-87515820D01*
X126020537Y-87405506D01*
X125941185Y-87308815D01*
X125844494Y-87229463D01*
X125734180Y-87170498D01*
X125614482Y-87134188D01*
X125490000Y-87121928D01*
X123790000Y-87121928D01*
X123665518Y-87134188D01*
X123545820Y-87170498D01*
X123435506Y-87229463D01*
X123338815Y-87308815D01*
X123259463Y-87405506D01*
X123200498Y-87515820D01*
X123176034Y-87596466D01*
X123100269Y-87512412D01*
X122866920Y-87338359D01*
X122604099Y-87213175D01*
X122456890Y-87168524D01*
X122227000Y-87289845D01*
X122227000Y-88483000D01*
X122247000Y-88483000D01*
X122247000Y-88737000D01*
X122227000Y-88737000D01*
X122227000Y-89930155D01*
X122456890Y-90051476D01*
X122604099Y-90006825D01*
X122866920Y-89881641D01*
X123100269Y-89707588D01*
X123176034Y-89623534D01*
X123200498Y-89704180D01*
X123259463Y-89814494D01*
X123338815Y-89911185D01*
X123435506Y-89990537D01*
X123545820Y-90049502D01*
X123665518Y-90085812D01*
X123790000Y-90098072D01*
X125490000Y-90098072D01*
X125614482Y-90085812D01*
X125734180Y-90049502D01*
X125844494Y-89990537D01*
X125941185Y-89911185D01*
X126020537Y-89814494D01*
X126079502Y-89704180D01*
X126115812Y-89584482D01*
X126128072Y-89460000D01*
X126128072Y-89370000D01*
X126595199Y-89370000D01*
X126614592Y-89389393D01*
X126577818Y-89458192D01*
X126495764Y-89728691D01*
X126468057Y-90010000D01*
X126495764Y-90291309D01*
X126577818Y-90561808D01*
X126711068Y-90811101D01*
X126890392Y-91029608D01*
X127108899Y-91208932D01*
X127241858Y-91280000D01*
X127108899Y-91351068D01*
X126890392Y-91530392D01*
X126711068Y-91748899D01*
X126689099Y-91790000D01*
X120134802Y-91790000D01*
X119230000Y-90885199D01*
X119230000Y-88966891D01*
X120658519Y-88966891D01*
X120755843Y-89241252D01*
X120904822Y-89491355D01*
X121099731Y-89707588D01*
X121333080Y-89881641D01*
X121595901Y-90006825D01*
X121743110Y-90051476D01*
X121973000Y-89930155D01*
X121973000Y-88737000D01*
X120779186Y-88737000D01*
X120658519Y-88966891D01*
X119230000Y-88966891D01*
X119230000Y-88253109D01*
X120658519Y-88253109D01*
X120779186Y-88483000D01*
X121973000Y-88483000D01*
X121973000Y-87289845D01*
X121743110Y-87168524D01*
X121595901Y-87213175D01*
X121333080Y-87338359D01*
X121099731Y-87512412D01*
X120904822Y-87728645D01*
X120755843Y-87978748D01*
X120658519Y-88253109D01*
X119230000Y-88253109D01*
X119230000Y-85663329D01*
X119417284Y-85663329D01*
X119449953Y-85771044D01*
X119560208Y-86008392D01*
X119714649Y-86219670D01*
X119907340Y-86396759D01*
X120130877Y-86532853D01*
X120376670Y-86622722D01*
X120583000Y-86500201D01*
X120583000Y-85457000D01*
X120837000Y-85457000D01*
X120837000Y-86500201D01*
X121043330Y-86622722D01*
X121289123Y-86532853D01*
X121512660Y-86396759D01*
X121705351Y-86219670D01*
X121859792Y-86008392D01*
X121970047Y-85771044D01*
X122002716Y-85663329D01*
X121879374Y-85457000D01*
X120837000Y-85457000D01*
X120583000Y-85457000D01*
X119540626Y-85457000D01*
X119417284Y-85663329D01*
X119230000Y-85663329D01*
X119230000Y-84996671D01*
X119417284Y-84996671D01*
X119540626Y-85203000D01*
X120583000Y-85203000D01*
X120583000Y-84159799D01*
X120837000Y-84159799D01*
X120837000Y-85203000D01*
X121879374Y-85203000D01*
X122002716Y-84996671D01*
X121970047Y-84888956D01*
X121859792Y-84651608D01*
X121705351Y-84440330D01*
X121512660Y-84263241D01*
X121289123Y-84127147D01*
X121043330Y-84037278D01*
X120837000Y-84159799D01*
X120583000Y-84159799D01*
X120376670Y-84037278D01*
X120130877Y-84127147D01*
X119907340Y-84263241D01*
X119714649Y-84440330D01*
X119560208Y-84651608D01*
X119449953Y-84888956D01*
X119417284Y-84996671D01*
X119230000Y-84996671D01*
X119230000Y-83204801D01*
X119980000Y-82454801D01*
X121676200Y-84151002D01*
%TA.AperFunction,Conductor*%
D23*
G36*
X121676200Y-84151002D02*
G01*
X121699999Y-84180001D01*
X121728997Y-84203799D01*
X121815723Y-84274974D01*
X121939244Y-84340998D01*
X121947753Y-84345546D01*
X122091014Y-84389003D01*
X122202667Y-84400000D01*
X122202676Y-84400000D01*
X122239999Y-84403676D01*
X122277322Y-84400000D01*
X124832025Y-84400000D01*
X124753038Y-84478987D01*
X124606939Y-84697641D01*
X124506304Y-84940595D01*
X124455000Y-85198514D01*
X124455000Y-85461486D01*
X124506304Y-85719405D01*
X124606939Y-85962359D01*
X124753038Y-86181013D01*
X124938987Y-86366962D01*
X125157641Y-86513061D01*
X125400595Y-86613696D01*
X125658514Y-86665000D01*
X125921486Y-86665000D01*
X126179405Y-86613696D01*
X126422359Y-86513061D01*
X126641013Y-86366962D01*
X126751075Y-86256900D01*
X126755506Y-86260537D01*
X126865820Y-86319502D01*
X126985518Y-86355812D01*
X127003482Y-86357581D01*
X126890392Y-86450392D01*
X126711068Y-86668899D01*
X126577818Y-86918192D01*
X126495764Y-87188691D01*
X126468057Y-87470000D01*
X126495764Y-87751309D01*
X126525701Y-87850000D01*
X126128072Y-87850000D01*
X126128072Y-87760000D01*
X126115812Y-87635518D01*
X126079502Y-87515820D01*
X126020537Y-87405506D01*
X125941185Y-87308815D01*
X125844494Y-87229463D01*
X125734180Y-87170498D01*
X125614482Y-87134188D01*
X125490000Y-87121928D01*
X123790000Y-87121928D01*
X123665518Y-87134188D01*
X123545820Y-87170498D01*
X123435506Y-87229463D01*
X123338815Y-87308815D01*
X123259463Y-87405506D01*
X123200498Y-87515820D01*
X123176034Y-87596466D01*
X123100269Y-87512412D01*
X122866920Y-87338359D01*
X122604099Y-87213175D01*
X122456890Y-87168524D01*
X122227000Y-87289845D01*
X122227000Y-88483000D01*
X122247000Y-88483000D01*
X122247000Y-88737000D01*
X122227000Y-88737000D01*
X122227000Y-89930155D01*
X122456890Y-90051476D01*
X122604099Y-90006825D01*
X122866920Y-89881641D01*
X123100269Y-89707588D01*
X123176034Y-89623534D01*
X123200498Y-89704180D01*
X123259463Y-89814494D01*
X123338815Y-89911185D01*
X123435506Y-89990537D01*
X123545820Y-90049502D01*
X123665518Y-90085812D01*
X123790000Y-90098072D01*
X125490000Y-90098072D01*
X125614482Y-90085812D01*
X125734180Y-90049502D01*
X125844494Y-89990537D01*
X125941185Y-89911185D01*
X126020537Y-89814494D01*
X126079502Y-89704180D01*
X126115812Y-89584482D01*
X126128072Y-89460000D01*
X126128072Y-89370000D01*
X126595199Y-89370000D01*
X126614592Y-89389393D01*
X126577818Y-89458192D01*
X126495764Y-89728691D01*
X126468057Y-90010000D01*
X126495764Y-90291309D01*
X126577818Y-90561808D01*
X126711068Y-90811101D01*
X126890392Y-91029608D01*
X127108899Y-91208932D01*
X127241858Y-91280000D01*
X127108899Y-91351068D01*
X126890392Y-91530392D01*
X126711068Y-91748899D01*
X126689099Y-91790000D01*
X120134802Y-91790000D01*
X119230000Y-90885199D01*
X119230000Y-88966891D01*
X120658519Y-88966891D01*
X120755843Y-89241252D01*
X120904822Y-89491355D01*
X121099731Y-89707588D01*
X121333080Y-89881641D01*
X121595901Y-90006825D01*
X121743110Y-90051476D01*
X121973000Y-89930155D01*
X121973000Y-88737000D01*
X120779186Y-88737000D01*
X120658519Y-88966891D01*
X119230000Y-88966891D01*
X119230000Y-88253109D01*
X120658519Y-88253109D01*
X120779186Y-88483000D01*
X121973000Y-88483000D01*
X121973000Y-87289845D01*
X121743110Y-87168524D01*
X121595901Y-87213175D01*
X121333080Y-87338359D01*
X121099731Y-87512412D01*
X120904822Y-87728645D01*
X120755843Y-87978748D01*
X120658519Y-88253109D01*
X119230000Y-88253109D01*
X119230000Y-85663329D01*
X119417284Y-85663329D01*
X119449953Y-85771044D01*
X119560208Y-86008392D01*
X119714649Y-86219670D01*
X119907340Y-86396759D01*
X120130877Y-86532853D01*
X120376670Y-86622722D01*
X120583000Y-86500201D01*
X120583000Y-85457000D01*
X120837000Y-85457000D01*
X120837000Y-86500201D01*
X121043330Y-86622722D01*
X121289123Y-86532853D01*
X121512660Y-86396759D01*
X121705351Y-86219670D01*
X121859792Y-86008392D01*
X121970047Y-85771044D01*
X122002716Y-85663329D01*
X121879374Y-85457000D01*
X120837000Y-85457000D01*
X120583000Y-85457000D01*
X119540626Y-85457000D01*
X119417284Y-85663329D01*
X119230000Y-85663329D01*
X119230000Y-84996671D01*
X119417284Y-84996671D01*
X119540626Y-85203000D01*
X120583000Y-85203000D01*
X120583000Y-84159799D01*
X120837000Y-84159799D01*
X120837000Y-85203000D01*
X121879374Y-85203000D01*
X122002716Y-84996671D01*
X121970047Y-84888956D01*
X121859792Y-84651608D01*
X121705351Y-84440330D01*
X121512660Y-84263241D01*
X121289123Y-84127147D01*
X121043330Y-84037278D01*
X120837000Y-84159799D01*
X120583000Y-84159799D01*
X120376670Y-84037278D01*
X120130877Y-84127147D01*
X119907340Y-84263241D01*
X119714649Y-84440330D01*
X119560208Y-84651608D01*
X119449953Y-84888956D01*
X119417284Y-84996671D01*
X119230000Y-84996671D01*
X119230000Y-83204801D01*
X119980000Y-82454801D01*
X121676200Y-84151002D01*
G37*
%TD.AperFunction*%
D22*
X131234973Y-71059774D02*
X131232678Y-71060000D01*
X123987323Y-71060000D01*
X123950000Y-71056324D01*
X123912677Y-71060000D01*
X123912667Y-71060000D01*
X123801014Y-71070997D01*
X123657753Y-71114454D01*
X123525724Y-71185026D01*
X123409999Y-71279999D01*
X123386201Y-71308997D01*
X121123997Y-73571202D01*
X121094999Y-73595000D01*
X121071201Y-73623998D01*
X121071200Y-73623999D01*
X121000025Y-73710725D01*
X120929453Y-73842755D01*
X120921510Y-73868941D01*
X120889339Y-73975000D01*
X120885997Y-73986016D01*
X120871323Y-74135001D01*
X120875000Y-74172333D01*
X120874999Y-76314086D01*
X120871323Y-76351409D01*
X120874999Y-76388731D01*
X120874999Y-76388741D01*
X120885996Y-76500394D01*
X120919244Y-76610000D01*
X120929453Y-76643655D01*
X121000025Y-76775685D01*
X121039870Y-76824235D01*
X121094998Y-76891410D01*
X121124002Y-76915213D01*
X122449804Y-78241016D01*
X122473598Y-78270009D01*
X122502591Y-78293803D01*
X122502596Y-78293808D01*
X122589323Y-78364983D01*
X122721352Y-78435555D01*
X122864613Y-78479011D01*
X123013599Y-78493685D01*
X123050931Y-78490008D01*
X124050401Y-78490009D01*
X124080234Y-78519842D01*
X123856652Y-78567148D01*
X123755763Y-78788516D01*
X123700000Y-79025313D01*
X123691505Y-79268438D01*
X123730605Y-79508549D01*
X123815798Y-79736418D01*
X123856652Y-79812852D01*
X124080234Y-79860158D01*
X123963128Y-79977264D01*
X124021006Y-80035142D01*
X123975506Y-80059463D01*
X123878815Y-80138815D01*
X123799463Y-80235506D01*
X123740498Y-80345820D01*
X123704188Y-80465518D01*
X123691928Y-80590000D01*
X123691928Y-81790000D01*
X123704188Y-81914482D01*
X123740498Y-82034180D01*
X123799463Y-82144494D01*
X123878815Y-82241185D01*
X123975506Y-82320537D01*
X124085820Y-82379502D01*
X124205518Y-82415812D01*
X124330000Y-82428072D01*
X125530000Y-82428072D01*
X125654482Y-82415812D01*
X125774180Y-82379502D01*
X125884494Y-82320537D01*
X125981185Y-82241185D01*
X126060537Y-82144494D01*
X126119502Y-82034180D01*
X126145038Y-81950000D01*
X128085199Y-81950000D01*
X128106355Y-81971156D01*
X128085000Y-82078514D01*
X128085000Y-82341486D01*
X128136304Y-82599405D01*
X128236939Y-82842359D01*
X128383038Y-83061013D01*
X128568987Y-83246962D01*
X128787641Y-83393061D01*
X129030219Y-83493540D01*
X128595750Y-83495000D01*
X128437000Y-83653750D01*
X128437000Y-84803000D01*
X128457000Y-84803000D01*
X128457000Y-85057000D01*
X128437000Y-85057000D01*
X128437000Y-85077000D01*
X128183000Y-85077000D01*
X128183000Y-85057000D01*
X128163000Y-85057000D01*
X128163000Y-84803000D01*
X128183000Y-84803000D01*
X128183000Y-83653750D01*
X128024250Y-83495000D01*
X127110000Y-83491928D01*
X126985518Y-83504188D01*
X126865820Y-83540498D01*
X126755506Y-83599463D01*
X126658815Y-83678815D01*
X126579463Y-83775506D01*
X126520498Y-83885820D01*
X126497112Y-83962914D01*
X126495546Y-83957753D01*
X126424974Y-83825724D01*
X126330001Y-83709999D01*
X126301002Y-83686200D01*
X125743803Y-83129002D01*
X125720001Y-83099999D01*
X125604276Y-83005026D01*
X125472247Y-82934454D01*
X125328986Y-82890997D01*
X125217333Y-82880000D01*
X125217322Y-82880000D01*
X125180000Y-82876324D01*
X125142678Y-82880000D01*
X122554802Y-82880000D01*
X120780000Y-81105199D01*
X120780000Y-73324801D01*
X123074802Y-71030000D01*
X131205199Y-71030000D01*
X131234973Y-71059774D01*
%TA.AperFunction,Conductor*%
D23*
G36*
X131234973Y-71059774D02*
G01*
X131232678Y-71060000D01*
X123987323Y-71060000D01*
X123950000Y-71056324D01*
X123912677Y-71060000D01*
X123912667Y-71060000D01*
X123801014Y-71070997D01*
X123657753Y-71114454D01*
X123525724Y-71185026D01*
X123409999Y-71279999D01*
X123386201Y-71308997D01*
X121123997Y-73571202D01*
X121094999Y-73595000D01*
X121071201Y-73623998D01*
X121071200Y-73623999D01*
X121000025Y-73710725D01*
X120929453Y-73842755D01*
X120921510Y-73868941D01*
X120889339Y-73975000D01*
X120885997Y-73986016D01*
X120871323Y-74135001D01*
X120875000Y-74172333D01*
X120874999Y-76314086D01*
X120871323Y-76351409D01*
X120874999Y-76388731D01*
X120874999Y-76388741D01*
X120885996Y-76500394D01*
X120919244Y-76610000D01*
X120929453Y-76643655D01*
X121000025Y-76775685D01*
X121039870Y-76824235D01*
X121094998Y-76891410D01*
X121124002Y-76915213D01*
X122449804Y-78241016D01*
X122473598Y-78270009D01*
X122502591Y-78293803D01*
X122502596Y-78293808D01*
X122589323Y-78364983D01*
X122721352Y-78435555D01*
X122864613Y-78479011D01*
X123013599Y-78493685D01*
X123050931Y-78490008D01*
X124050401Y-78490009D01*
X124080234Y-78519842D01*
X123856652Y-78567148D01*
X123755763Y-78788516D01*
X123700000Y-79025313D01*
X123691505Y-79268438D01*
X123730605Y-79508549D01*
X123815798Y-79736418D01*
X123856652Y-79812852D01*
X124080234Y-79860158D01*
X123963128Y-79977264D01*
X124021006Y-80035142D01*
X123975506Y-80059463D01*
X123878815Y-80138815D01*
X123799463Y-80235506D01*
X123740498Y-80345820D01*
X123704188Y-80465518D01*
X123691928Y-80590000D01*
X123691928Y-81790000D01*
X123704188Y-81914482D01*
X123740498Y-82034180D01*
X123799463Y-82144494D01*
X123878815Y-82241185D01*
X123975506Y-82320537D01*
X124085820Y-82379502D01*
X124205518Y-82415812D01*
X124330000Y-82428072D01*
X125530000Y-82428072D01*
X125654482Y-82415812D01*
X125774180Y-82379502D01*
X125884494Y-82320537D01*
X125981185Y-82241185D01*
X126060537Y-82144494D01*
X126119502Y-82034180D01*
X126145038Y-81950000D01*
X128085199Y-81950000D01*
X128106355Y-81971156D01*
X128085000Y-82078514D01*
X128085000Y-82341486D01*
X128136304Y-82599405D01*
X128236939Y-82842359D01*
X128383038Y-83061013D01*
X128568987Y-83246962D01*
X128787641Y-83393061D01*
X129030219Y-83493540D01*
X128595750Y-83495000D01*
X128437000Y-83653750D01*
X128437000Y-84803000D01*
X128457000Y-84803000D01*
X128457000Y-85057000D01*
X128437000Y-85057000D01*
X128437000Y-85077000D01*
X128183000Y-85077000D01*
X128183000Y-85057000D01*
X128163000Y-85057000D01*
X128163000Y-84803000D01*
X128183000Y-84803000D01*
X128183000Y-83653750D01*
X128024250Y-83495000D01*
X127110000Y-83491928D01*
X126985518Y-83504188D01*
X126865820Y-83540498D01*
X126755506Y-83599463D01*
X126658815Y-83678815D01*
X126579463Y-83775506D01*
X126520498Y-83885820D01*
X126497112Y-83962914D01*
X126495546Y-83957753D01*
X126424974Y-83825724D01*
X126330001Y-83709999D01*
X126301002Y-83686200D01*
X125743803Y-83129002D01*
X125720001Y-83099999D01*
X125604276Y-83005026D01*
X125472247Y-82934454D01*
X125328986Y-82890997D01*
X125217333Y-82880000D01*
X125217322Y-82880000D01*
X125180000Y-82876324D01*
X125142678Y-82880000D01*
X122554802Y-82880000D01*
X120780000Y-81105199D01*
X120780000Y-73324801D01*
X123074802Y-71030000D01*
X131205199Y-71030000D01*
X131234973Y-71059774D01*
G37*
%TD.AperFunction*%
D22*
X125123748Y-79175858D02*
X125109605Y-79190000D01*
X125123748Y-79204143D01*
X124944143Y-79383748D01*
X124930000Y-79369605D01*
X124915858Y-79383748D01*
X124736253Y-79204143D01*
X124750395Y-79190000D01*
X124736253Y-79175858D01*
X124915858Y-78996253D01*
X124930000Y-79010395D01*
X124944143Y-78996253D01*
X125123748Y-79175858D01*
%TA.AperFunction,Conductor*%
D23*
G36*
X125123748Y-79175858D02*
G01*
X125109605Y-79190000D01*
X125123748Y-79204143D01*
X124944143Y-79383748D01*
X124930000Y-79369605D01*
X124915858Y-79383748D01*
X124736253Y-79204143D01*
X124750395Y-79190000D01*
X124736253Y-79175858D01*
X124915858Y-78996253D01*
X124930000Y-79010395D01*
X124944143Y-78996253D01*
X125123748Y-79175858D01*
G37*
%TD.AperFunction*%
%TD*%
M02*
