%TF.GenerationSoftware,KiCad,Pcbnew,(5.1.12)-1*%
%TF.CreationDate,2023-08-22T21:21:53+05:30*%
%TF.ProjectId,SINGLE CHANNEL RELAY MODULE,53494e47-4c45-4204-9348-414e4e454c20,rev?*%
%TF.SameCoordinates,Original*%
%TF.FileFunction,Copper,L2,Bot*%
%TF.FilePolarity,Positive*%
%FSLAX46Y46*%
G04 Gerber Fmt 4.6, Leading zero omitted, Abs format (unit mm)*
G04 Created by KiCad (PCBNEW (5.1.12)-1) date 2023-08-22 21:21:53*
%MOMM*%
%LPD*%
G01*
G04 APERTURE LIST*
%TA.AperFunction,ComponentPad*%
%ADD10O,2.800000X2.800000*%
%TD*%
%TA.AperFunction,ComponentPad*%
%ADD11R,2.800000X2.800000*%
%TD*%
%TA.AperFunction,ComponentPad*%
%ADD12C,1.200000*%
%TD*%
%TA.AperFunction,ComponentPad*%
%ADD13R,1.200000X1.200000*%
%TD*%
%TA.AperFunction,ComponentPad*%
%ADD14O,1.400000X1.400000*%
%TD*%
%TA.AperFunction,ComponentPad*%
%ADD15C,1.400000*%
%TD*%
%TA.AperFunction,ComponentPad*%
%ADD16R,1.050000X1.500000*%
%TD*%
%TA.AperFunction,ComponentPad*%
%ADD17O,1.050000X1.500000*%
%TD*%
%TA.AperFunction,ComponentPad*%
%ADD18C,1.508000*%
%TD*%
%TA.AperFunction,ComponentPad*%
%ADD19O,1.700000X1.700000*%
%TD*%
%TA.AperFunction,ComponentPad*%
%ADD20R,1.700000X1.700000*%
%TD*%
%TA.AperFunction,ComponentPad*%
%ADD21C,1.800000*%
%TD*%
%TA.AperFunction,ComponentPad*%
%ADD22R,1.800000X1.800000*%
%TD*%
%TA.AperFunction,ViaPad*%
%ADD23C,3.500000*%
%TD*%
%TA.AperFunction,Conductor*%
%ADD24C,0.250000*%
%TD*%
%TA.AperFunction,Conductor*%
%ADD25C,0.254000*%
%TD*%
%TA.AperFunction,Conductor*%
%ADD26C,0.100000*%
%TD*%
G04 APERTURE END LIST*
D10*
%TO.P,D2,2*%
%TO.N,VCC*%
X160880000Y-77450000D03*
D11*
%TO.P,D2,1*%
%TO.N,Net-(D1-Pad1)*%
X160880000Y-82530000D03*
%TD*%
D12*
%TO.P,C1,2*%
%TO.N,Earth*%
X156020000Y-79140000D03*
D13*
%TO.P,C1,1*%
%TO.N,VCC*%
X156020000Y-77140000D03*
%TD*%
D14*
%TO.P,R2,2*%
%TO.N,Net-(J1-Pad1)*%
X143350000Y-77070000D03*
D15*
%TO.P,R2,1*%
%TO.N,Net-(Q1-Pad2)*%
X143350000Y-82150000D03*
%TD*%
D14*
%TO.P,R1,2*%
%TO.N,Net-(D1-Pad2)*%
X146690000Y-82050000D03*
D15*
%TO.P,R1,1*%
%TO.N,VCC*%
X146690000Y-76970000D03*
%TD*%
D16*
%TO.P,Q1,1*%
%TO.N,Net-(D1-Pad1)*%
X151660000Y-83600000D03*
D17*
%TO.P,Q1,3*%
%TO.N,Earth*%
X154200000Y-83600000D03*
%TO.P,Q1,2*%
%TO.N,Net-(Q1-Pad2)*%
X152930000Y-83600000D03*
%TD*%
D18*
%TO.P,K1,12*%
%TO.N,Net-(J2-Pad3)*%
X159890000Y-95440000D03*
%TO.P,K1,14*%
%TO.N,Net-(J2-Pad1)*%
X157390000Y-95440000D03*
%TO.P,K1,A1*%
%TO.N,Net-(D1-Pad1)*%
X159890000Y-87840000D03*
%TO.P,K1,A2*%
%TO.N,VCC*%
X157390000Y-87840000D03*
%TO.P,K1,11*%
%TO.N,Net-(J2-Pad2)*%
X147290000Y-87840000D03*
%TD*%
D19*
%TO.P,J2,3*%
%TO.N,Net-(J2-Pad3)*%
X164390000Y-94820000D03*
%TO.P,J2,2*%
%TO.N,Net-(J2-Pad2)*%
X164390000Y-92280000D03*
D20*
%TO.P,J2,1*%
%TO.N,Net-(J2-Pad1)*%
X164390000Y-89740000D03*
%TD*%
D19*
%TO.P,J1,3*%
%TO.N,VCC*%
X143000000Y-85920000D03*
%TO.P,J1,2*%
%TO.N,Earth*%
X143000000Y-88460000D03*
D20*
%TO.P,J1,1*%
%TO.N,Net-(J1-Pad1)*%
X143000000Y-91000000D03*
%TD*%
D21*
%TO.P,D1,2*%
%TO.N,Net-(D1-Pad2)*%
X149790000Y-78250000D03*
D22*
%TO.P,D1,1*%
%TO.N,Net-(D1-Pad1)*%
X152330000Y-78250000D03*
%TD*%
D23*
%TO.N,*%
X140000000Y-75000000D03*
X171000000Y-75000000D03*
X140000000Y-100000000D03*
X171000000Y-100000000D03*
%TD*%
D24*
%TO.N,VCC*%
X160570000Y-77140000D02*
X160880000Y-77450000D01*
X156020000Y-77140000D02*
X160570000Y-77140000D01*
X146690000Y-76970000D02*
X146690000Y-75660000D01*
X146690000Y-75660000D02*
X147340000Y-75010000D01*
X147340000Y-75010000D02*
X155600000Y-75010000D01*
X156020000Y-75430000D02*
X156020000Y-77140000D01*
X155600000Y-75010000D02*
X156020000Y-75430000D01*
X162680000Y-77450000D02*
X160880000Y-77450000D01*
X163460000Y-87340000D02*
X163460000Y-78230000D01*
X161890000Y-88910000D02*
X163460000Y-87340000D01*
X160416922Y-88910000D02*
X161890000Y-88910000D01*
X160407921Y-88919001D02*
X160416922Y-88910000D01*
X159372079Y-88919001D02*
X160407921Y-88919001D01*
X159363078Y-88910000D02*
X159372079Y-88919001D01*
X157780000Y-88910000D02*
X159363078Y-88910000D01*
X163460000Y-78230000D02*
X162680000Y-77450000D01*
X157390000Y-88520000D02*
X157780000Y-88910000D01*
X157390000Y-87840000D02*
X157390000Y-88520000D01*
X146690000Y-77225000D02*
X146690000Y-76970000D01*
X145755000Y-78160000D02*
X146690000Y-77225000D01*
X141600000Y-78160000D02*
X145755000Y-78160000D01*
X141030000Y-78730000D02*
X141600000Y-78160000D01*
X141030000Y-85540000D02*
X141030000Y-78730000D01*
X141410000Y-85920000D02*
X141030000Y-85540000D01*
X143000000Y-85920000D02*
X141410000Y-85920000D01*
%TO.N,Net-(D1-Pad2)*%
X149640000Y-78100000D02*
X149790000Y-78250000D01*
X146690000Y-82050000D02*
X149060000Y-82050000D01*
X149790000Y-81320000D02*
X149790000Y-78250000D01*
X149060000Y-82050000D02*
X149790000Y-81320000D01*
%TO.N,Net-(D1-Pad1)*%
X159890000Y-83520000D02*
X160880000Y-82530000D01*
X151660000Y-78920000D02*
X152330000Y-78250000D01*
X151660000Y-83600000D02*
X151660000Y-78920000D01*
X159890000Y-87840000D02*
X159890000Y-83520000D01*
X159230000Y-82530000D02*
X158380000Y-81680000D01*
X160880000Y-82530000D02*
X159230000Y-82530000D01*
X158380000Y-81680000D02*
X158380000Y-79310000D01*
X152514999Y-78065001D02*
X152330000Y-78250000D01*
X157135001Y-78065001D02*
X152514999Y-78065001D01*
X158380000Y-79310000D02*
X157135001Y-78065001D01*
%TO.N,Net-(J1-Pad1)*%
X140480000Y-78640000D02*
X140480000Y-90150000D01*
X141610000Y-77510000D02*
X140480000Y-78640000D01*
X141330000Y-91000000D02*
X143000000Y-91000000D01*
X142910000Y-77510000D02*
X141610000Y-77510000D01*
X140480000Y-90150000D02*
X141330000Y-91000000D01*
X143350000Y-77070000D02*
X142910000Y-77510000D01*
%TO.N,Net-(J2-Pad3)*%
X164770000Y-95200000D02*
X164390000Y-94820000D01*
X164770000Y-96130000D02*
X164770000Y-95200000D01*
X164330000Y-96570000D02*
X164770000Y-96130000D01*
X160270000Y-96570000D02*
X164330000Y-96570000D01*
X159890000Y-96190000D02*
X160270000Y-96570000D01*
X159890000Y-95440000D02*
X159890000Y-96190000D01*
%TO.N,Net-(J2-Pad2)*%
X147290000Y-87840000D02*
X155170000Y-87840000D01*
X155170000Y-87840000D02*
X156970000Y-89640000D01*
X160760000Y-89640000D02*
X163400000Y-92280000D01*
X163400000Y-92280000D02*
X164390000Y-92280000D01*
X156970000Y-89640000D02*
X160760000Y-89640000D01*
%TO.N,Net-(J2-Pad1)*%
X166110000Y-89280000D02*
X164850000Y-89280000D01*
X166510000Y-96930000D02*
X166510000Y-89680000D01*
X166160000Y-97280000D02*
X166510000Y-96930000D01*
X158180000Y-97280000D02*
X166160000Y-97280000D01*
X164850000Y-89280000D02*
X164390000Y-89740000D01*
X166510000Y-89680000D02*
X166110000Y-89280000D01*
X157390000Y-96490000D02*
X158180000Y-97280000D01*
X157390000Y-95440000D02*
X157390000Y-96490000D01*
%TO.N,Net-(Q1-Pad2)*%
X152930000Y-84190002D02*
X152930000Y-83600000D01*
X152930000Y-83600000D02*
X152930000Y-84620000D01*
X152930000Y-84620000D02*
X151900000Y-85650000D01*
X151900000Y-85650000D02*
X145920000Y-85650000D01*
X145920000Y-85650000D02*
X145480000Y-85210000D01*
X145480000Y-85210000D02*
X145480000Y-83620000D01*
X144010000Y-82150000D02*
X143350000Y-82150000D01*
X145480000Y-83620000D02*
X144010000Y-82150000D01*
%TD*%
D25*
%TO.N,Earth*%
X168886440Y-73870279D02*
X168706654Y-74304321D01*
X168615000Y-74765098D01*
X168615000Y-75234902D01*
X168706654Y-75695679D01*
X168886440Y-76129721D01*
X169147450Y-76520349D01*
X169479651Y-76852550D01*
X169870279Y-77113560D01*
X170304321Y-77293346D01*
X170765098Y-77385000D01*
X171234902Y-77385000D01*
X171695679Y-77293346D01*
X172129721Y-77113560D01*
X172340001Y-76973055D01*
X172340000Y-98026944D01*
X172129721Y-97886440D01*
X171695679Y-97706654D01*
X171234902Y-97615000D01*
X170765098Y-97615000D01*
X170304321Y-97706654D01*
X169870279Y-97886440D01*
X169479651Y-98147450D01*
X169147450Y-98479651D01*
X168886440Y-98870279D01*
X168706654Y-99304321D01*
X168615000Y-99765098D01*
X168615000Y-100234902D01*
X168706654Y-100695679D01*
X168886440Y-101129721D01*
X169026944Y-101340000D01*
X141973056Y-101340000D01*
X142113560Y-101129721D01*
X142293346Y-100695679D01*
X142385000Y-100234902D01*
X142385000Y-99765098D01*
X142293346Y-99304321D01*
X142113560Y-98870279D01*
X141852550Y-98479651D01*
X141520349Y-98147450D01*
X141129721Y-97886440D01*
X140695679Y-97706654D01*
X140234902Y-97615000D01*
X139765098Y-97615000D01*
X139304321Y-97706654D01*
X138870279Y-97886440D01*
X138660000Y-98026944D01*
X138660000Y-76973056D01*
X138870279Y-77113560D01*
X139304321Y-77293346D01*
X139765098Y-77385000D01*
X140234902Y-77385000D01*
X140695679Y-77293346D01*
X140791573Y-77253626D01*
X139969002Y-78076196D01*
X139939999Y-78099999D01*
X139896453Y-78153061D01*
X139845026Y-78215724D01*
X139821893Y-78259003D01*
X139774454Y-78347754D01*
X139730997Y-78491015D01*
X139720000Y-78602668D01*
X139720000Y-78602678D01*
X139716324Y-78640000D01*
X139720000Y-78677322D01*
X139720001Y-90112668D01*
X139716324Y-90150000D01*
X139720001Y-90187333D01*
X139726272Y-90250997D01*
X139730998Y-90298985D01*
X139774454Y-90442246D01*
X139845026Y-90574276D01*
X139857931Y-90590000D01*
X139940000Y-90690001D01*
X139968998Y-90713799D01*
X140766201Y-91511003D01*
X140789999Y-91540001D01*
X140818997Y-91563799D01*
X140905724Y-91634974D01*
X141037753Y-91705546D01*
X141181014Y-91749003D01*
X141330000Y-91763677D01*
X141367333Y-91760000D01*
X141511928Y-91760000D01*
X141511928Y-91850000D01*
X141524188Y-91974482D01*
X141560498Y-92094180D01*
X141619463Y-92204494D01*
X141698815Y-92301185D01*
X141795506Y-92380537D01*
X141905820Y-92439502D01*
X142025518Y-92475812D01*
X142150000Y-92488072D01*
X143850000Y-92488072D01*
X143974482Y-92475812D01*
X144094180Y-92439502D01*
X144204494Y-92380537D01*
X144301185Y-92301185D01*
X144380537Y-92204494D01*
X144439502Y-92094180D01*
X144475812Y-91974482D01*
X144488072Y-91850000D01*
X144488072Y-90150000D01*
X144475812Y-90025518D01*
X144439502Y-89905820D01*
X144380537Y-89795506D01*
X144301185Y-89698815D01*
X144204494Y-89619463D01*
X144094180Y-89560498D01*
X144013534Y-89536034D01*
X144097588Y-89460269D01*
X144271641Y-89226920D01*
X144396825Y-88964099D01*
X144441476Y-88816890D01*
X144320155Y-88587000D01*
X143127000Y-88587000D01*
X143127000Y-88607000D01*
X142873000Y-88607000D01*
X142873000Y-88587000D01*
X141679845Y-88587000D01*
X141558524Y-88816890D01*
X141603175Y-88964099D01*
X141728359Y-89226920D01*
X141902412Y-89460269D01*
X141986466Y-89536034D01*
X141905820Y-89560498D01*
X141795506Y-89619463D01*
X141698815Y-89698815D01*
X141619463Y-89795506D01*
X141560498Y-89905820D01*
X141524188Y-90025518D01*
X141515772Y-90110970D01*
X141240000Y-89835199D01*
X141240000Y-86662629D01*
X141261014Y-86669003D01*
X141372667Y-86680000D01*
X141372676Y-86680000D01*
X141409999Y-86683676D01*
X141447322Y-86680000D01*
X141721822Y-86680000D01*
X141846525Y-86866632D01*
X142053368Y-87073475D01*
X142235534Y-87195195D01*
X142118645Y-87264822D01*
X141902412Y-87459731D01*
X141728359Y-87693080D01*
X141603175Y-87955901D01*
X141558524Y-88103110D01*
X141679845Y-88333000D01*
X142873000Y-88333000D01*
X142873000Y-88313000D01*
X143127000Y-88313000D01*
X143127000Y-88333000D01*
X144320155Y-88333000D01*
X144441476Y-88103110D01*
X144396825Y-87955901D01*
X144271641Y-87693080D01*
X144097588Y-87459731D01*
X143881355Y-87264822D01*
X143764466Y-87195195D01*
X143946632Y-87073475D01*
X144153475Y-86866632D01*
X144315990Y-86623411D01*
X144427932Y-86353158D01*
X144485000Y-86066260D01*
X144485000Y-85773740D01*
X144427932Y-85486842D01*
X144315990Y-85216589D01*
X144153475Y-84973368D01*
X143946632Y-84766525D01*
X143703411Y-84604010D01*
X143433158Y-84492068D01*
X143146260Y-84435000D01*
X142853740Y-84435000D01*
X142566842Y-84492068D01*
X142296589Y-84604010D01*
X142053368Y-84766525D01*
X141846525Y-84973368D01*
X141790000Y-85057964D01*
X141790000Y-79044801D01*
X141914802Y-78920000D01*
X145717678Y-78920000D01*
X145755000Y-78923676D01*
X145792322Y-78920000D01*
X145792333Y-78920000D01*
X145903986Y-78909003D01*
X146047247Y-78865546D01*
X146179276Y-78794974D01*
X146295001Y-78700001D01*
X146318804Y-78670998D01*
X146684801Y-78305000D01*
X146821486Y-78305000D01*
X147079405Y-78253696D01*
X147322359Y-78153061D01*
X147541013Y-78006962D01*
X147726962Y-77821013D01*
X147873061Y-77602359D01*
X147973696Y-77359405D01*
X148025000Y-77101486D01*
X148025000Y-76838514D01*
X147973696Y-76580595D01*
X147873061Y-76337641D01*
X147726962Y-76118987D01*
X147541013Y-75933038D01*
X147511490Y-75913311D01*
X147654802Y-75770000D01*
X155260000Y-75770000D01*
X155260000Y-75924962D01*
X155175820Y-75950498D01*
X155065506Y-76009463D01*
X154968815Y-76088815D01*
X154889463Y-76185506D01*
X154830498Y-76295820D01*
X154794188Y-76415518D01*
X154781928Y-76540000D01*
X154781928Y-77305001D01*
X153863640Y-77305001D01*
X153855812Y-77225518D01*
X153819502Y-77105820D01*
X153760537Y-76995506D01*
X153681185Y-76898815D01*
X153584494Y-76819463D01*
X153474180Y-76760498D01*
X153354482Y-76724188D01*
X153230000Y-76711928D01*
X151430000Y-76711928D01*
X151305518Y-76724188D01*
X151185820Y-76760498D01*
X151075506Y-76819463D01*
X150978815Y-76898815D01*
X150899463Y-76995506D01*
X150840498Y-77105820D01*
X150834944Y-77124127D01*
X150768505Y-77057688D01*
X150517095Y-76889701D01*
X150237743Y-76773989D01*
X149941184Y-76715000D01*
X149638816Y-76715000D01*
X149342257Y-76773989D01*
X149062905Y-76889701D01*
X148811495Y-77057688D01*
X148597688Y-77271495D01*
X148429701Y-77522905D01*
X148313989Y-77802257D01*
X148255000Y-78098816D01*
X148255000Y-78401184D01*
X148313989Y-78697743D01*
X148429701Y-78977095D01*
X148597688Y-79228505D01*
X148811495Y-79442312D01*
X149030001Y-79588313D01*
X149030000Y-81005198D01*
X148745199Y-81290000D01*
X147787775Y-81290000D01*
X147726962Y-81198987D01*
X147541013Y-81013038D01*
X147322359Y-80866939D01*
X147079405Y-80766304D01*
X146821486Y-80715000D01*
X146558514Y-80715000D01*
X146300595Y-80766304D01*
X146057641Y-80866939D01*
X145838987Y-81013038D01*
X145653038Y-81198987D01*
X145506939Y-81417641D01*
X145406304Y-81660595D01*
X145355000Y-81918514D01*
X145355000Y-82181486D01*
X145406304Y-82439405D01*
X145429000Y-82494199D01*
X144590067Y-81655266D01*
X144533061Y-81517641D01*
X144386962Y-81298987D01*
X144201013Y-81113038D01*
X143982359Y-80966939D01*
X143739405Y-80866304D01*
X143481486Y-80815000D01*
X143218514Y-80815000D01*
X142960595Y-80866304D01*
X142717641Y-80966939D01*
X142498987Y-81113038D01*
X142313038Y-81298987D01*
X142166939Y-81517641D01*
X142066304Y-81760595D01*
X142015000Y-82018514D01*
X142015000Y-82281486D01*
X142066304Y-82539405D01*
X142166939Y-82782359D01*
X142313038Y-83001013D01*
X142498987Y-83186962D01*
X142717641Y-83333061D01*
X142960595Y-83433696D01*
X143218514Y-83485000D01*
X143481486Y-83485000D01*
X143739405Y-83433696D01*
X143982359Y-83333061D01*
X144063826Y-83278627D01*
X144720001Y-83934803D01*
X144720000Y-85172677D01*
X144716324Y-85210000D01*
X144720000Y-85247322D01*
X144720000Y-85247332D01*
X144730997Y-85358985D01*
X144769781Y-85486842D01*
X144774454Y-85502246D01*
X144845026Y-85634276D01*
X144857931Y-85650000D01*
X144939999Y-85750001D01*
X144969003Y-85773804D01*
X145356196Y-86160997D01*
X145379999Y-86190001D01*
X145447681Y-86245546D01*
X145495723Y-86284974D01*
X145623285Y-86353158D01*
X145627753Y-86355546D01*
X145771014Y-86399003D01*
X145882667Y-86410000D01*
X145882677Y-86410000D01*
X145920000Y-86413676D01*
X145957323Y-86410000D01*
X151862678Y-86410000D01*
X151900000Y-86413676D01*
X151937322Y-86410000D01*
X151937333Y-86410000D01*
X152048986Y-86399003D01*
X152192247Y-86355546D01*
X152324276Y-86284974D01*
X152440001Y-86190001D01*
X152463804Y-86160998D01*
X153441003Y-85183799D01*
X153470001Y-85160001D01*
X153551237Y-85061015D01*
X153564974Y-85044277D01*
X153635546Y-84912247D01*
X153652778Y-84855438D01*
X153832663Y-84935272D01*
X153894190Y-84943964D01*
X154073000Y-84818163D01*
X154073000Y-84053108D01*
X154073215Y-84052399D01*
X154090000Y-83881978D01*
X154090000Y-83727000D01*
X154327000Y-83727000D01*
X154327000Y-84818163D01*
X154505810Y-84943964D01*
X154567337Y-84935272D01*
X154776882Y-84842275D01*
X154964258Y-84710184D01*
X155122264Y-84544076D01*
X155244828Y-84350334D01*
X155327239Y-84136404D01*
X155366331Y-83910507D01*
X155206598Y-83727000D01*
X154327000Y-83727000D01*
X154090000Y-83727000D01*
X154090000Y-83318021D01*
X154073215Y-83147600D01*
X154073000Y-83146891D01*
X154073000Y-82381837D01*
X154327000Y-82381837D01*
X154327000Y-83473000D01*
X155206598Y-83473000D01*
X155366331Y-83289493D01*
X155327239Y-83063596D01*
X155244828Y-82849666D01*
X155122264Y-82655924D01*
X154964258Y-82489816D01*
X154776882Y-82357725D01*
X154567337Y-82264728D01*
X154505810Y-82256036D01*
X154327000Y-82381837D01*
X154073000Y-82381837D01*
X153894190Y-82256036D01*
X153832663Y-82264728D01*
X153623118Y-82357725D01*
X153564669Y-82398929D01*
X153376059Y-82298115D01*
X153157399Y-82231785D01*
X152930000Y-82209388D01*
X152702600Y-82231785D01*
X152493902Y-82295093D01*
X152429180Y-82260498D01*
X152420000Y-82257713D01*
X152420000Y-79989764D01*
X155349841Y-79989764D01*
X155397148Y-80213348D01*
X155618516Y-80314237D01*
X155855313Y-80370000D01*
X156098438Y-80378495D01*
X156338549Y-80339395D01*
X156566418Y-80254202D01*
X156642852Y-80213348D01*
X156690159Y-79989764D01*
X156020000Y-79319605D01*
X155349841Y-79989764D01*
X152420000Y-79989764D01*
X152420000Y-79788072D01*
X153230000Y-79788072D01*
X153354482Y-79775812D01*
X153474180Y-79739502D01*
X153584494Y-79680537D01*
X153681185Y-79601185D01*
X153760537Y-79504494D01*
X153819502Y-79394180D01*
X153855812Y-79274482D01*
X153868072Y-79150000D01*
X153868072Y-78825001D01*
X154825397Y-78825001D01*
X154790000Y-78975313D01*
X154781505Y-79218438D01*
X154820605Y-79458549D01*
X154905798Y-79686418D01*
X154946652Y-79762852D01*
X155170236Y-79810159D01*
X155840395Y-79140000D01*
X155826253Y-79125858D01*
X156005858Y-78946253D01*
X156020000Y-78960395D01*
X156034143Y-78946253D01*
X156213748Y-79125858D01*
X156199605Y-79140000D01*
X156869764Y-79810159D01*
X157093348Y-79762852D01*
X157194237Y-79541484D01*
X157250000Y-79304687D01*
X157251684Y-79256486D01*
X157620001Y-79624803D01*
X157620000Y-81642677D01*
X157616324Y-81680000D01*
X157620000Y-81717322D01*
X157620000Y-81717332D01*
X157630997Y-81828985D01*
X157652847Y-81901015D01*
X157674454Y-81972246D01*
X157745026Y-82104276D01*
X157782551Y-82150000D01*
X157839999Y-82220001D01*
X157869002Y-82243803D01*
X158666201Y-83041003D01*
X158689999Y-83070001D01*
X158805724Y-83164974D01*
X158841928Y-83184326D01*
X158841928Y-83930000D01*
X158854188Y-84054482D01*
X158890498Y-84174180D01*
X158949463Y-84284494D01*
X159028815Y-84381185D01*
X159125506Y-84460537D01*
X159130001Y-84462940D01*
X159130000Y-86677279D01*
X159004564Y-86761093D01*
X158811093Y-86954564D01*
X158659084Y-87182062D01*
X158640000Y-87228135D01*
X158620916Y-87182062D01*
X158468907Y-86954564D01*
X158275436Y-86761093D01*
X158047938Y-86609084D01*
X157795156Y-86504378D01*
X157526805Y-86451000D01*
X157253195Y-86451000D01*
X156984844Y-86504378D01*
X156732062Y-86609084D01*
X156504564Y-86761093D01*
X156311093Y-86954564D01*
X156159084Y-87182062D01*
X156054378Y-87434844D01*
X156018752Y-87613950D01*
X155733803Y-87329002D01*
X155710001Y-87299999D01*
X155594276Y-87205026D01*
X155462247Y-87134454D01*
X155318986Y-87090997D01*
X155207333Y-87080000D01*
X155207322Y-87080000D01*
X155170000Y-87076324D01*
X155132678Y-87080000D01*
X148452720Y-87080000D01*
X148368907Y-86954564D01*
X148175436Y-86761093D01*
X147947938Y-86609084D01*
X147695156Y-86504378D01*
X147426805Y-86451000D01*
X147153195Y-86451000D01*
X146884844Y-86504378D01*
X146632062Y-86609084D01*
X146404564Y-86761093D01*
X146211093Y-86954564D01*
X146059084Y-87182062D01*
X145954378Y-87434844D01*
X145901000Y-87703195D01*
X145901000Y-87976805D01*
X145954378Y-88245156D01*
X146059084Y-88497938D01*
X146211093Y-88725436D01*
X146404564Y-88918907D01*
X146632062Y-89070916D01*
X146884844Y-89175622D01*
X147153195Y-89229000D01*
X147426805Y-89229000D01*
X147695156Y-89175622D01*
X147947938Y-89070916D01*
X148175436Y-88918907D01*
X148368907Y-88725436D01*
X148452720Y-88600000D01*
X154855199Y-88600000D01*
X156406205Y-90151008D01*
X156429999Y-90180001D01*
X156458992Y-90203795D01*
X156458996Y-90203799D01*
X156503108Y-90240000D01*
X156545724Y-90274974D01*
X156677753Y-90345546D01*
X156821014Y-90389003D01*
X156932667Y-90400000D01*
X156932676Y-90400000D01*
X156969999Y-90403676D01*
X157007322Y-90400000D01*
X160445199Y-90400000D01*
X162836201Y-92791003D01*
X162859999Y-92820001D01*
X162975724Y-92914974D01*
X163065551Y-92962988D01*
X163074010Y-92983411D01*
X163236525Y-93226632D01*
X163443368Y-93433475D01*
X163617760Y-93550000D01*
X163443368Y-93666525D01*
X163236525Y-93873368D01*
X163074010Y-94116589D01*
X162962068Y-94386842D01*
X162905000Y-94673740D01*
X162905000Y-94966260D01*
X162962068Y-95253158D01*
X163074010Y-95523411D01*
X163236525Y-95766632D01*
X163279893Y-95810000D01*
X161232615Y-95810000D01*
X161279000Y-95576805D01*
X161279000Y-95303195D01*
X161225622Y-95034844D01*
X161120916Y-94782062D01*
X160968907Y-94554564D01*
X160775436Y-94361093D01*
X160547938Y-94209084D01*
X160295156Y-94104378D01*
X160026805Y-94051000D01*
X159753195Y-94051000D01*
X159484844Y-94104378D01*
X159232062Y-94209084D01*
X159004564Y-94361093D01*
X158811093Y-94554564D01*
X158659084Y-94782062D01*
X158640000Y-94828135D01*
X158620916Y-94782062D01*
X158468907Y-94554564D01*
X158275436Y-94361093D01*
X158047938Y-94209084D01*
X157795156Y-94104378D01*
X157526805Y-94051000D01*
X157253195Y-94051000D01*
X156984844Y-94104378D01*
X156732062Y-94209084D01*
X156504564Y-94361093D01*
X156311093Y-94554564D01*
X156159084Y-94782062D01*
X156054378Y-95034844D01*
X156001000Y-95303195D01*
X156001000Y-95576805D01*
X156054378Y-95845156D01*
X156159084Y-96097938D01*
X156311093Y-96325436D01*
X156504564Y-96518907D01*
X156637949Y-96608032D01*
X156640998Y-96638985D01*
X156684454Y-96782246D01*
X156755026Y-96914276D01*
X156815328Y-96987753D01*
X156850000Y-97030001D01*
X156878998Y-97053799D01*
X157616201Y-97791002D01*
X157639999Y-97820001D01*
X157755724Y-97914974D01*
X157887753Y-97985546D01*
X158031014Y-98029003D01*
X158142667Y-98040000D01*
X158142675Y-98040000D01*
X158180000Y-98043676D01*
X158217325Y-98040000D01*
X166122678Y-98040000D01*
X166160000Y-98043676D01*
X166197322Y-98040000D01*
X166197333Y-98040000D01*
X166308986Y-98029003D01*
X166452247Y-97985546D01*
X166584276Y-97914974D01*
X166700001Y-97820001D01*
X166723804Y-97790997D01*
X167020998Y-97493803D01*
X167050001Y-97470001D01*
X167144974Y-97354276D01*
X167215546Y-97222247D01*
X167259003Y-97078986D01*
X167270000Y-96967333D01*
X167270000Y-96967325D01*
X167273676Y-96930000D01*
X167270000Y-96892675D01*
X167270000Y-89717322D01*
X167273676Y-89679999D01*
X167270000Y-89642676D01*
X167270000Y-89642667D01*
X167259003Y-89531014D01*
X167215546Y-89387753D01*
X167144974Y-89255724D01*
X167050001Y-89139999D01*
X167021002Y-89116200D01*
X166673803Y-88769002D01*
X166650001Y-88739999D01*
X166534276Y-88645026D01*
X166402247Y-88574454D01*
X166258986Y-88530997D01*
X166147333Y-88520000D01*
X166147322Y-88520000D01*
X166110000Y-88516324D01*
X166072678Y-88520000D01*
X165757812Y-88520000D01*
X165691185Y-88438815D01*
X165594494Y-88359463D01*
X165484180Y-88300498D01*
X165364482Y-88264188D01*
X165240000Y-88251928D01*
X163622874Y-88251928D01*
X163971004Y-87903798D01*
X164000001Y-87880001D01*
X164094974Y-87764276D01*
X164165546Y-87632247D01*
X164209003Y-87488986D01*
X164220000Y-87377333D01*
X164220000Y-87377324D01*
X164223676Y-87340001D01*
X164220000Y-87302678D01*
X164220000Y-78267333D01*
X164223677Y-78230000D01*
X164209003Y-78081014D01*
X164165546Y-77937753D01*
X164094974Y-77805724D01*
X164037755Y-77736003D01*
X164000001Y-77689999D01*
X163971002Y-77666201D01*
X163243803Y-76939002D01*
X163220001Y-76909999D01*
X163104276Y-76815026D01*
X162972247Y-76744454D01*
X162828986Y-76700997D01*
X162770015Y-76695189D01*
X162683393Y-76486066D01*
X162460687Y-76152763D01*
X162177237Y-75869313D01*
X161843934Y-75646607D01*
X161473587Y-75493204D01*
X161080430Y-75415000D01*
X160679570Y-75415000D01*
X160286413Y-75493204D01*
X159916066Y-75646607D01*
X159582763Y-75869313D01*
X159299313Y-76152763D01*
X159147478Y-76380000D01*
X157235038Y-76380000D01*
X157209502Y-76295820D01*
X157150537Y-76185506D01*
X157071185Y-76088815D01*
X156974494Y-76009463D01*
X156864180Y-75950498D01*
X156780000Y-75924962D01*
X156780000Y-75467325D01*
X156783676Y-75430000D01*
X156780000Y-75392675D01*
X156780000Y-75392667D01*
X156769003Y-75281014D01*
X156725546Y-75137753D01*
X156654974Y-75005724D01*
X156560001Y-74889999D01*
X156530998Y-74866197D01*
X156163804Y-74499003D01*
X156140001Y-74469999D01*
X156024276Y-74375026D01*
X155892247Y-74304454D01*
X155748986Y-74260997D01*
X155637333Y-74250000D01*
X155637322Y-74250000D01*
X155600000Y-74246324D01*
X155562678Y-74250000D01*
X147377323Y-74250000D01*
X147340000Y-74246324D01*
X147302677Y-74250000D01*
X147302667Y-74250000D01*
X147191014Y-74260997D01*
X147047753Y-74304454D01*
X146915724Y-74375026D01*
X146799999Y-74469999D01*
X146776200Y-74498998D01*
X146178998Y-75096201D01*
X146150000Y-75119999D01*
X146126202Y-75148997D01*
X146126201Y-75148998D01*
X146055026Y-75235724D01*
X145984454Y-75367754D01*
X145940998Y-75511015D01*
X145926324Y-75660000D01*
X145930001Y-75697332D01*
X145930001Y-75872225D01*
X145838987Y-75933038D01*
X145653038Y-76118987D01*
X145506939Y-76337641D01*
X145406304Y-76580595D01*
X145355000Y-76838514D01*
X145355000Y-77101486D01*
X145406304Y-77359405D01*
X145423119Y-77400000D01*
X144645513Y-77400000D01*
X144685000Y-77201486D01*
X144685000Y-76938514D01*
X144633696Y-76680595D01*
X144533061Y-76437641D01*
X144386962Y-76218987D01*
X144201013Y-76033038D01*
X143982359Y-75886939D01*
X143739405Y-75786304D01*
X143481486Y-75735000D01*
X143218514Y-75735000D01*
X142960595Y-75786304D01*
X142717641Y-75886939D01*
X142498987Y-76033038D01*
X142313038Y-76218987D01*
X142166939Y-76437641D01*
X142066304Y-76680595D01*
X142052498Y-76750000D01*
X141647322Y-76750000D01*
X141625089Y-76747810D01*
X141852550Y-76520349D01*
X142113560Y-76129721D01*
X142293346Y-75695679D01*
X142385000Y-75234902D01*
X142385000Y-74765098D01*
X142293346Y-74304321D01*
X142113560Y-73870279D01*
X141973056Y-73660000D01*
X169026944Y-73660000D01*
X168886440Y-73870279D01*
%TA.AperFunction,Conductor*%
D26*
G36*
X168886440Y-73870279D02*
G01*
X168706654Y-74304321D01*
X168615000Y-74765098D01*
X168615000Y-75234902D01*
X168706654Y-75695679D01*
X168886440Y-76129721D01*
X169147450Y-76520349D01*
X169479651Y-76852550D01*
X169870279Y-77113560D01*
X170304321Y-77293346D01*
X170765098Y-77385000D01*
X171234902Y-77385000D01*
X171695679Y-77293346D01*
X172129721Y-77113560D01*
X172340001Y-76973055D01*
X172340000Y-98026944D01*
X172129721Y-97886440D01*
X171695679Y-97706654D01*
X171234902Y-97615000D01*
X170765098Y-97615000D01*
X170304321Y-97706654D01*
X169870279Y-97886440D01*
X169479651Y-98147450D01*
X169147450Y-98479651D01*
X168886440Y-98870279D01*
X168706654Y-99304321D01*
X168615000Y-99765098D01*
X168615000Y-100234902D01*
X168706654Y-100695679D01*
X168886440Y-101129721D01*
X169026944Y-101340000D01*
X141973056Y-101340000D01*
X142113560Y-101129721D01*
X142293346Y-100695679D01*
X142385000Y-100234902D01*
X142385000Y-99765098D01*
X142293346Y-99304321D01*
X142113560Y-98870279D01*
X141852550Y-98479651D01*
X141520349Y-98147450D01*
X141129721Y-97886440D01*
X140695679Y-97706654D01*
X140234902Y-97615000D01*
X139765098Y-97615000D01*
X139304321Y-97706654D01*
X138870279Y-97886440D01*
X138660000Y-98026944D01*
X138660000Y-76973056D01*
X138870279Y-77113560D01*
X139304321Y-77293346D01*
X139765098Y-77385000D01*
X140234902Y-77385000D01*
X140695679Y-77293346D01*
X140791573Y-77253626D01*
X139969002Y-78076196D01*
X139939999Y-78099999D01*
X139896453Y-78153061D01*
X139845026Y-78215724D01*
X139821893Y-78259003D01*
X139774454Y-78347754D01*
X139730997Y-78491015D01*
X139720000Y-78602668D01*
X139720000Y-78602678D01*
X139716324Y-78640000D01*
X139720000Y-78677322D01*
X139720001Y-90112668D01*
X139716324Y-90150000D01*
X139720001Y-90187333D01*
X139726272Y-90250997D01*
X139730998Y-90298985D01*
X139774454Y-90442246D01*
X139845026Y-90574276D01*
X139857931Y-90590000D01*
X139940000Y-90690001D01*
X139968998Y-90713799D01*
X140766201Y-91511003D01*
X140789999Y-91540001D01*
X140818997Y-91563799D01*
X140905724Y-91634974D01*
X141037753Y-91705546D01*
X141181014Y-91749003D01*
X141330000Y-91763677D01*
X141367333Y-91760000D01*
X141511928Y-91760000D01*
X141511928Y-91850000D01*
X141524188Y-91974482D01*
X141560498Y-92094180D01*
X141619463Y-92204494D01*
X141698815Y-92301185D01*
X141795506Y-92380537D01*
X141905820Y-92439502D01*
X142025518Y-92475812D01*
X142150000Y-92488072D01*
X143850000Y-92488072D01*
X143974482Y-92475812D01*
X144094180Y-92439502D01*
X144204494Y-92380537D01*
X144301185Y-92301185D01*
X144380537Y-92204494D01*
X144439502Y-92094180D01*
X144475812Y-91974482D01*
X144488072Y-91850000D01*
X144488072Y-90150000D01*
X144475812Y-90025518D01*
X144439502Y-89905820D01*
X144380537Y-89795506D01*
X144301185Y-89698815D01*
X144204494Y-89619463D01*
X144094180Y-89560498D01*
X144013534Y-89536034D01*
X144097588Y-89460269D01*
X144271641Y-89226920D01*
X144396825Y-88964099D01*
X144441476Y-88816890D01*
X144320155Y-88587000D01*
X143127000Y-88587000D01*
X143127000Y-88607000D01*
X142873000Y-88607000D01*
X142873000Y-88587000D01*
X141679845Y-88587000D01*
X141558524Y-88816890D01*
X141603175Y-88964099D01*
X141728359Y-89226920D01*
X141902412Y-89460269D01*
X141986466Y-89536034D01*
X141905820Y-89560498D01*
X141795506Y-89619463D01*
X141698815Y-89698815D01*
X141619463Y-89795506D01*
X141560498Y-89905820D01*
X141524188Y-90025518D01*
X141515772Y-90110970D01*
X141240000Y-89835199D01*
X141240000Y-86662629D01*
X141261014Y-86669003D01*
X141372667Y-86680000D01*
X141372676Y-86680000D01*
X141409999Y-86683676D01*
X141447322Y-86680000D01*
X141721822Y-86680000D01*
X141846525Y-86866632D01*
X142053368Y-87073475D01*
X142235534Y-87195195D01*
X142118645Y-87264822D01*
X141902412Y-87459731D01*
X141728359Y-87693080D01*
X141603175Y-87955901D01*
X141558524Y-88103110D01*
X141679845Y-88333000D01*
X142873000Y-88333000D01*
X142873000Y-88313000D01*
X143127000Y-88313000D01*
X143127000Y-88333000D01*
X144320155Y-88333000D01*
X144441476Y-88103110D01*
X144396825Y-87955901D01*
X144271641Y-87693080D01*
X144097588Y-87459731D01*
X143881355Y-87264822D01*
X143764466Y-87195195D01*
X143946632Y-87073475D01*
X144153475Y-86866632D01*
X144315990Y-86623411D01*
X144427932Y-86353158D01*
X144485000Y-86066260D01*
X144485000Y-85773740D01*
X144427932Y-85486842D01*
X144315990Y-85216589D01*
X144153475Y-84973368D01*
X143946632Y-84766525D01*
X143703411Y-84604010D01*
X143433158Y-84492068D01*
X143146260Y-84435000D01*
X142853740Y-84435000D01*
X142566842Y-84492068D01*
X142296589Y-84604010D01*
X142053368Y-84766525D01*
X141846525Y-84973368D01*
X141790000Y-85057964D01*
X141790000Y-79044801D01*
X141914802Y-78920000D01*
X145717678Y-78920000D01*
X145755000Y-78923676D01*
X145792322Y-78920000D01*
X145792333Y-78920000D01*
X145903986Y-78909003D01*
X146047247Y-78865546D01*
X146179276Y-78794974D01*
X146295001Y-78700001D01*
X146318804Y-78670998D01*
X146684801Y-78305000D01*
X146821486Y-78305000D01*
X147079405Y-78253696D01*
X147322359Y-78153061D01*
X147541013Y-78006962D01*
X147726962Y-77821013D01*
X147873061Y-77602359D01*
X147973696Y-77359405D01*
X148025000Y-77101486D01*
X148025000Y-76838514D01*
X147973696Y-76580595D01*
X147873061Y-76337641D01*
X147726962Y-76118987D01*
X147541013Y-75933038D01*
X147511490Y-75913311D01*
X147654802Y-75770000D01*
X155260000Y-75770000D01*
X155260000Y-75924962D01*
X155175820Y-75950498D01*
X155065506Y-76009463D01*
X154968815Y-76088815D01*
X154889463Y-76185506D01*
X154830498Y-76295820D01*
X154794188Y-76415518D01*
X154781928Y-76540000D01*
X154781928Y-77305001D01*
X153863640Y-77305001D01*
X153855812Y-77225518D01*
X153819502Y-77105820D01*
X153760537Y-76995506D01*
X153681185Y-76898815D01*
X153584494Y-76819463D01*
X153474180Y-76760498D01*
X153354482Y-76724188D01*
X153230000Y-76711928D01*
X151430000Y-76711928D01*
X151305518Y-76724188D01*
X151185820Y-76760498D01*
X151075506Y-76819463D01*
X150978815Y-76898815D01*
X150899463Y-76995506D01*
X150840498Y-77105820D01*
X150834944Y-77124127D01*
X150768505Y-77057688D01*
X150517095Y-76889701D01*
X150237743Y-76773989D01*
X149941184Y-76715000D01*
X149638816Y-76715000D01*
X149342257Y-76773989D01*
X149062905Y-76889701D01*
X148811495Y-77057688D01*
X148597688Y-77271495D01*
X148429701Y-77522905D01*
X148313989Y-77802257D01*
X148255000Y-78098816D01*
X148255000Y-78401184D01*
X148313989Y-78697743D01*
X148429701Y-78977095D01*
X148597688Y-79228505D01*
X148811495Y-79442312D01*
X149030001Y-79588313D01*
X149030000Y-81005198D01*
X148745199Y-81290000D01*
X147787775Y-81290000D01*
X147726962Y-81198987D01*
X147541013Y-81013038D01*
X147322359Y-80866939D01*
X147079405Y-80766304D01*
X146821486Y-80715000D01*
X146558514Y-80715000D01*
X146300595Y-80766304D01*
X146057641Y-80866939D01*
X145838987Y-81013038D01*
X145653038Y-81198987D01*
X145506939Y-81417641D01*
X145406304Y-81660595D01*
X145355000Y-81918514D01*
X145355000Y-82181486D01*
X145406304Y-82439405D01*
X145429000Y-82494199D01*
X144590067Y-81655266D01*
X144533061Y-81517641D01*
X144386962Y-81298987D01*
X144201013Y-81113038D01*
X143982359Y-80966939D01*
X143739405Y-80866304D01*
X143481486Y-80815000D01*
X143218514Y-80815000D01*
X142960595Y-80866304D01*
X142717641Y-80966939D01*
X142498987Y-81113038D01*
X142313038Y-81298987D01*
X142166939Y-81517641D01*
X142066304Y-81760595D01*
X142015000Y-82018514D01*
X142015000Y-82281486D01*
X142066304Y-82539405D01*
X142166939Y-82782359D01*
X142313038Y-83001013D01*
X142498987Y-83186962D01*
X142717641Y-83333061D01*
X142960595Y-83433696D01*
X143218514Y-83485000D01*
X143481486Y-83485000D01*
X143739405Y-83433696D01*
X143982359Y-83333061D01*
X144063826Y-83278627D01*
X144720001Y-83934803D01*
X144720000Y-85172677D01*
X144716324Y-85210000D01*
X144720000Y-85247322D01*
X144720000Y-85247332D01*
X144730997Y-85358985D01*
X144769781Y-85486842D01*
X144774454Y-85502246D01*
X144845026Y-85634276D01*
X144857931Y-85650000D01*
X144939999Y-85750001D01*
X144969003Y-85773804D01*
X145356196Y-86160997D01*
X145379999Y-86190001D01*
X145447681Y-86245546D01*
X145495723Y-86284974D01*
X145623285Y-86353158D01*
X145627753Y-86355546D01*
X145771014Y-86399003D01*
X145882667Y-86410000D01*
X145882677Y-86410000D01*
X145920000Y-86413676D01*
X145957323Y-86410000D01*
X151862678Y-86410000D01*
X151900000Y-86413676D01*
X151937322Y-86410000D01*
X151937333Y-86410000D01*
X152048986Y-86399003D01*
X152192247Y-86355546D01*
X152324276Y-86284974D01*
X152440001Y-86190001D01*
X152463804Y-86160998D01*
X153441003Y-85183799D01*
X153470001Y-85160001D01*
X153551237Y-85061015D01*
X153564974Y-85044277D01*
X153635546Y-84912247D01*
X153652778Y-84855438D01*
X153832663Y-84935272D01*
X153894190Y-84943964D01*
X154073000Y-84818163D01*
X154073000Y-84053108D01*
X154073215Y-84052399D01*
X154090000Y-83881978D01*
X154090000Y-83727000D01*
X154327000Y-83727000D01*
X154327000Y-84818163D01*
X154505810Y-84943964D01*
X154567337Y-84935272D01*
X154776882Y-84842275D01*
X154964258Y-84710184D01*
X155122264Y-84544076D01*
X155244828Y-84350334D01*
X155327239Y-84136404D01*
X155366331Y-83910507D01*
X155206598Y-83727000D01*
X154327000Y-83727000D01*
X154090000Y-83727000D01*
X154090000Y-83318021D01*
X154073215Y-83147600D01*
X154073000Y-83146891D01*
X154073000Y-82381837D01*
X154327000Y-82381837D01*
X154327000Y-83473000D01*
X155206598Y-83473000D01*
X155366331Y-83289493D01*
X155327239Y-83063596D01*
X155244828Y-82849666D01*
X155122264Y-82655924D01*
X154964258Y-82489816D01*
X154776882Y-82357725D01*
X154567337Y-82264728D01*
X154505810Y-82256036D01*
X154327000Y-82381837D01*
X154073000Y-82381837D01*
X153894190Y-82256036D01*
X153832663Y-82264728D01*
X153623118Y-82357725D01*
X153564669Y-82398929D01*
X153376059Y-82298115D01*
X153157399Y-82231785D01*
X152930000Y-82209388D01*
X152702600Y-82231785D01*
X152493902Y-82295093D01*
X152429180Y-82260498D01*
X152420000Y-82257713D01*
X152420000Y-79989764D01*
X155349841Y-79989764D01*
X155397148Y-80213348D01*
X155618516Y-80314237D01*
X155855313Y-80370000D01*
X156098438Y-80378495D01*
X156338549Y-80339395D01*
X156566418Y-80254202D01*
X156642852Y-80213348D01*
X156690159Y-79989764D01*
X156020000Y-79319605D01*
X155349841Y-79989764D01*
X152420000Y-79989764D01*
X152420000Y-79788072D01*
X153230000Y-79788072D01*
X153354482Y-79775812D01*
X153474180Y-79739502D01*
X153584494Y-79680537D01*
X153681185Y-79601185D01*
X153760537Y-79504494D01*
X153819502Y-79394180D01*
X153855812Y-79274482D01*
X153868072Y-79150000D01*
X153868072Y-78825001D01*
X154825397Y-78825001D01*
X154790000Y-78975313D01*
X154781505Y-79218438D01*
X154820605Y-79458549D01*
X154905798Y-79686418D01*
X154946652Y-79762852D01*
X155170236Y-79810159D01*
X155840395Y-79140000D01*
X155826253Y-79125858D01*
X156005858Y-78946253D01*
X156020000Y-78960395D01*
X156034143Y-78946253D01*
X156213748Y-79125858D01*
X156199605Y-79140000D01*
X156869764Y-79810159D01*
X157093348Y-79762852D01*
X157194237Y-79541484D01*
X157250000Y-79304687D01*
X157251684Y-79256486D01*
X157620001Y-79624803D01*
X157620000Y-81642677D01*
X157616324Y-81680000D01*
X157620000Y-81717322D01*
X157620000Y-81717332D01*
X157630997Y-81828985D01*
X157652847Y-81901015D01*
X157674454Y-81972246D01*
X157745026Y-82104276D01*
X157782551Y-82150000D01*
X157839999Y-82220001D01*
X157869002Y-82243803D01*
X158666201Y-83041003D01*
X158689999Y-83070001D01*
X158805724Y-83164974D01*
X158841928Y-83184326D01*
X158841928Y-83930000D01*
X158854188Y-84054482D01*
X158890498Y-84174180D01*
X158949463Y-84284494D01*
X159028815Y-84381185D01*
X159125506Y-84460537D01*
X159130001Y-84462940D01*
X159130000Y-86677279D01*
X159004564Y-86761093D01*
X158811093Y-86954564D01*
X158659084Y-87182062D01*
X158640000Y-87228135D01*
X158620916Y-87182062D01*
X158468907Y-86954564D01*
X158275436Y-86761093D01*
X158047938Y-86609084D01*
X157795156Y-86504378D01*
X157526805Y-86451000D01*
X157253195Y-86451000D01*
X156984844Y-86504378D01*
X156732062Y-86609084D01*
X156504564Y-86761093D01*
X156311093Y-86954564D01*
X156159084Y-87182062D01*
X156054378Y-87434844D01*
X156018752Y-87613950D01*
X155733803Y-87329002D01*
X155710001Y-87299999D01*
X155594276Y-87205026D01*
X155462247Y-87134454D01*
X155318986Y-87090997D01*
X155207333Y-87080000D01*
X155207322Y-87080000D01*
X155170000Y-87076324D01*
X155132678Y-87080000D01*
X148452720Y-87080000D01*
X148368907Y-86954564D01*
X148175436Y-86761093D01*
X147947938Y-86609084D01*
X147695156Y-86504378D01*
X147426805Y-86451000D01*
X147153195Y-86451000D01*
X146884844Y-86504378D01*
X146632062Y-86609084D01*
X146404564Y-86761093D01*
X146211093Y-86954564D01*
X146059084Y-87182062D01*
X145954378Y-87434844D01*
X145901000Y-87703195D01*
X145901000Y-87976805D01*
X145954378Y-88245156D01*
X146059084Y-88497938D01*
X146211093Y-88725436D01*
X146404564Y-88918907D01*
X146632062Y-89070916D01*
X146884844Y-89175622D01*
X147153195Y-89229000D01*
X147426805Y-89229000D01*
X147695156Y-89175622D01*
X147947938Y-89070916D01*
X148175436Y-88918907D01*
X148368907Y-88725436D01*
X148452720Y-88600000D01*
X154855199Y-88600000D01*
X156406205Y-90151008D01*
X156429999Y-90180001D01*
X156458992Y-90203795D01*
X156458996Y-90203799D01*
X156503108Y-90240000D01*
X156545724Y-90274974D01*
X156677753Y-90345546D01*
X156821014Y-90389003D01*
X156932667Y-90400000D01*
X156932676Y-90400000D01*
X156969999Y-90403676D01*
X157007322Y-90400000D01*
X160445199Y-90400000D01*
X162836201Y-92791003D01*
X162859999Y-92820001D01*
X162975724Y-92914974D01*
X163065551Y-92962988D01*
X163074010Y-92983411D01*
X163236525Y-93226632D01*
X163443368Y-93433475D01*
X163617760Y-93550000D01*
X163443368Y-93666525D01*
X163236525Y-93873368D01*
X163074010Y-94116589D01*
X162962068Y-94386842D01*
X162905000Y-94673740D01*
X162905000Y-94966260D01*
X162962068Y-95253158D01*
X163074010Y-95523411D01*
X163236525Y-95766632D01*
X163279893Y-95810000D01*
X161232615Y-95810000D01*
X161279000Y-95576805D01*
X161279000Y-95303195D01*
X161225622Y-95034844D01*
X161120916Y-94782062D01*
X160968907Y-94554564D01*
X160775436Y-94361093D01*
X160547938Y-94209084D01*
X160295156Y-94104378D01*
X160026805Y-94051000D01*
X159753195Y-94051000D01*
X159484844Y-94104378D01*
X159232062Y-94209084D01*
X159004564Y-94361093D01*
X158811093Y-94554564D01*
X158659084Y-94782062D01*
X158640000Y-94828135D01*
X158620916Y-94782062D01*
X158468907Y-94554564D01*
X158275436Y-94361093D01*
X158047938Y-94209084D01*
X157795156Y-94104378D01*
X157526805Y-94051000D01*
X157253195Y-94051000D01*
X156984844Y-94104378D01*
X156732062Y-94209084D01*
X156504564Y-94361093D01*
X156311093Y-94554564D01*
X156159084Y-94782062D01*
X156054378Y-95034844D01*
X156001000Y-95303195D01*
X156001000Y-95576805D01*
X156054378Y-95845156D01*
X156159084Y-96097938D01*
X156311093Y-96325436D01*
X156504564Y-96518907D01*
X156637949Y-96608032D01*
X156640998Y-96638985D01*
X156684454Y-96782246D01*
X156755026Y-96914276D01*
X156815328Y-96987753D01*
X156850000Y-97030001D01*
X156878998Y-97053799D01*
X157616201Y-97791002D01*
X157639999Y-97820001D01*
X157755724Y-97914974D01*
X157887753Y-97985546D01*
X158031014Y-98029003D01*
X158142667Y-98040000D01*
X158142675Y-98040000D01*
X158180000Y-98043676D01*
X158217325Y-98040000D01*
X166122678Y-98040000D01*
X166160000Y-98043676D01*
X166197322Y-98040000D01*
X166197333Y-98040000D01*
X166308986Y-98029003D01*
X166452247Y-97985546D01*
X166584276Y-97914974D01*
X166700001Y-97820001D01*
X166723804Y-97790997D01*
X167020998Y-97493803D01*
X167050001Y-97470001D01*
X167144974Y-97354276D01*
X167215546Y-97222247D01*
X167259003Y-97078986D01*
X167270000Y-96967333D01*
X167270000Y-96967325D01*
X167273676Y-96930000D01*
X167270000Y-96892675D01*
X167270000Y-89717322D01*
X167273676Y-89679999D01*
X167270000Y-89642676D01*
X167270000Y-89642667D01*
X167259003Y-89531014D01*
X167215546Y-89387753D01*
X167144974Y-89255724D01*
X167050001Y-89139999D01*
X167021002Y-89116200D01*
X166673803Y-88769002D01*
X166650001Y-88739999D01*
X166534276Y-88645026D01*
X166402247Y-88574454D01*
X166258986Y-88530997D01*
X166147333Y-88520000D01*
X166147322Y-88520000D01*
X166110000Y-88516324D01*
X166072678Y-88520000D01*
X165757812Y-88520000D01*
X165691185Y-88438815D01*
X165594494Y-88359463D01*
X165484180Y-88300498D01*
X165364482Y-88264188D01*
X165240000Y-88251928D01*
X163622874Y-88251928D01*
X163971004Y-87903798D01*
X164000001Y-87880001D01*
X164094974Y-87764276D01*
X164165546Y-87632247D01*
X164209003Y-87488986D01*
X164220000Y-87377333D01*
X164220000Y-87377324D01*
X164223676Y-87340001D01*
X164220000Y-87302678D01*
X164220000Y-78267333D01*
X164223677Y-78230000D01*
X164209003Y-78081014D01*
X164165546Y-77937753D01*
X164094974Y-77805724D01*
X164037755Y-77736003D01*
X164000001Y-77689999D01*
X163971002Y-77666201D01*
X163243803Y-76939002D01*
X163220001Y-76909999D01*
X163104276Y-76815026D01*
X162972247Y-76744454D01*
X162828986Y-76700997D01*
X162770015Y-76695189D01*
X162683393Y-76486066D01*
X162460687Y-76152763D01*
X162177237Y-75869313D01*
X161843934Y-75646607D01*
X161473587Y-75493204D01*
X161080430Y-75415000D01*
X160679570Y-75415000D01*
X160286413Y-75493204D01*
X159916066Y-75646607D01*
X159582763Y-75869313D01*
X159299313Y-76152763D01*
X159147478Y-76380000D01*
X157235038Y-76380000D01*
X157209502Y-76295820D01*
X157150537Y-76185506D01*
X157071185Y-76088815D01*
X156974494Y-76009463D01*
X156864180Y-75950498D01*
X156780000Y-75924962D01*
X156780000Y-75467325D01*
X156783676Y-75430000D01*
X156780000Y-75392675D01*
X156780000Y-75392667D01*
X156769003Y-75281014D01*
X156725546Y-75137753D01*
X156654974Y-75005724D01*
X156560001Y-74889999D01*
X156530998Y-74866197D01*
X156163804Y-74499003D01*
X156140001Y-74469999D01*
X156024276Y-74375026D01*
X155892247Y-74304454D01*
X155748986Y-74260997D01*
X155637333Y-74250000D01*
X155637322Y-74250000D01*
X155600000Y-74246324D01*
X155562678Y-74250000D01*
X147377323Y-74250000D01*
X147340000Y-74246324D01*
X147302677Y-74250000D01*
X147302667Y-74250000D01*
X147191014Y-74260997D01*
X147047753Y-74304454D01*
X146915724Y-74375026D01*
X146799999Y-74469999D01*
X146776200Y-74498998D01*
X146178998Y-75096201D01*
X146150000Y-75119999D01*
X146126202Y-75148997D01*
X146126201Y-75148998D01*
X146055026Y-75235724D01*
X145984454Y-75367754D01*
X145940998Y-75511015D01*
X145926324Y-75660000D01*
X145930001Y-75697332D01*
X145930001Y-75872225D01*
X145838987Y-75933038D01*
X145653038Y-76118987D01*
X145506939Y-76337641D01*
X145406304Y-76580595D01*
X145355000Y-76838514D01*
X145355000Y-77101486D01*
X145406304Y-77359405D01*
X145423119Y-77400000D01*
X144645513Y-77400000D01*
X144685000Y-77201486D01*
X144685000Y-76938514D01*
X144633696Y-76680595D01*
X144533061Y-76437641D01*
X144386962Y-76218987D01*
X144201013Y-76033038D01*
X143982359Y-75886939D01*
X143739405Y-75786304D01*
X143481486Y-75735000D01*
X143218514Y-75735000D01*
X142960595Y-75786304D01*
X142717641Y-75886939D01*
X142498987Y-76033038D01*
X142313038Y-76218987D01*
X142166939Y-76437641D01*
X142066304Y-76680595D01*
X142052498Y-76750000D01*
X141647322Y-76750000D01*
X141625089Y-76747810D01*
X141852550Y-76520349D01*
X142113560Y-76129721D01*
X142293346Y-75695679D01*
X142385000Y-75234902D01*
X142385000Y-74765098D01*
X142293346Y-74304321D01*
X142113560Y-73870279D01*
X141973056Y-73660000D01*
X169026944Y-73660000D01*
X168886440Y-73870279D01*
G37*
%TD.AperFunction*%
%TD*%
M02*
