M48
; DRILL file {KiCad (5.1.12)-1} date 08/22/23 21:21:49
; FORMAT={-:-/ absolute / inch / decimal}
; #@! TF.CreationDate,2023-08-22T21:21:49+05:30
; #@! TF.GenerationSoftware,Kicad,Pcbnew,(5.1.12)-1
; #@! TF.FileFunction,Plated,1,2,PTH
FMAT,2
INCH
T1C0.0236
T2C0.0276
T3C0.0295
T4C0.0354
T5C0.0394
T6C0.0551
T7C0.1339
%
G90
G05
T1
X6.1425Y-3.037
X6.1425Y-3.1157
T2
X5.6437Y-3.0343
X5.6437Y-3.2343
X5.7752Y-3.0303
X5.7752Y-3.2303
T3
X5.9709Y-3.2913
X6.0209Y-3.2913
X6.0709Y-3.2913
T4
X5.8972Y-3.0807
X5.9972Y-3.0807
T5
X5.6299Y-3.3827
X5.6299Y-3.4827
X5.6299Y-3.5827
X5.7988Y-3.4583
X6.1965Y-3.4583
X6.1965Y-3.7575
X6.2949Y-3.4583
X6.2949Y-3.7575
X6.472Y-3.5331
X6.472Y-3.6331
X6.472Y-3.7331
T6
X6.3339Y-3.0492
X6.3339Y-3.2492
T7
X5.5118Y-2.9528
X5.5118Y-3.937
X6.7323Y-2.9528
X6.7323Y-3.937
T0
M30
